<svg width="194" height="195" viewBox="0 0 194 195" fill="none" xmlns="http://www.w3.org/2000/svg">
<path d="M56.9045 7.60759C58.8053 7.60759 60.3461 6.06673 60.3461 4.16598C60.3461 2.26523 58.8053 0.724365 56.9045 0.724365C55.0038 0.724365 53.4629 2.26523 53.4629 4.16598C53.4629 6.06673 55.0038 7.60759 56.9045 7.60759Z" fill="#1CB220"/>
<path d="M76.9533 7.60759C78.8541 7.60759 80.3949 6.06673 80.3949 4.16598C80.3949 2.26523 78.8541 0.724365 76.9533 0.724365C75.0526 0.724365 73.5117 2.26523 73.5117 4.16598C73.5117 6.06673 75.0526 7.60759 76.9533 7.60759Z" fill="#1CB220"/>
<path d="M83.6359 7.60759C85.5367 7.60759 87.0776 6.06673 87.0776 4.16598C87.0776 2.26523 85.5367 0.724365 83.6359 0.724365C81.7352 0.724365 80.1943 2.26523 80.1943 4.16598C80.1943 6.06673 81.7352 7.60759 83.6359 7.60759Z" fill="#1CB220"/>
<path d="M117.05 7.60759C118.951 7.60759 120.492 6.06673 120.492 4.16598C120.492 2.26523 118.951 0.724365 117.05 0.724365C115.149 0.724365 113.608 2.26523 113.608 4.16598C113.608 6.06673 115.149 7.60759 117.05 7.60759Z" fill="#1CB220"/>
<path d="M123.733 7.60759C125.633 7.60759 127.174 6.06673 127.174 4.16598C127.174 2.26523 125.633 0.724365 123.733 0.724365C121.832 0.724365 120.291 2.26523 120.291 4.16598C120.291 6.06673 121.832 7.60759 123.733 7.60759Z" fill="#1CB220"/>
<path d="M137.098 7.60759C138.999 7.60759 140.539 6.06673 140.539 4.16598C140.539 2.26523 138.999 0.724365 137.098 0.724365C135.197 0.724365 133.656 2.26523 133.656 4.16598C133.656 6.06673 135.197 7.60759 137.098 7.60759Z" fill="#1CB220"/>
<path d="M56.9045 14.2895C58.8053 14.2895 60.3461 12.7486 60.3461 10.8479C60.3461 8.94711 58.8053 7.40625 56.9045 7.40625C55.0038 7.40625 53.4629 8.94711 53.4629 10.8479C53.4629 12.7486 55.0038 14.2895 56.9045 14.2895Z" fill="#1CB220"/>
<path d="M63.5881 14.2895C65.4888 14.2895 67.0297 12.7486 67.0297 10.8479C67.0297 8.94711 65.4888 7.40625 63.5881 7.40625C61.6873 7.40625 60.1465 8.94711 60.1465 10.8479C60.1465 12.7486 61.6873 14.2895 63.5881 14.2895Z" fill="#1CB220"/>
<path d="M97.0022 14.2895C98.9029 14.2895 100.444 12.7486 100.444 10.8479C100.444 8.94711 98.9029 7.40625 97.0022 7.40625C95.1014 7.40625 93.5605 8.94711 93.5605 10.8479C93.5605 12.7486 95.1014 14.2895 97.0022 14.2895Z" fill="#1CB220"/>
<path d="M110.366 14.2895C112.267 14.2895 113.808 12.7486 113.808 10.8479C113.808 8.94711 112.267 7.40625 110.366 7.40625C108.466 7.40625 106.925 8.94711 106.925 10.8479C106.925 12.7486 108.466 14.2895 110.366 14.2895Z" fill="#1CB220"/>
<path d="M130.415 14.2895C132.316 14.2895 133.857 12.7486 133.857 10.8479C133.857 8.94711 132.316 7.40625 130.415 7.40625C128.514 7.40625 126.974 8.94711 126.974 10.8479C126.974 12.7486 128.514 14.2895 130.415 14.2895Z" fill="#1CB220"/>
<path d="M56.9045 20.9733C58.8053 20.9733 60.3461 19.4324 60.3461 17.5317C60.3461 15.631 58.8053 14.0901 56.9045 14.0901C55.0038 14.0901 53.4629 15.631 53.4629 17.5317C53.4629 19.4324 55.0038 20.9733 56.9045 20.9733Z" fill="#1CB220"/>
<path d="M130.415 20.9733C132.316 20.9733 133.857 19.4324 133.857 17.5317C133.857 15.631 132.316 14.0901 130.415 14.0901C128.514 14.0901 126.974 15.631 126.974 17.5317C126.974 19.4324 128.514 20.9733 130.415 20.9733Z" fill="#1CB220"/>
<path d="M137.098 20.9733C138.999 20.9733 140.539 19.4324 140.539 17.5317C140.539 15.631 138.999 14.0901 137.098 14.0901C135.197 14.0901 133.656 15.631 133.656 17.5317C133.656 19.4324 135.197 20.9733 137.098 20.9733Z" fill="#1CB220"/>
<path d="M70.2707 27.6552C72.1715 27.6552 73.7123 26.1143 73.7123 24.2136C73.7123 22.3128 72.1715 20.772 70.2707 20.772C68.37 20.772 66.8291 22.3128 66.8291 24.2136C66.8291 26.1143 68.37 27.6552 70.2707 27.6552Z" fill="#1CB220"/>
<path d="M83.6359 27.6552C85.5367 27.6552 87.0776 26.1143 87.0776 24.2136C87.0776 22.3128 85.5367 20.772 83.6359 20.772C81.7352 20.772 80.1943 22.3128 80.1943 24.2136C80.1943 26.1143 81.7352 27.6552 83.6359 27.6552Z" fill="#1CB220"/>
<path d="M97.0022 27.6552C98.9029 27.6552 100.444 26.1143 100.444 24.2136C100.444 22.3128 98.9029 20.772 97.0022 20.772C95.1014 20.772 93.5605 22.3128 93.5605 24.2136C93.5605 26.1143 95.1014 27.6552 97.0022 27.6552Z" fill="#1CB220"/>
<path d="M117.05 27.6552C118.951 27.6552 120.492 26.1143 120.492 24.2136C120.492 22.3128 118.951 20.772 117.05 20.772C115.149 20.772 113.608 22.3128 113.608 24.2136C113.608 26.1143 115.149 27.6552 117.05 27.6552Z" fill="#1CB220"/>
<path d="M130.415 27.6552C132.316 27.6552 133.857 26.1143 133.857 24.2136C133.857 22.3128 132.316 20.772 130.415 20.772C128.514 20.772 126.974 22.3128 126.974 24.2136C126.974 26.1143 128.514 27.6552 130.415 27.6552Z" fill="#1CB220"/>
<path d="M63.5881 34.3371C65.4888 34.3371 67.0297 32.7962 67.0297 30.8955C67.0297 28.9947 65.4888 27.4539 63.5881 27.4539C61.6873 27.4539 60.1465 28.9947 60.1465 30.8955C60.1465 32.7962 61.6873 34.3371 63.5881 34.3371Z" fill="#1CB220"/>
<path d="M76.9533 34.3371C78.8541 34.3371 80.3949 32.7962 80.3949 30.8955C80.3949 28.9947 78.8541 27.4539 76.9533 27.4539C75.0526 27.4539 73.5117 28.9947 73.5117 30.8955C73.5117 32.7962 75.0526 34.3371 76.9533 34.3371Z" fill="#1CB220"/>
<path d="M90.3195 34.3371C92.2203 34.3371 93.7612 32.7962 93.7612 30.8955C93.7612 28.9947 92.2203 27.4539 90.3195 27.4539C88.4188 27.4539 86.8779 28.9947 86.8779 30.8955C86.8779 32.7962 88.4188 34.3371 90.3195 34.3371Z" fill="#1CB220"/>
<path d="M123.733 34.3371C125.633 34.3371 127.174 32.7962 127.174 30.8955C127.174 28.9947 125.633 27.4539 123.733 27.4539C121.832 27.4539 120.291 28.9947 120.291 30.8955C120.291 32.7962 121.832 34.3371 123.733 34.3371Z" fill="#1CB220"/>
<path d="M130.415 34.3371C132.316 34.3371 133.857 32.7962 133.857 30.8955C133.857 28.9947 132.316 27.4539 130.415 27.4539C128.514 27.4539 126.974 28.9947 126.974 30.8955C126.974 32.7962 128.514 34.3371 130.415 34.3371Z" fill="#1CB220"/>
<path d="M137.098 34.3371C138.999 34.3371 140.539 32.7962 140.539 30.8955C140.539 28.9947 138.999 27.4539 137.098 27.4539C135.197 27.4539 133.656 28.9947 133.656 30.8955C133.656 32.7962 135.197 34.3371 137.098 34.3371Z" fill="#1CB220"/>
<path d="M56.9045 41.0209C58.8053 41.0209 60.3461 39.4801 60.3461 37.5793C60.3461 35.6786 58.8053 34.1377 56.9045 34.1377C55.0038 34.1377 53.4629 35.6786 53.4629 37.5793C53.4629 39.4801 55.0038 41.0209 56.9045 41.0209Z" fill="#1CB220"/>
<path d="M70.2707 41.0209C72.1715 41.0209 73.7123 39.4801 73.7123 37.5793C73.7123 35.6786 72.1715 34.1377 70.2707 34.1377C68.37 34.1377 66.8291 35.6786 66.8291 37.5793C66.8291 39.4801 68.37 41.0209 70.2707 41.0209Z" fill="#1CB220"/>
<path d="M110.366 41.0209C112.267 41.0209 113.808 39.4801 113.808 37.5793C113.808 35.6786 112.267 34.1377 110.366 34.1377C108.466 34.1377 106.925 35.6786 106.925 37.5793C106.925 39.4801 108.466 41.0209 110.366 41.0209Z" fill="#1CB220"/>
<path d="M123.733 41.0209C125.633 41.0209 127.174 39.4801 127.174 37.5793C127.174 35.6786 125.633 34.1377 123.733 34.1377C121.832 34.1377 120.291 35.6786 120.291 37.5793C120.291 39.4801 121.832 41.0209 123.733 41.0209Z" fill="#1CB220"/>
<path d="M56.9045 47.7028C58.8053 47.7028 60.3461 46.1619 60.3461 44.2612C60.3461 42.3604 58.8053 40.8196 56.9045 40.8196C55.0038 40.8196 53.4629 42.3604 53.4629 44.2612C53.4629 46.1619 55.0038 47.7028 56.9045 47.7028Z" fill="#1CB220"/>
<path d="M70.2707 47.7028C72.1715 47.7028 73.7123 46.1619 73.7123 44.2612C73.7123 42.3604 72.1715 40.8196 70.2707 40.8196C68.37 40.8196 66.8291 42.3604 66.8291 44.2612C66.8291 46.1619 68.37 47.7028 70.2707 47.7028Z" fill="#1CB220"/>
<path d="M83.6359 47.7028C85.5367 47.7028 87.0776 46.1619 87.0776 44.2612C87.0776 42.3604 85.5367 40.8196 83.6359 40.8196C81.7352 40.8196 80.1943 42.3604 80.1943 44.2612C80.1943 46.1619 81.7352 47.7028 83.6359 47.7028Z" fill="#1CB220"/>
<path d="M97.0022 47.7028C98.9029 47.7028 100.444 46.1619 100.444 44.2612C100.444 42.3604 98.9029 40.8196 97.0022 40.8196C95.1014 40.8196 93.5605 42.3604 93.5605 44.2612C93.5605 46.1619 95.1014 47.7028 97.0022 47.7028Z" fill="#1CB220"/>
<path d="M110.366 47.7028C112.267 47.7028 113.808 46.1619 113.808 44.2612C113.808 42.3604 112.267 40.8196 110.366 40.8196C108.466 40.8196 106.925 42.3604 106.925 44.2612C106.925 46.1619 108.466 47.7028 110.366 47.7028Z" fill="#1CB220"/>
<path d="M123.733 47.7028C125.633 47.7028 127.174 46.1619 127.174 44.2612C127.174 42.3604 125.633 40.8196 123.733 40.8196C121.832 40.8196 120.291 42.3604 120.291 44.2612C120.291 46.1619 121.832 47.7028 123.733 47.7028Z" fill="#1CB220"/>
<path d="M137.098 47.7028C138.999 47.7028 140.539 46.1619 140.539 44.2612C140.539 42.3604 138.999 40.8196 137.098 40.8196C135.197 40.8196 133.656 42.3604 133.656 44.2612C133.656 46.1619 135.197 47.7028 137.098 47.7028Z" fill="#1CB220"/>
<path d="M56.9045 54.3866C58.8053 54.3866 60.3461 52.8458 60.3461 50.945C60.3461 49.0443 58.8053 47.5034 56.9045 47.5034C55.0038 47.5034 53.4629 49.0443 53.4629 50.945C53.4629 52.8458 55.0038 54.3866 56.9045 54.3866Z" fill="#1CB220"/>
<path d="M63.5881 54.3866C65.4888 54.3866 67.0297 52.8458 67.0297 50.945C67.0297 49.0443 65.4888 47.5034 63.5881 47.5034C61.6873 47.5034 60.1465 49.0443 60.1465 50.945C60.1465 52.8458 61.6873 54.3866 63.5881 54.3866Z" fill="#1CB220"/>
<path d="M76.9533 54.3866C78.8541 54.3866 80.3949 52.8458 80.3949 50.945C80.3949 49.0443 78.8541 47.5034 76.9533 47.5034C75.0526 47.5034 73.5117 49.0443 73.5117 50.945C73.5117 52.8458 75.0526 54.3866 76.9533 54.3866Z" fill="#1CB220"/>
<path d="M90.3195 54.3866C92.2203 54.3866 93.7612 52.8458 93.7612 50.945C93.7612 49.0443 92.2203 47.5034 90.3195 47.5034C88.4188 47.5034 86.8779 49.0443 86.8779 50.945C86.8779 52.8458 88.4188 54.3866 90.3195 54.3866Z" fill="#1CB220"/>
<path d="M97.0022 54.3866C98.9029 54.3866 100.444 52.8458 100.444 50.945C100.444 49.0443 98.9029 47.5034 97.0022 47.5034C95.1014 47.5034 93.5605 49.0443 93.5605 50.945C93.5605 52.8458 95.1014 54.3866 97.0022 54.3866Z" fill="#1CB220"/>
<path d="M110.366 54.3866C112.267 54.3866 113.808 52.8458 113.808 50.945C113.808 49.0443 112.267 47.5034 110.366 47.5034C108.466 47.5034 106.925 49.0443 106.925 50.945C106.925 52.8458 108.466 54.3866 110.366 54.3866Z" fill="#1CB220"/>
<path d="M130.415 54.3866C132.316 54.3866 133.857 52.8458 133.857 50.945C133.857 49.0443 132.316 47.5034 130.415 47.5034C128.514 47.5034 126.974 49.0443 126.974 50.945C126.974 52.8458 128.514 54.3866 130.415 54.3866Z" fill="#1CB220"/>
<path d="M137.098 54.3866C138.999 54.3866 140.539 52.8458 140.539 50.945C140.539 49.0443 138.999 47.5034 137.098 47.5034C135.197 47.5034 133.656 49.0443 133.656 50.945C133.656 52.8458 135.197 54.3866 137.098 54.3866Z" fill="#1CB220"/>
<path d="M16.8088 61.0685C18.7095 61.0685 20.2504 59.5277 20.2504 57.6269C20.2504 55.7262 18.7095 54.1853 16.8088 54.1853C14.908 54.1853 13.3672 55.7262 13.3672 57.6269C13.3672 59.5277 14.908 61.0685 16.8088 61.0685Z" fill="#1CB220"/>
<path d="M23.4914 61.0685C25.3922 61.0685 26.933 59.5277 26.933 57.6269C26.933 55.7262 25.3922 54.1853 23.4914 54.1853C21.5907 54.1853 20.0498 55.7262 20.0498 57.6269C20.0498 59.5277 21.5907 61.0685 23.4914 61.0685Z" fill="#1CB220"/>
<path d="M30.174 61.0685C32.0748 61.0685 33.6156 59.5277 33.6156 57.6269C33.6156 55.7262 32.0748 54.1853 30.174 54.1853C28.2733 54.1853 26.7324 55.7262 26.7324 57.6269C26.7324 59.5277 28.2733 61.0685 30.174 61.0685Z" fill="#1CB220"/>
<path d="M43.5402 61.0685C45.441 61.0685 46.9819 59.5277 46.9819 57.6269C46.9819 55.7262 45.441 54.1853 43.5402 54.1853C41.6395 54.1853 40.0986 55.7262 40.0986 57.6269C40.0986 59.5277 41.6395 61.0685 43.5402 61.0685Z" fill="#1CB220"/>
<path d="M56.9045 61.0685C58.8053 61.0685 60.3461 59.5277 60.3461 57.6269C60.3461 55.7262 58.8053 54.1853 56.9045 54.1853C55.0038 54.1853 53.4629 55.7262 53.4629 57.6269C53.4629 59.5277 55.0038 61.0685 56.9045 61.0685Z" fill="#1CB220"/>
<path d="M76.9533 61.0685C78.8541 61.0685 80.3949 59.5277 80.3949 57.6269C80.3949 55.7262 78.8541 54.1853 76.9533 54.1853C75.0526 54.1853 73.5117 55.7262 73.5117 57.6269C73.5117 59.5277 75.0526 61.0685 76.9533 61.0685Z" fill="#1CB220"/>
<path d="M83.6359 61.0685C85.5367 61.0685 87.0776 59.5277 87.0776 57.6269C87.0776 55.7262 85.5367 54.1853 83.6359 54.1853C81.7352 54.1853 80.1943 55.7262 80.1943 57.6269C80.1943 59.5277 81.7352 61.0685 83.6359 61.0685Z" fill="#1CB220"/>
<path d="M90.3195 61.0685C92.2203 61.0685 93.7612 59.5277 93.7612 57.6269C93.7612 55.7262 92.2203 54.1853 90.3195 54.1853C88.4188 54.1853 86.8779 55.7262 86.8779 57.6269C86.8779 59.5277 88.4188 61.0685 90.3195 61.0685Z" fill="#1CB220"/>
<path d="M97.0022 61.0685C98.9029 61.0685 100.444 59.5277 100.444 57.6269C100.444 55.7262 98.9029 54.1853 97.0022 54.1853C95.1014 54.1853 93.5605 55.7262 93.5605 57.6269C93.5605 59.5277 95.1014 61.0685 97.0022 61.0685Z" fill="#1CB220"/>
<path d="M103.684 61.0685C105.585 61.0685 107.125 59.5277 107.125 57.6269C107.125 55.7262 105.585 54.1853 103.684 54.1853C101.783 54.1853 100.242 55.7262 100.242 57.6269C100.242 59.5277 101.783 61.0685 103.684 61.0685Z" fill="#1CB220"/>
<path d="M110.366 61.0685C112.267 61.0685 113.808 59.5277 113.808 57.6269C113.808 55.7262 112.267 54.1853 110.366 54.1853C108.466 54.1853 106.925 55.7262 106.925 57.6269C106.925 59.5277 108.466 61.0685 110.366 61.0685Z" fill="#1CB220"/>
<path d="M123.733 61.0685C125.633 61.0685 127.174 59.5277 127.174 57.6269C127.174 55.7262 125.633 54.1853 123.733 54.1853C121.832 54.1853 120.291 55.7262 120.291 57.6269C120.291 59.5277 121.832 61.0685 123.733 61.0685Z" fill="#1CB220"/>
<path d="M130.415 61.0685C132.316 61.0685 133.857 59.5277 133.857 57.6269C133.857 55.7262 132.316 54.1853 130.415 54.1853C128.514 54.1853 126.974 55.7262 126.974 57.6269C126.974 59.5277 128.514 61.0685 130.415 61.0685Z" fill="#1CB220"/>
<path d="M143.781 61.0685C145.682 61.0685 147.223 59.5277 147.223 57.6269C147.223 55.7262 145.682 54.1853 143.781 54.1853C141.881 54.1853 140.34 55.7262 140.34 57.6269C140.34 59.5277 141.881 61.0685 143.781 61.0685Z" fill="#1CB220"/>
<path d="M150.464 61.0685C152.365 61.0685 153.906 59.5277 153.906 57.6269C153.906 55.7262 152.365 54.1853 150.464 54.1853C148.563 54.1853 147.022 55.7262 147.022 57.6269C147.022 59.5277 148.563 61.0685 150.464 61.0685Z" fill="#1CB220"/>
<path d="M157.146 61.0685C159.046 61.0685 160.587 59.5277 160.587 57.6269C160.587 55.7262 159.046 54.1853 157.146 54.1853C155.245 54.1853 153.704 55.7262 153.704 57.6269C153.704 59.5277 155.245 61.0685 157.146 61.0685Z" fill="#1CB220"/>
<path d="M177.195 61.0685C179.095 61.0685 180.636 59.5277 180.636 57.6269C180.636 55.7262 179.095 54.1853 177.195 54.1853C175.294 54.1853 173.753 55.7262 173.753 57.6269C173.753 59.5277 175.294 61.0685 177.195 61.0685Z" fill="#1CB220"/>
<path d="M183.877 61.0685C185.778 61.0685 187.319 59.5277 187.319 57.6269C187.319 55.7262 185.778 54.1853 183.877 54.1853C181.976 54.1853 180.436 55.7262 180.436 57.6269C180.436 59.5277 181.976 61.0685 183.877 61.0685Z" fill="#1CB220"/>
<path d="M190.561 61.0685C192.462 61.0685 194.002 59.5277 194.002 57.6269C194.002 55.7262 192.462 54.1853 190.561 54.1853C188.66 54.1853 187.119 55.7262 187.119 57.6269C187.119 59.5277 188.66 61.0685 190.561 61.0685Z" fill="#1CB220"/>
<path d="M3.44259 67.7524C5.34334 67.7524 6.8842 66.2115 6.8842 64.3108C6.8842 62.41 5.34334 60.8691 3.44259 60.8691C1.54184 60.8691 0.000976562 62.41 0.000976562 64.3108C0.000976562 66.2115 1.54184 67.7524 3.44259 67.7524Z" fill="#1CB220"/>
<path d="M10.1262 67.7524C12.0269 67.7524 13.5678 66.2115 13.5678 64.3108C13.5678 62.41 12.0269 60.8691 10.1262 60.8691C8.22543 60.8691 6.68457 62.41 6.68457 64.3108C6.68457 66.2115 8.22543 67.7524 10.1262 67.7524Z" fill="#1CB220"/>
<path d="M30.174 67.7524C32.0748 67.7524 33.6156 66.2115 33.6156 64.3108C33.6156 62.41 32.0748 60.8691 30.174 60.8691C28.2733 60.8691 26.7324 62.41 26.7324 64.3108C26.7324 66.2115 28.2733 67.7524 30.174 67.7524Z" fill="#1CB220"/>
<path d="M63.5881 67.7524C65.4888 67.7524 67.0297 66.2115 67.0297 64.3108C67.0297 62.41 65.4888 60.8691 63.5881 60.8691C61.6873 60.8691 60.1465 62.41 60.1465 64.3108C60.1465 66.2115 61.6873 67.7524 63.5881 67.7524Z" fill="#1CB220"/>
<path d="M76.9533 67.7524C78.8541 67.7524 80.3949 66.2115 80.3949 64.3108C80.3949 62.41 78.8541 60.8691 76.9533 60.8691C75.0526 60.8691 73.5117 62.41 73.5117 64.3108C73.5117 66.2115 75.0526 67.7524 76.9533 67.7524Z" fill="#1CB220"/>
<path d="M90.3195 67.7524C92.2203 67.7524 93.7612 66.2115 93.7612 64.3108C93.7612 62.41 92.2203 60.8691 90.3195 60.8691C88.4188 60.8691 86.8779 62.41 86.8779 64.3108C86.8779 66.2115 88.4188 67.7524 90.3195 67.7524Z" fill="#1CB220"/>
<path d="M97.0022 67.7524C98.9029 67.7524 100.444 66.2115 100.444 64.3108C100.444 62.41 98.9029 60.8691 97.0022 60.8691C95.1014 60.8691 93.5605 62.41 93.5605 64.3108C93.5605 66.2115 95.1014 67.7524 97.0022 67.7524Z" fill="#1CB220"/>
<path d="M117.05 67.7524C118.951 67.7524 120.492 66.2115 120.492 64.3108C120.492 62.41 118.951 60.8691 117.05 60.8691C115.149 60.8691 113.608 62.41 113.608 64.3108C113.608 66.2115 115.149 67.7524 117.05 67.7524Z" fill="#1CB220"/>
<path d="M157.146 67.7524C159.046 67.7524 160.587 66.2115 160.587 64.3108C160.587 62.41 159.046 60.8691 157.146 60.8691C155.245 60.8691 153.704 62.41 153.704 64.3108C153.704 66.2115 155.245 67.7524 157.146 67.7524Z" fill="#1CB220"/>
<path d="M163.829 67.7524C165.73 67.7524 167.271 66.2115 167.271 64.3108C167.271 62.41 165.73 60.8691 163.829 60.8691C161.929 60.8691 160.388 62.41 160.388 64.3108C160.388 66.2115 161.929 67.7524 163.829 67.7524Z" fill="#1CB220"/>
<path d="M170.512 67.7524C172.413 67.7524 173.954 66.2115 173.954 64.3108C173.954 62.41 172.413 60.8691 170.512 60.8691C168.611 60.8691 167.07 62.41 167.07 64.3108C167.07 66.2115 168.611 67.7524 170.512 67.7524Z" fill="#1CB220"/>
<path d="M190.561 67.7524C192.462 67.7524 194.002 66.2115 194.002 64.3108C194.002 62.41 192.462 60.8691 190.561 60.8691C188.66 60.8691 187.119 62.41 187.119 64.3108C187.119 66.2115 188.66 67.7524 190.561 67.7524Z" fill="#1CB220"/>
<path d="M16.8088 74.4344C18.7095 74.4344 20.2504 72.8935 20.2504 70.9928C20.2504 69.092 18.7095 67.5511 16.8088 67.5511C14.908 67.5511 13.3672 69.092 13.3672 70.9928C13.3672 72.8935 14.908 74.4344 16.8088 74.4344Z" fill="#1CB220"/>
<path d="M23.4914 74.4344C25.3922 74.4344 26.933 72.8935 26.933 70.9928C26.933 69.092 25.3922 67.5511 23.4914 67.5511C21.5907 67.5511 20.0498 69.092 20.0498 70.9928C20.0498 72.8935 21.5907 74.4344 23.4914 74.4344Z" fill="#1CB220"/>
<path d="M43.5402 74.4342C45.441 74.4342 46.9819 72.8934 46.9819 70.9926C46.9819 69.0919 45.441 67.551 43.5402 67.551C41.6395 67.551 40.0986 69.0919 40.0986 70.9926C40.0986 72.8934 41.6395 74.4342 43.5402 74.4342Z" fill="#1CB220"/>
<path d="M56.9045 74.4342C58.8053 74.4342 60.3461 72.8934 60.3461 70.9926C60.3461 69.0919 58.8053 67.551 56.9045 67.551C55.0038 67.551 53.4629 69.0919 53.4629 70.9926C53.4629 72.8934 55.0038 74.4342 56.9045 74.4342Z" fill="#1CB220"/>
<path d="M63.5881 74.4344C65.4888 74.4344 67.0297 72.8935 67.0297 70.9928C67.0297 69.092 65.4888 67.5511 63.5881 67.5511C61.6873 67.5511 60.1465 69.092 60.1465 70.9928C60.1465 72.8935 61.6873 74.4344 63.5881 74.4344Z" fill="#1CB220"/>
<path d="M143.781 74.4342C145.682 74.4342 147.223 72.8934 147.223 70.9926C147.223 69.0919 145.682 67.551 143.781 67.551C141.881 67.551 140.34 69.0919 140.34 70.9926C140.34 72.8934 141.881 74.4342 143.781 74.4342Z" fill="#1CB220"/>
<path d="M150.464 74.4342C152.365 74.4342 153.906 72.8934 153.906 70.9926C153.906 69.0919 152.365 67.551 150.464 67.551C148.563 67.551 147.022 69.0919 147.022 70.9926C147.022 72.8934 148.563 74.4342 150.464 74.4342Z" fill="#1CB220"/>
<path d="M157.146 74.4342C159.046 74.4342 160.587 72.8934 160.587 70.9926C160.587 69.0919 159.046 67.551 157.146 67.551C155.245 67.551 153.704 69.0919 153.704 70.9926C153.704 72.8934 155.245 74.4342 157.146 74.4342Z" fill="#1CB220"/>
<path d="M170.512 74.4344C172.413 74.4344 173.954 72.8935 173.954 70.9928C173.954 69.092 172.413 67.5511 170.512 67.5511C168.611 67.5511 167.07 69.092 167.07 70.9928C167.07 72.8935 168.611 74.4344 170.512 74.4344Z" fill="#1CB220"/>
<path d="M177.195 74.4344C179.095 74.4344 180.636 72.8935 180.636 70.9928C180.636 69.092 179.095 67.5511 177.195 67.5511C175.294 67.5511 173.753 69.092 173.753 70.9928C173.753 72.8935 175.294 74.4344 177.195 74.4344Z" fill="#1CB220"/>
<path d="M16.8088 81.1161C18.7095 81.1161 20.2504 79.5753 20.2504 77.6745C20.2504 75.7738 18.7095 74.2329 16.8088 74.2329C14.908 74.2329 13.3672 75.7738 13.3672 77.6745C13.3672 79.5753 14.908 81.1161 16.8088 81.1161Z" fill="#1CB220"/>
<path d="M23.4914 81.1161C25.3922 81.1161 26.933 79.5753 26.933 77.6745C26.933 75.7738 25.3922 74.2329 23.4914 74.2329C21.5907 74.2329 20.0498 75.7738 20.0498 77.6745C20.0498 79.5753 21.5907 81.1161 23.4914 81.1161Z" fill="#1CB220"/>
<path d="M30.174 81.1161C32.0748 81.1161 33.6156 79.5753 33.6156 77.6745C33.6156 75.7738 32.0748 74.2329 30.174 74.2329C28.2733 74.2329 26.7324 75.7738 26.7324 77.6745C26.7324 79.5753 28.2733 81.1161 30.174 81.1161Z" fill="#1CB220"/>
<path d="M36.8576 81.1161C38.7584 81.1161 40.2992 79.5753 40.2992 77.6745C40.2992 75.7738 38.7584 74.2329 36.8576 74.2329C34.9569 74.2329 33.416 75.7738 33.416 77.6745C33.416 79.5753 34.9569 81.1161 36.8576 81.1161Z" fill="#1CB220"/>
<path d="M50.2219 81.1161C52.1226 81.1161 53.6635 79.5753 53.6635 77.6745C53.6635 75.7738 52.1226 74.2329 50.2219 74.2329C48.3211 74.2329 46.7803 75.7738 46.7803 77.6745C46.7803 79.5753 48.3211 81.1161 50.2219 81.1161Z" fill="#1CB220"/>
<path d="M56.9045 81.1161C58.8053 81.1161 60.3461 79.5753 60.3461 77.6745C60.3461 75.7738 58.8053 74.2329 56.9045 74.2329C55.0038 74.2329 53.4629 75.7738 53.4629 77.6745C53.4629 79.5753 55.0038 81.1161 56.9045 81.1161Z" fill="#1CB220"/>
<path d="M143.781 81.1161C145.682 81.1161 147.223 79.5753 147.223 77.6745C147.223 75.7738 145.682 74.2329 143.781 74.2329C141.881 74.2329 140.34 75.7738 140.34 77.6745C140.34 79.5753 141.881 81.1161 143.781 81.1161Z" fill="#1CB220"/>
<path d="M150.464 81.1161C152.365 81.1161 153.906 79.5753 153.906 77.6745C153.906 75.7738 152.365 74.2329 150.464 74.2329C148.563 74.2329 147.022 75.7738 147.022 77.6745C147.022 79.5753 148.563 81.1161 150.464 81.1161Z" fill="#1CB220"/>
<path d="M177.195 81.1161C179.095 81.1161 180.636 79.5753 180.636 77.6745C180.636 75.7738 179.095 74.2329 177.195 74.2329C175.294 74.2329 173.753 75.7738 173.753 77.6745C173.753 79.5753 175.294 81.1161 177.195 81.1161Z" fill="#1CB220"/>
<path d="M183.877 81.1161C185.778 81.1161 187.319 79.5753 187.319 77.6745C187.319 75.7738 185.778 74.2329 183.877 74.2329C181.976 74.2329 180.436 75.7738 180.436 77.6745C180.436 79.5753 181.976 81.1161 183.877 81.1161Z" fill="#1CB220"/>
<path d="M10.1262 87.8001C12.0269 87.8001 13.5678 86.2592 13.5678 84.3585C13.5678 82.4577 12.0269 80.9169 10.1262 80.9169C8.22543 80.9169 6.68457 82.4577 6.68457 84.3585C6.68457 86.2592 8.22543 87.8001 10.1262 87.8001Z" fill="#1CB220"/>
<path d="M43.5402 87.8001C45.441 87.8001 46.9819 86.2592 46.9819 84.3585C46.9819 82.4577 45.441 80.9169 43.5402 80.9169C41.6395 80.9169 40.0986 82.4577 40.0986 84.3585C40.0986 86.2592 41.6395 87.8001 43.5402 87.8001Z" fill="#1CB220"/>
<path d="M50.2219 87.8001C52.1226 87.8001 53.6635 86.2592 53.6635 84.3585C53.6635 82.4577 52.1226 80.9169 50.2219 80.9169C48.3211 80.9169 46.7803 82.4577 46.7803 84.3585C46.7803 86.2592 48.3211 87.8001 50.2219 87.8001Z" fill="#1CB220"/>
<path d="M56.9045 87.8001C58.8053 87.8001 60.3461 86.2592 60.3461 84.3585C60.3461 82.4577 58.8053 80.9169 56.9045 80.9169C55.0038 80.9169 53.4629 82.4577 53.4629 84.3585C53.4629 86.2592 55.0038 87.8001 56.9045 87.8001Z" fill="#1CB220"/>
<path d="M63.5881 87.7999C65.4888 87.7999 67.0297 86.259 67.0297 84.3582C67.0297 82.4575 65.4888 80.9166 63.5881 80.9166C61.6873 80.9166 60.1465 82.4575 60.1465 84.3582C60.1465 86.259 61.6873 87.7999 63.5881 87.7999Z" fill="#1CB220"/>
<path d="M143.781 87.8001C145.682 87.8001 147.223 86.2592 147.223 84.3585C147.223 82.4577 145.682 80.9169 143.781 80.9169C141.881 80.9169 140.34 82.4577 140.34 84.3585C140.34 86.2592 141.881 87.8001 143.781 87.8001Z" fill="#1CB220"/>
<path d="M157.146 87.8001C159.046 87.8001 160.587 86.2592 160.587 84.3585C160.587 82.4577 159.046 80.9169 157.146 80.9169C155.245 80.9169 153.704 82.4577 153.704 84.3585C153.704 86.2592 155.245 87.8001 157.146 87.8001Z" fill="#1CB220"/>
<path d="M170.512 87.7999C172.413 87.7999 173.954 86.259 173.954 84.3582C173.954 82.4575 172.413 80.9166 170.512 80.9166C168.611 80.9166 167.07 82.4575 167.07 84.3582C167.07 86.259 168.611 87.7999 170.512 87.7999Z" fill="#1CB220"/>
<path d="M177.195 87.7999C179.095 87.7999 180.636 86.259 180.636 84.3582C180.636 82.4575 179.095 80.9166 177.195 80.9166C175.294 80.9166 173.753 82.4575 173.753 84.3582C173.753 86.259 175.294 87.7999 177.195 87.7999Z" fill="#1CB220"/>
<path d="M183.877 87.7999C185.778 87.7999 187.319 86.259 187.319 84.3582C187.319 82.4575 185.778 80.9166 183.877 80.9166C181.976 80.9166 180.436 82.4575 180.436 84.3582C180.436 86.259 181.976 87.7999 183.877 87.7999Z" fill="#1CB220"/>
<path d="M190.56 87.7999C192.461 87.7999 194.001 86.259 194.001 84.3582C194.001 82.4575 192.461 80.9166 190.56 80.9166C188.659 80.9166 187.118 82.4575 187.118 84.3582C187.118 86.259 188.659 87.7999 190.56 87.7999Z" fill="#1CB220"/>
<path d="M3.44259 94.482C5.34334 94.482 6.8842 92.9411 6.8842 91.0404C6.8842 89.1396 5.34334 87.5988 3.44259 87.5988C1.54184 87.5988 0.000976562 89.1396 0.000976562 91.0404C0.000976562 92.9411 1.54184 94.482 3.44259 94.482Z" fill="#1CB220"/>
<path d="M16.8088 94.482C18.7095 94.482 20.2504 92.9411 20.2504 91.0404C20.2504 89.1396 18.7095 87.5988 16.8088 87.5988C14.908 87.5988 13.3672 89.1396 13.3672 91.0404C13.3672 92.9411 14.908 94.482 16.8088 94.482Z" fill="#1CB220"/>
<path d="M36.8576 94.482C38.7584 94.482 40.2992 92.9411 40.2992 91.0404C40.2992 89.1396 38.7584 87.5988 36.8576 87.5988C34.9569 87.5988 33.416 89.1396 33.416 91.0404C33.416 92.9411 34.9569 94.482 36.8576 94.482Z" fill="#1CB220"/>
<path d="M56.9045 94.482C58.8053 94.482 60.3461 92.9411 60.3461 91.0404C60.3461 89.1396 58.8053 87.5988 56.9045 87.5988C55.0038 87.5988 53.4629 89.1396 53.4629 91.0404C53.4629 92.9411 55.0038 94.482 56.9045 94.482Z" fill="#1CB220"/>
<path d="M63.5881 94.482C65.4888 94.482 67.0297 92.9411 67.0297 91.0404C67.0297 89.1396 65.4888 87.5988 63.5881 87.5988C61.6873 87.5988 60.1465 89.1396 60.1465 91.0404C60.1465 92.9411 61.6873 94.482 63.5881 94.482Z" fill="#1CB220"/>
<path d="M130.415 94.482C132.316 94.482 133.857 92.9411 133.857 91.0404C133.857 89.1396 132.316 87.5988 130.415 87.5988C128.514 87.5988 126.974 89.1396 126.974 91.0404C126.974 92.9411 128.514 94.482 130.415 94.482Z" fill="#1CB220"/>
<path d="M143.781 94.482C145.682 94.482 147.223 92.9411 147.223 91.0404C147.223 89.1396 145.682 87.5988 143.781 87.5988C141.881 87.5988 140.34 89.1396 140.34 91.0404C140.34 92.9411 141.881 94.482 143.781 94.482Z" fill="#1CB220"/>
<path d="M150.464 94.482C152.365 94.482 153.906 92.9411 153.906 91.0404C153.906 89.1396 152.365 87.5988 150.464 87.5988C148.563 87.5988 147.022 89.1396 147.022 91.0404C147.022 92.9411 148.563 94.482 150.464 94.482Z" fill="#1CB220"/>
<path d="M163.829 94.482C165.73 94.482 167.271 92.9411 167.271 91.0404C167.271 89.1396 165.73 87.5988 163.829 87.5988C161.929 87.5988 160.388 89.1396 160.388 91.0404C160.388 92.9411 161.929 94.482 163.829 94.482Z" fill="#1CB220"/>
<path d="M170.512 94.482C172.413 94.482 173.954 92.9411 173.954 91.0404C173.954 89.1396 172.413 87.5988 170.512 87.5988C168.611 87.5988 167.07 89.1396 167.07 91.0404C167.07 92.9411 168.611 94.482 170.512 94.482Z" fill="#1CB220"/>
<path d="M36.8576 101.166C38.7584 101.166 40.2992 99.625 40.2992 97.7242C40.2992 95.8235 38.7584 94.2826 36.8576 94.2826C34.9569 94.2826 33.416 95.8235 33.416 97.7242C33.416 99.625 34.9569 101.166 36.8576 101.166Z" fill="#1CB220"/>
<path d="M43.5402 101.166C45.441 101.166 46.9819 99.625 46.9819 97.7242C46.9819 95.8235 45.441 94.2826 43.5402 94.2826C41.6395 94.2826 40.0986 95.8235 40.0986 97.7242C40.0986 99.625 41.6395 101.166 43.5402 101.166Z" fill="#1CB220"/>
<path d="M56.9045 101.166C58.8053 101.166 60.3461 99.625 60.3461 97.7242C60.3461 95.8235 58.8053 94.2826 56.9045 94.2826C55.0038 94.2826 53.4629 95.8235 53.4629 97.7242C53.4629 99.625 55.0038 101.166 56.9045 101.166Z" fill="#1CB220"/>
<path d="M157.146 101.166C159.046 101.166 160.587 99.625 160.587 97.7242C160.587 95.8235 159.046 94.2826 157.146 94.2826C155.245 94.2826 153.704 95.8235 153.704 97.7242C153.704 99.625 155.245 101.166 157.146 101.166Z" fill="#1CB220"/>
<path d="M183.877 101.166C185.778 101.166 187.319 99.625 187.319 97.7242C187.319 95.8235 185.778 94.2826 183.877 94.2826C181.976 94.2826 180.436 95.8235 180.436 97.7242C180.436 99.625 181.976 101.166 183.877 101.166Z" fill="#1CB220"/>
<path d="M3.44259 107.848C5.34334 107.848 6.8842 106.307 6.8842 104.406C6.8842 102.505 5.34334 100.964 3.44259 100.964C1.54184 100.964 0.000976562 102.505 0.000976562 104.406C0.000976562 106.307 1.54184 107.848 3.44259 107.848Z" fill="#1CB220"/>
<path d="M16.8088 107.848C18.7095 107.848 20.2504 106.307 20.2504 104.406C20.2504 102.505 18.7095 100.964 16.8088 100.964C14.908 100.964 13.3672 102.505 13.3672 104.406C13.3672 106.307 14.908 107.848 16.8088 107.848Z" fill="#1CB220"/>
<path d="M23.4914 107.848C25.3922 107.848 26.933 106.307 26.933 104.406C26.933 102.505 25.3922 100.964 23.4914 100.964C21.5907 100.964 20.0498 102.505 20.0498 104.406C20.0498 106.307 21.5907 107.848 23.4914 107.848Z" fill="#1CB220"/>
<path d="M30.174 107.848C32.0748 107.848 33.6156 106.307 33.6156 104.406C33.6156 102.505 32.0748 100.964 30.174 100.964C28.2733 100.964 26.7324 102.505 26.7324 104.406C26.7324 106.307 28.2733 107.848 30.174 107.848Z" fill="#1CB220"/>
<path d="M50.2219 107.848C52.1226 107.848 53.6635 106.307 53.6635 104.406C53.6635 102.505 52.1226 100.964 50.2219 100.964C48.3211 100.964 46.7803 102.505 46.7803 104.406C46.7803 106.307 48.3211 107.848 50.2219 107.848Z" fill="#1CB220"/>
<path d="M56.9045 107.848C58.8053 107.848 60.3461 106.307 60.3461 104.406C60.3461 102.505 58.8053 100.964 56.9045 100.964C55.0038 100.964 53.4629 102.505 53.4629 104.406C53.4629 106.307 55.0038 107.848 56.9045 107.848Z" fill="#1CB220"/>
<path d="M63.5881 107.848C65.4888 107.848 67.0297 106.307 67.0297 104.406C67.0297 102.505 65.4888 100.964 63.5881 100.964C61.6873 100.964 60.1465 102.505 60.1465 104.406C60.1465 106.307 61.6873 107.848 63.5881 107.848Z" fill="#1CB220"/>
<path d="M137.098 107.848C138.999 107.848 140.539 106.307 140.539 104.406C140.539 102.505 138.999 100.964 137.098 100.964C135.197 100.964 133.656 102.505 133.656 104.406C133.656 106.307 135.197 107.848 137.098 107.848Z" fill="#1CB220"/>
<path d="M143.781 107.848C145.682 107.848 147.223 106.307 147.223 104.406C147.223 102.505 145.682 100.964 143.781 100.964C141.881 100.964 140.34 102.505 140.34 104.406C140.34 106.307 141.881 107.848 143.781 107.848Z" fill="#1CB220"/>
<path d="M163.829 107.848C165.73 107.848 167.271 106.307 167.271 104.406C167.271 102.505 165.73 100.964 163.829 100.964C161.929 100.964 160.388 102.505 160.388 104.406C160.388 106.307 161.929 107.848 163.829 107.848Z" fill="#1CB220"/>
<path d="M170.512 107.848C172.413 107.848 173.954 106.307 173.954 104.406C173.954 102.505 172.413 100.964 170.512 100.964C168.611 100.964 167.07 102.505 167.07 104.406C167.07 106.307 168.611 107.848 170.512 107.848Z" fill="#1CB220"/>
<path d="M183.877 107.848C185.778 107.848 187.319 106.307 187.319 104.406C187.319 102.505 185.778 100.964 183.877 100.964C181.976 100.964 180.436 102.505 180.436 104.406C180.436 106.307 181.976 107.848 183.877 107.848Z" fill="#1CB220"/>
<path d="M3.44259 114.532C5.34334 114.532 6.8842 112.991 6.8842 111.09C6.8842 109.189 5.34334 107.648 3.44259 107.648C1.54184 107.648 0.000976562 109.189 0.000976562 111.09C0.000976562 112.991 1.54184 114.532 3.44259 114.532Z" fill="#1CB220"/>
<path d="M10.1262 114.532C12.0269 114.532 13.5678 112.991 13.5678 111.09C13.5678 109.189 12.0269 107.648 10.1262 107.648C8.22543 107.648 6.68457 109.189 6.68457 111.09C6.68457 112.991 8.22543 114.532 10.1262 114.532Z" fill="#1CB220"/>
<path d="M23.4914 114.532C25.3922 114.532 26.933 112.991 26.933 111.09C26.933 109.189 25.3922 107.648 23.4914 107.648C21.5907 107.648 20.0498 109.189 20.0498 111.09C20.0498 112.991 21.5907 114.532 23.4914 114.532Z" fill="#1CB220"/>
<path d="M30.174 114.532C32.0748 114.532 33.6156 112.991 33.6156 111.09C33.6156 109.189 32.0748 107.648 30.174 107.648C28.2733 107.648 26.7324 109.189 26.7324 111.09C26.7324 112.991 28.2733 114.532 30.174 114.532Z" fill="#1CB220"/>
<path d="M43.5402 114.532C45.441 114.532 46.9819 112.991 46.9819 111.09C46.9819 109.189 45.441 107.648 43.5402 107.648C41.6395 107.648 40.0986 109.189 40.0986 111.09C40.0986 112.991 41.6395 114.532 43.5402 114.532Z" fill="#1CB220"/>
<path d="M50.2219 114.532C52.1226 114.532 53.6635 112.991 53.6635 111.09C53.6635 109.189 52.1226 107.648 50.2219 107.648C48.3211 107.648 46.7803 109.189 46.7803 111.09C46.7803 112.991 48.3211 114.532 50.2219 114.532Z" fill="#1CB220"/>
<path d="M63.5881 114.532C65.4888 114.532 67.0297 112.991 67.0297 111.09C67.0297 109.189 65.4888 107.648 63.5881 107.648C61.6873 107.648 60.1465 109.189 60.1465 111.09C60.1465 112.991 61.6873 114.532 63.5881 114.532Z" fill="#1CB220"/>
<path d="M143.781 114.532C145.682 114.532 147.223 112.991 147.223 111.09C147.223 109.189 145.682 107.648 143.781 107.648C141.881 107.648 140.34 109.189 140.34 111.09C140.34 112.991 141.881 114.532 143.781 114.532Z" fill="#1CB220"/>
<path d="M157.146 114.532C159.046 114.532 160.587 112.991 160.587 111.09C160.587 109.189 159.046 107.648 157.146 107.648C155.245 107.648 153.704 109.189 153.704 111.09C153.704 112.991 155.245 114.532 157.146 114.532Z" fill="#1CB220"/>
<path d="M163.829 114.532C165.73 114.532 167.271 112.991 167.271 111.09C167.271 109.189 165.73 107.648 163.829 107.648C161.929 107.648 160.388 109.189 160.388 111.09C160.388 112.991 161.929 114.532 163.829 114.532Z" fill="#1CB220"/>
<path d="M170.512 114.532C172.413 114.532 173.954 112.991 173.954 111.09C173.954 109.189 172.413 107.648 170.512 107.648C168.611 107.648 167.07 109.189 167.07 111.09C167.07 112.991 168.611 114.532 170.512 114.532Z" fill="#1CB220"/>
<path d="M177.195 114.532C179.095 114.532 180.636 112.991 180.636 111.09C180.636 109.189 179.095 107.648 177.195 107.648C175.294 107.648 173.753 109.189 173.753 111.09C173.753 112.991 175.294 114.532 177.195 114.532Z" fill="#1CB220"/>
<path d="M183.877 114.532C185.778 114.532 187.319 112.991 187.319 111.09C187.319 109.189 185.778 107.648 183.877 107.648C181.976 107.648 180.436 109.189 180.436 111.09C180.436 112.991 181.976 114.532 183.877 114.532Z" fill="#1CB220"/>
<path d="M3.44259 121.213C5.34334 121.213 6.8842 119.673 6.8842 117.772C6.8842 115.871 5.34334 114.33 3.44259 114.33C1.54184 114.33 0.000976562 115.871 0.000976562 117.772C0.000976562 119.673 1.54184 121.213 3.44259 121.213Z" fill="#1CB220"/>
<path d="M10.1262 121.213C12.0269 121.213 13.5678 119.673 13.5678 117.772C13.5678 115.871 12.0269 114.33 10.1262 114.33C8.22543 114.33 6.68457 115.871 6.68457 117.772C6.68457 119.673 8.22543 121.213 10.1262 121.213Z" fill="#1CB220"/>
<path d="M23.4914 121.214C25.3922 121.214 26.933 119.673 26.933 117.772C26.933 115.871 25.3922 114.33 23.4914 114.33C21.5907 114.33 20.0498 115.871 20.0498 117.772C20.0498 119.673 21.5907 121.214 23.4914 121.214Z" fill="#1CB220"/>
<path d="M36.8576 121.213C38.7584 121.213 40.2992 119.673 40.2992 117.772C40.2992 115.871 38.7584 114.33 36.8576 114.33C34.9569 114.33 33.416 115.871 33.416 117.772C33.416 119.673 34.9569 121.213 36.8576 121.213Z" fill="#1CB220"/>
<path d="M63.5881 121.214C65.4888 121.214 67.0297 119.673 67.0297 117.772C67.0297 115.871 65.4888 114.33 63.5881 114.33C61.6873 114.33 60.1465 115.871 60.1465 117.772C60.1465 119.673 61.6873 121.214 63.5881 121.214Z" fill="#1CB220"/>
<path d="M137.098 121.214C138.999 121.214 140.539 119.673 140.539 117.772C140.539 115.871 138.999 114.33 137.098 114.33C135.197 114.33 133.656 115.871 133.656 117.772C133.656 119.673 135.197 121.214 137.098 121.214Z" fill="#1CB220"/>
<path d="M163.829 121.213C165.73 121.213 167.271 119.673 167.271 117.772C167.271 115.871 165.73 114.33 163.829 114.33C161.929 114.33 160.388 115.871 160.388 117.772C160.388 119.673 161.929 121.213 163.829 121.213Z" fill="#1CB220"/>
<path d="M170.512 121.214C172.413 121.214 173.954 119.673 173.954 117.772C173.954 115.871 172.413 114.33 170.512 114.33C168.611 114.33 167.07 115.871 167.07 117.772C167.07 119.673 168.611 121.214 170.512 121.214Z" fill="#1CB220"/>
<path d="M183.877 121.214C185.778 121.214 187.319 119.673 187.319 117.772C187.319 115.871 185.778 114.33 183.877 114.33C181.976 114.33 180.436 115.871 180.436 117.772C180.436 119.673 181.976 121.214 183.877 121.214Z" fill="#1CB220"/>
<path d="M190.56 121.214C192.461 121.214 194.001 119.673 194.001 117.772C194.001 115.871 192.461 114.33 190.56 114.33C188.659 114.33 187.118 115.871 187.118 117.772C187.118 119.673 188.659 121.214 190.56 121.214Z" fill="#1CB220"/>
<path d="M3.44259 127.897C5.34334 127.897 6.8842 126.356 6.8842 124.456C6.8842 122.555 5.34334 121.014 3.44259 121.014C1.54184 121.014 0.000976562 122.555 0.000976562 124.456C0.000976562 126.356 1.54184 127.897 3.44259 127.897Z" fill="#1CB220"/>
<path d="M16.8088 127.897C18.7095 127.897 20.2504 126.356 20.2504 124.456C20.2504 122.555 18.7095 121.014 16.8088 121.014C14.908 121.014 13.3672 122.555 13.3672 124.456C13.3672 126.356 14.908 127.897 16.8088 127.897Z" fill="#1CB220"/>
<path d="M30.174 127.897C32.0748 127.897 33.6156 126.356 33.6156 124.456C33.6156 122.555 32.0748 121.014 30.174 121.014C28.2733 121.014 26.7324 122.555 26.7324 124.456C26.7324 126.356 28.2733 127.897 30.174 127.897Z" fill="#1CB220"/>
<path d="M43.5402 127.897C45.441 127.897 46.9819 126.356 46.9819 124.456C46.9819 122.555 45.441 121.014 43.5402 121.014C41.6395 121.014 40.0986 122.555 40.0986 124.456C40.0986 126.356 41.6395 127.897 43.5402 127.897Z" fill="#1CB220"/>
<path d="M150.464 127.897C152.365 127.897 153.906 126.356 153.906 124.456C153.906 122.555 152.365 121.014 150.464 121.014C148.563 121.014 147.022 122.555 147.022 124.456C147.022 126.356 148.563 127.897 150.464 127.897Z" fill="#1CB220"/>
<path d="M157.146 127.897C159.046 127.897 160.587 126.356 160.587 124.456C160.587 122.555 159.046 121.014 157.146 121.014C155.245 121.014 153.704 122.555 153.704 124.456C153.704 126.356 155.245 127.897 157.146 127.897Z" fill="#1CB220"/>
<path d="M170.512 127.897C172.413 127.897 173.954 126.356 173.954 124.456C173.954 122.555 172.413 121.014 170.512 121.014C168.611 121.014 167.07 122.555 167.07 124.456C167.07 126.356 168.611 127.897 170.512 127.897Z" fill="#1CB220"/>
<path d="M177.195 127.897C179.095 127.897 180.636 126.356 180.636 124.456C180.636 122.555 179.095 121.014 177.195 121.014C175.294 121.014 173.753 122.555 173.753 124.456C173.753 126.356 175.294 127.897 177.195 127.897Z" fill="#1CB220"/>
<path d="M3.44259 134.579C5.34334 134.579 6.8842 133.038 6.8842 131.138C6.8842 129.237 5.34334 127.696 3.44259 127.696C1.54184 127.696 0.000976562 129.237 0.000976562 131.138C0.000976562 133.038 1.54184 134.579 3.44259 134.579Z" fill="#1CB220"/>
<path d="M16.8088 134.579C18.7095 134.579 20.2504 133.038 20.2504 131.137C20.2504 129.237 18.7095 127.696 16.8088 127.696C14.908 127.696 13.3672 129.237 13.3672 131.137C13.3672 133.038 14.908 134.579 16.8088 134.579Z" fill="#1CB220"/>
<path d="M23.4914 134.579C25.3922 134.579 26.933 133.038 26.933 131.137C26.933 129.237 25.3922 127.696 23.4914 127.696C21.5907 127.696 20.0498 129.237 20.0498 131.137C20.0498 133.038 21.5907 134.579 23.4914 134.579Z" fill="#1CB220"/>
<path d="M30.174 134.579C32.0748 134.579 33.6156 133.038 33.6156 131.137C33.6156 129.237 32.0748 127.696 30.174 127.696C28.2733 127.696 26.7324 129.237 26.7324 131.137C26.7324 133.038 28.2733 134.579 30.174 134.579Z" fill="#1CB220"/>
<path d="M36.8576 134.579C38.7584 134.579 40.2992 133.038 40.2992 131.138C40.2992 129.237 38.7584 127.696 36.8576 127.696C34.9569 127.696 33.416 129.237 33.416 131.138C33.416 133.038 34.9569 134.579 36.8576 134.579Z" fill="#1CB220"/>
<path d="M50.2219 134.579C52.1226 134.579 53.6635 133.038 53.6635 131.138C53.6635 129.237 52.1226 127.696 50.2219 127.696C48.3211 127.696 46.7803 129.237 46.7803 131.138C46.7803 133.038 48.3211 134.579 50.2219 134.579Z" fill="#1CB220"/>
<path d="M56.9045 134.579C58.8053 134.579 60.3461 133.038 60.3461 131.138C60.3461 129.237 58.8053 127.696 56.9045 127.696C55.0038 127.696 53.4629 129.237 53.4629 131.138C53.4629 133.038 55.0038 134.579 56.9045 134.579Z" fill="#1CB220"/>
<path d="M63.5881 134.579C65.4888 134.579 67.0297 133.038 67.0297 131.137C67.0297 129.237 65.4888 127.696 63.5881 127.696C61.6873 127.696 60.1465 129.237 60.1465 131.137C60.1465 133.038 61.6873 134.579 63.5881 134.579Z" fill="#1CB220"/>
<path d="M76.9533 134.579C78.8541 134.579 80.3949 133.038 80.3949 131.137C80.3949 129.237 78.8541 127.696 76.9533 127.696C75.0526 127.696 73.5117 129.237 73.5117 131.137C73.5117 133.038 75.0526 134.579 76.9533 134.579Z" fill="#1CB220"/>
<path d="M83.6359 134.579C85.5367 134.579 87.0776 133.038 87.0776 131.137C87.0776 129.237 85.5367 127.696 83.6359 127.696C81.7352 127.696 80.1943 129.237 80.1943 131.137C80.1943 133.038 81.7352 134.579 83.6359 134.579Z" fill="#1CB220"/>
<path d="M103.684 134.579C105.585 134.579 107.125 133.038 107.125 131.138C107.125 129.237 105.585 127.696 103.684 127.696C101.783 127.696 100.242 129.237 100.242 131.138C100.242 133.038 101.783 134.579 103.684 134.579Z" fill="#1CB220"/>
<path d="M110.366 134.579C112.267 134.579 113.808 133.038 113.808 131.138C113.808 129.237 112.267 127.696 110.366 127.696C108.466 127.696 106.925 129.237 106.925 131.138C106.925 133.038 108.466 134.579 110.366 134.579Z" fill="#1CB220"/>
<path d="M130.415 134.579C132.316 134.579 133.857 133.038 133.857 131.137C133.857 129.237 132.316 127.696 130.415 127.696C128.514 127.696 126.974 129.237 126.974 131.137C126.974 133.038 128.514 134.579 130.415 134.579Z" fill="#1CB220"/>
<path d="M137.098 134.579C138.999 134.579 140.539 133.038 140.539 131.137C140.539 129.237 138.999 127.696 137.098 127.696C135.197 127.696 133.656 129.237 133.656 131.137C133.656 133.038 135.197 134.579 137.098 134.579Z" fill="#1CB220"/>
<path d="M150.464 134.579C152.365 134.579 153.906 133.038 153.906 131.138C153.906 129.237 152.365 127.696 150.464 127.696C148.563 127.696 147.022 129.237 147.022 131.138C147.022 133.038 148.563 134.579 150.464 134.579Z" fill="#1CB220"/>
<path d="M157.146 134.579C159.046 134.579 160.587 133.038 160.587 131.138C160.587 129.237 159.046 127.696 157.146 127.696C155.245 127.696 153.704 129.237 153.704 131.138C153.704 133.038 155.245 134.579 157.146 134.579Z" fill="#1CB220"/>
<path d="M183.877 134.579C185.778 134.579 187.319 133.038 187.319 131.137C187.319 129.237 185.778 127.696 183.877 127.696C181.976 127.696 180.436 129.237 180.436 131.137C180.436 133.038 181.976 134.579 183.877 134.579Z" fill="#1CB220"/>
<path d="M3.44259 141.261C5.34334 141.261 6.8842 139.72 6.8842 137.819C6.8842 135.919 5.34334 134.378 3.44259 134.378C1.54184 134.378 0.000976562 135.919 0.000976562 137.819C0.000976562 139.72 1.54184 141.261 3.44259 141.261Z" fill="#1CB220"/>
<path d="M36.8576 141.261C38.7584 141.261 40.2992 139.72 40.2992 137.819C40.2992 135.919 38.7584 134.378 36.8576 134.378C34.9569 134.378 33.416 135.919 33.416 137.819C33.416 139.72 34.9569 141.261 36.8576 141.261Z" fill="#1CB220"/>
<path d="M43.5402 141.261C45.441 141.261 46.9819 139.72 46.9819 137.819C46.9819 135.919 45.441 134.378 43.5402 134.378C41.6395 134.378 40.0986 135.919 40.0986 137.819C40.0986 139.72 41.6395 141.261 43.5402 141.261Z" fill="#1CB220"/>
<path d="M56.9045 141.261C58.8053 141.261 60.3461 139.72 60.3461 137.819C60.3461 135.919 58.8053 134.378 56.9045 134.378C55.0038 134.378 53.4629 135.919 53.4629 137.819C53.4629 139.72 55.0038 141.261 56.9045 141.261Z" fill="#1CB220"/>
<path d="M76.9533 141.261C78.8541 141.261 80.3949 139.72 80.3949 137.819C80.3949 135.919 78.8541 134.378 76.9533 134.378C75.0526 134.378 73.5117 135.919 73.5117 137.819C73.5117 139.72 75.0526 141.261 76.9533 141.261Z" fill="#1CB220"/>
<path d="M83.6359 141.261C85.5367 141.261 87.0776 139.72 87.0776 137.819C87.0776 135.919 85.5367 134.378 83.6359 134.378C81.7352 134.378 80.1943 135.919 80.1943 137.819C80.1943 139.72 81.7352 141.261 83.6359 141.261Z" fill="#1CB220"/>
<path d="M90.3195 141.261C92.2203 141.261 93.7612 139.72 93.7612 137.819C93.7612 135.919 92.2203 134.378 90.3195 134.378C88.4188 134.378 86.8779 135.919 86.8779 137.819C86.8779 139.72 88.4188 141.261 90.3195 141.261Z" fill="#1CB220"/>
<path d="M103.684 141.261C105.585 141.261 107.125 139.72 107.125 137.819C107.125 135.919 105.585 134.378 103.684 134.378C101.783 134.378 100.242 135.919 100.242 137.819C100.242 139.72 101.783 141.261 103.684 141.261Z" fill="#1CB220"/>
<path d="M110.366 141.261C112.267 141.261 113.808 139.72 113.808 137.819C113.808 135.919 112.267 134.378 110.366 134.378C108.466 134.378 106.925 135.919 106.925 137.819C106.925 139.72 108.466 141.261 110.366 141.261Z" fill="#1CB220"/>
<path d="M137.098 141.261C138.999 141.261 140.539 139.72 140.539 137.819C140.539 135.919 138.999 134.378 137.098 134.378C135.197 134.378 133.656 135.919 133.656 137.819C133.656 139.72 135.197 141.261 137.098 141.261Z" fill="#1CB220"/>
<path d="M143.781 141.261C145.682 141.261 147.223 139.72 147.223 137.819C147.223 135.919 145.682 134.378 143.781 134.378C141.881 134.378 140.34 135.919 140.34 137.819C140.34 139.72 141.881 141.261 143.781 141.261Z" fill="#1CB220"/>
<path d="M150.464 141.261C152.365 141.261 153.906 139.72 153.906 137.819C153.906 135.919 152.365 134.378 150.464 134.378C148.563 134.378 147.022 135.919 147.022 137.819C147.022 139.72 148.563 141.261 150.464 141.261Z" fill="#1CB220"/>
<path d="M157.146 141.261C159.046 141.261 160.587 139.72 160.587 137.819C160.587 135.919 159.046 134.378 157.146 134.378C155.245 134.378 153.704 135.919 153.704 137.819C153.704 139.72 155.245 141.261 157.146 141.261Z" fill="#1CB220"/>
<path d="M163.829 141.261C165.73 141.261 167.271 139.72 167.271 137.819C167.271 135.919 165.73 134.378 163.829 134.378C161.929 134.378 160.388 135.919 160.388 137.819C160.388 139.72 161.929 141.261 163.829 141.261Z" fill="#1CB220"/>
<path d="M170.512 141.261C172.413 141.261 173.954 139.72 173.954 137.819C173.954 135.919 172.413 134.378 170.512 134.378C168.611 134.378 167.07 135.919 167.07 137.819C167.07 139.72 168.611 141.261 170.512 141.261Z" fill="#1CB220"/>
<path d="M190.561 141.261C192.462 141.261 194.002 139.72 194.002 137.819C194.002 135.919 192.462 134.378 190.561 134.378C188.66 134.378 187.119 135.919 187.119 137.819C187.119 139.72 188.66 141.261 190.561 141.261Z" fill="#1CB220"/>
<path d="M56.9045 147.945C58.8053 147.945 60.3461 146.404 60.3461 144.503C60.3461 142.603 58.8053 141.062 56.9045 141.062C55.0038 141.062 53.4629 142.603 53.4629 144.503C53.4629 146.404 55.0038 147.945 56.9045 147.945Z" fill="#1CB220"/>
<path d="M70.2707 147.945C72.1715 147.945 73.7123 146.404 73.7123 144.503C73.7123 142.603 72.1715 141.062 70.2707 141.062C68.37 141.062 66.8291 142.603 66.8291 144.503C66.8291 146.404 68.37 147.945 70.2707 147.945Z" fill="#1CB220"/>
<path d="M83.6359 147.945C85.5367 147.945 87.0776 146.404 87.0776 144.503C87.0776 142.603 85.5367 141.062 83.6359 141.062C81.7352 141.062 80.1943 142.603 80.1943 144.503C80.1943 146.404 81.7352 147.945 83.6359 147.945Z" fill="#1CB220"/>
<path d="M90.3195 147.945C92.2203 147.945 93.7612 146.404 93.7612 144.503C93.7612 142.603 92.2203 141.062 90.3195 141.062C88.4188 141.062 86.8779 142.603 86.8779 144.503C86.8779 146.404 88.4188 147.945 90.3195 147.945Z" fill="#1CB220"/>
<path d="M130.415 147.945C132.316 147.945 133.857 146.404 133.857 144.503C133.857 142.603 132.316 141.062 130.415 141.062C128.514 141.062 126.974 142.603 126.974 144.503C126.974 146.404 128.514 147.945 130.415 147.945Z" fill="#1CB220"/>
<path d="M137.098 147.945C138.999 147.945 140.539 146.404 140.539 144.503C140.539 142.603 138.999 141.062 137.098 141.062C135.197 141.062 133.656 142.603 133.656 144.503C133.656 146.404 135.197 147.945 137.098 147.945Z" fill="#1CB220"/>
<path d="M163.829 147.945C165.73 147.945 167.271 146.404 167.271 144.503C167.271 142.603 165.73 141.062 163.829 141.062C161.929 141.062 160.388 142.603 160.388 144.503C160.388 146.404 161.929 147.945 163.829 147.945Z" fill="#1CB220"/>
<path d="M170.512 147.945C172.413 147.945 173.954 146.404 173.954 144.503C173.954 142.603 172.413 141.062 170.512 141.062C168.611 141.062 167.07 142.603 167.07 144.503C167.07 146.404 168.611 147.945 170.512 147.945Z" fill="#1CB220"/>
<path d="M183.877 147.945C185.778 147.945 187.319 146.404 187.319 144.503C187.319 142.603 185.778 141.062 183.877 141.062C181.976 141.062 180.436 142.603 180.436 144.503C180.436 146.404 181.976 147.945 183.877 147.945Z" fill="#1CB220"/>
<path d="M190.561 147.945C192.462 147.945 194.002 146.404 194.002 144.503C194.002 142.603 192.462 141.062 190.561 141.062C188.66 141.062 187.119 142.603 187.119 144.503C187.119 146.404 188.66 147.945 190.561 147.945Z" fill="#1CB220"/>
<path d="M63.5881 154.627C65.4888 154.627 67.0297 153.086 67.0297 151.185C67.0297 149.284 65.4888 147.744 63.5881 147.744C61.6873 147.744 60.1465 149.284 60.1465 151.185C60.1465 153.086 61.6873 154.627 63.5881 154.627Z" fill="#1CB220"/>
<path d="M70.2707 154.627C72.1715 154.627 73.7123 153.086 73.7123 151.185C73.7123 149.284 72.1715 147.744 70.2707 147.744C68.37 147.744 66.8291 149.284 66.8291 151.185C66.8291 153.086 68.37 154.627 70.2707 154.627Z" fill="#1CB220"/>
<path d="M76.9533 154.627C78.8541 154.627 80.3949 153.086 80.3949 151.185C80.3949 149.284 78.8541 147.744 76.9533 147.744C75.0526 147.744 73.5117 149.284 73.5117 151.185C73.5117 153.086 75.0526 154.627 76.9533 154.627Z" fill="#1CB220"/>
<path d="M97.0022 154.627C98.9029 154.627 100.444 153.086 100.444 151.185C100.444 149.284 98.9029 147.744 97.0022 147.744C95.1014 147.744 93.5605 149.284 93.5605 151.185C93.5605 153.086 95.1014 154.627 97.0022 154.627Z" fill="#1CB220"/>
<path d="M117.05 154.627C118.951 154.627 120.492 153.086 120.492 151.185C120.492 149.284 118.951 147.744 117.05 147.744C115.149 147.744 113.608 149.284 113.608 151.185C113.608 153.086 115.149 154.627 117.05 154.627Z" fill="#1CB220"/>
<path d="M130.415 154.627C132.316 154.627 133.857 153.086 133.857 151.185C133.857 149.284 132.316 147.744 130.415 147.744C128.514 147.744 126.974 149.284 126.974 151.185C126.974 153.086 128.514 154.627 130.415 154.627Z" fill="#1CB220"/>
<path d="M137.098 154.627C138.999 154.627 140.539 153.086 140.539 151.185C140.539 149.284 138.999 147.744 137.098 147.744C135.197 147.744 133.656 149.284 133.656 151.185C133.656 153.086 135.197 154.627 137.098 154.627Z" fill="#1CB220"/>
<path d="M150.464 154.627C152.365 154.627 153.906 153.086 153.906 151.185C153.906 149.284 152.365 147.744 150.464 147.744C148.563 147.744 147.022 149.284 147.022 151.185C147.022 153.086 148.563 154.627 150.464 154.627Z" fill="#1CB220"/>
<path d="M163.829 154.627C165.73 154.627 167.271 153.086 167.271 151.185C167.271 149.284 165.73 147.744 163.829 147.744C161.929 147.744 160.388 149.284 160.388 151.185C160.388 153.086 161.929 154.627 163.829 154.627Z" fill="#1CB220"/>
<path d="M183.877 154.627C185.778 154.627 187.319 153.086 187.319 151.185C187.319 149.284 185.778 147.744 183.877 147.744C181.976 147.744 180.436 149.284 180.436 151.185C180.436 153.086 181.976 154.627 183.877 154.627Z" fill="#1CB220"/>
<path d="M63.5881 161.311C65.4888 161.311 67.0297 159.77 67.0297 157.869C67.0297 155.968 65.4888 154.427 63.5881 154.427C61.6873 154.427 60.1465 155.968 60.1465 157.869C60.1465 159.77 61.6873 161.311 63.5881 161.311Z" fill="#1CB220"/>
<path d="M103.684 161.311C105.585 161.311 107.125 159.77 107.125 157.869C107.125 155.968 105.585 154.427 103.684 154.427C101.783 154.427 100.242 155.968 100.242 157.869C100.242 159.77 101.783 161.311 103.684 161.311Z" fill="#1CB220"/>
<path d="M117.05 161.311C118.951 161.311 120.492 159.77 120.492 157.869C120.492 155.968 118.951 154.427 117.05 154.427C115.149 154.427 113.608 155.968 113.608 157.869C113.608 159.77 115.149 161.311 117.05 161.311Z" fill="#1CB220"/>
<path d="M123.733 161.311C125.633 161.311 127.174 159.77 127.174 157.869C127.174 155.968 125.633 154.427 123.733 154.427C121.832 154.427 120.291 155.968 120.291 157.869C120.291 159.77 121.832 161.311 123.733 161.311Z" fill="#1CB220"/>
<path d="M130.415 161.311C132.316 161.311 133.857 159.77 133.857 157.869C133.857 155.968 132.316 154.427 130.415 154.427C128.514 154.427 126.974 155.968 126.974 157.869C126.974 159.77 128.514 161.311 130.415 161.311Z" fill="#1CB220"/>
<path d="M137.098 161.311C138.999 161.311 140.539 159.77 140.539 157.869C140.539 155.968 138.999 154.427 137.098 154.427C135.197 154.427 133.656 155.968 133.656 157.869C133.656 159.77 135.197 161.311 137.098 161.311Z" fill="#1CB220"/>
<path d="M163.829 161.311C165.73 161.311 167.271 159.77 167.271 157.869C167.271 155.968 165.73 154.427 163.829 154.427C161.929 154.427 160.388 155.968 160.388 157.869C160.388 159.77 161.929 161.311 163.829 161.311Z" fill="#1CB220"/>
<path d="M170.512 161.311C172.413 161.311 173.954 159.77 173.954 157.869C173.954 155.968 172.413 154.427 170.512 154.427C168.611 154.427 167.07 155.968 167.07 157.869C167.07 159.77 168.611 161.311 170.512 161.311Z" fill="#1CB220"/>
<path d="M56.9045 167.992C58.8053 167.992 60.3461 166.452 60.3461 164.551C60.3461 162.65 58.8053 161.109 56.9045 161.109C55.0038 161.109 53.4629 162.65 53.4629 164.551C53.4629 166.452 55.0038 167.992 56.9045 167.992Z" fill="#1CB220"/>
<path d="M63.5881 167.992C65.4888 167.992 67.0297 166.452 67.0297 164.551C67.0297 162.65 65.4888 161.109 63.5881 161.109C61.6873 161.109 60.1465 162.65 60.1465 164.551C60.1465 166.452 61.6873 167.992 63.5881 167.992Z" fill="#1CB220"/>
<path d="M70.2707 167.992C72.1715 167.992 73.7123 166.452 73.7123 164.551C73.7123 162.65 72.1715 161.109 70.2707 161.109C68.37 161.109 66.8291 162.65 66.8291 164.551C66.8291 166.452 68.37 167.992 70.2707 167.992Z" fill="#1CB220"/>
<path d="M83.6359 167.992C85.5367 167.992 87.0776 166.452 87.0776 164.551C87.0776 162.65 85.5367 161.109 83.6359 161.109C81.7352 161.109 80.1943 162.65 80.1943 164.551C80.1943 166.452 81.7352 167.992 83.6359 167.992Z" fill="#1CB220"/>
<path d="M97.0022 167.992C98.9029 167.992 100.444 166.452 100.444 164.551C100.444 162.65 98.9029 161.109 97.0022 161.109C95.1014 161.109 93.5605 162.65 93.5605 164.551C93.5605 166.452 95.1014 167.992 97.0022 167.992Z" fill="#1CB220"/>
<path d="M110.366 167.992C112.267 167.992 113.808 166.452 113.808 164.551C113.808 162.65 112.267 161.109 110.366 161.109C108.466 161.109 106.925 162.65 106.925 164.551C106.925 166.452 108.466 167.992 110.366 167.992Z" fill="#1CB220"/>
<path d="M117.05 167.992C118.951 167.992 120.492 166.452 120.492 164.551C120.492 162.65 118.951 161.109 117.05 161.109C115.149 161.109 113.608 162.65 113.608 164.551C113.608 166.452 115.149 167.992 117.05 167.992Z" fill="#1CB220"/>
<path d="M137.098 167.992C138.999 167.992 140.539 166.452 140.539 164.551C140.539 162.65 138.999 161.109 137.098 161.109C135.197 161.109 133.656 162.65 133.656 164.551C133.656 166.452 135.197 167.992 137.098 167.992Z" fill="#1CB220"/>
<path d="M143.781 167.992C145.682 167.992 147.223 166.452 147.223 164.551C147.223 162.65 145.682 161.109 143.781 161.109C141.881 161.109 140.34 162.65 140.34 164.551C140.34 166.452 141.881 167.992 143.781 167.992Z" fill="#1CB220"/>
<path d="M150.464 167.992C152.365 167.992 153.906 166.452 153.906 164.551C153.906 162.65 152.365 161.109 150.464 161.109C148.563 161.109 147.022 162.65 147.022 164.551C147.022 166.452 148.563 167.992 150.464 167.992Z" fill="#1CB220"/>
<path d="M157.146 167.992C159.046 167.992 160.587 166.452 160.587 164.551C160.587 162.65 159.046 161.109 157.146 161.109C155.245 161.109 153.704 162.65 153.704 164.551C153.704 166.452 155.245 167.992 157.146 167.992Z" fill="#1CB220"/>
<path d="M163.829 167.992C165.73 167.992 167.271 166.452 167.271 164.551C167.271 162.65 165.73 161.109 163.829 161.109C161.929 161.109 160.388 162.65 160.388 164.551C160.388 166.452 161.929 167.992 163.829 167.992Z" fill="#1CB220"/>
<path d="M170.512 167.992C172.413 167.992 173.954 166.452 173.954 164.551C173.954 162.65 172.413 161.109 170.512 161.109C168.611 161.109 167.07 162.65 167.07 164.551C167.07 166.452 168.611 167.992 170.512 167.992Z" fill="#1CB220"/>
<path d="M177.195 167.992C179.095 167.992 180.636 166.452 180.636 164.551C180.636 162.65 179.095 161.109 177.195 161.109C175.294 161.109 173.753 162.65 173.753 164.551C173.753 166.452 175.294 167.992 177.195 167.992Z" fill="#1CB220"/>
<path d="M56.9045 174.676C58.8053 174.676 60.3461 173.135 60.3461 171.235C60.3461 169.334 58.8053 167.793 56.9045 167.793C55.0038 167.793 53.4629 169.334 53.4629 171.235C53.4629 173.135 55.0038 174.676 56.9045 174.676Z" fill="#1CB220"/>
<path d="M70.2707 174.676C72.1715 174.676 73.7123 173.135 73.7123 171.235C73.7123 169.334 72.1715 167.793 70.2707 167.793C68.37 167.793 66.8291 169.334 66.8291 171.235C66.8291 173.135 68.37 174.676 70.2707 174.676Z" fill="#1CB220"/>
<path d="M97.0022 174.676C98.9029 174.676 100.444 173.135 100.444 171.235C100.444 169.334 98.9029 167.793 97.0022 167.793C95.1014 167.793 93.5605 169.334 93.5605 171.235C93.5605 173.135 95.1014 174.676 97.0022 174.676Z" fill="#1CB220"/>
<path d="M130.415 174.676C132.316 174.676 133.857 173.135 133.857 171.235C133.857 169.334 132.316 167.793 130.415 167.793C128.514 167.793 126.974 169.334 126.974 171.235C126.974 173.135 128.514 174.676 130.415 174.676Z" fill="#1CB220"/>
<path d="M137.098 174.676C138.999 174.676 140.539 173.135 140.539 171.235C140.539 169.334 138.999 167.793 137.098 167.793C135.197 167.793 133.656 169.334 133.656 171.235C133.656 173.135 135.197 174.676 137.098 174.676Z" fill="#1CB220"/>
<path d="M143.781 174.676C145.682 174.676 147.223 173.135 147.223 171.235C147.223 169.334 145.682 167.793 143.781 167.793C141.881 167.793 140.34 169.334 140.34 171.235C140.34 173.135 141.881 174.676 143.781 174.676Z" fill="#1CB220"/>
<path d="M157.146 174.676C159.046 174.676 160.587 173.135 160.587 171.235C160.587 169.334 159.046 167.793 157.146 167.793C155.245 167.793 153.704 169.334 153.704 171.235C153.704 173.135 155.245 174.676 157.146 174.676Z" fill="#1CB220"/>
<path d="M183.877 174.676C185.778 174.676 187.319 173.135 187.319 171.235C187.319 169.334 185.778 167.793 183.877 167.793C181.976 167.793 180.436 169.334 180.436 171.235C180.436 173.135 181.976 174.676 183.877 174.676Z" fill="#1CB220"/>
<path d="M56.9045 181.358C58.8053 181.358 60.3461 179.817 60.3461 177.917C60.3461 176.016 58.8053 174.475 56.9045 174.475C55.0038 174.475 53.4629 176.016 53.4629 177.917C53.4629 179.817 55.0038 181.358 56.9045 181.358Z" fill="#1CB220"/>
<path d="M70.2707 181.358C72.1715 181.358 73.7123 179.817 73.7123 177.917C73.7123 176.016 72.1715 174.475 70.2707 174.475C68.37 174.475 66.8291 176.016 66.8291 177.917C66.8291 179.817 68.37 181.358 70.2707 181.358Z" fill="#1CB220"/>
<path d="M83.6359 181.358C85.5367 181.358 87.0776 179.817 87.0776 177.917C87.0776 176.016 85.5367 174.475 83.6359 174.475C81.7352 174.475 80.1943 176.016 80.1943 177.917C80.1943 179.817 81.7352 181.358 83.6359 181.358Z" fill="#1CB220"/>
<path d="M103.684 181.358C105.585 181.358 107.125 179.817 107.125 177.917C107.125 176.016 105.585 174.475 103.684 174.475C101.783 174.475 100.242 176.016 100.242 177.917C100.242 179.817 101.783 181.358 103.684 181.358Z" fill="#1CB220"/>
<path d="M110.366 181.358C112.267 181.358 113.808 179.817 113.808 177.917C113.808 176.016 112.267 174.475 110.366 174.475C108.466 174.475 106.925 176.016 106.925 177.917C106.925 179.817 108.466 181.358 110.366 181.358Z" fill="#1CB220"/>
<path d="M130.415 181.358C132.316 181.358 133.857 179.817 133.857 177.917C133.857 176.016 132.316 174.475 130.415 174.475C128.514 174.475 126.974 176.016 126.974 177.917C126.974 179.817 128.514 181.358 130.415 181.358Z" fill="#1CB220"/>
<path d="M137.098 181.358C138.999 181.358 140.539 179.817 140.539 177.917C140.539 176.016 138.999 174.475 137.098 174.475C135.197 174.475 133.656 176.016 133.656 177.917C133.656 179.817 135.197 181.358 137.098 181.358Z" fill="#1CB220"/>
<path d="M143.781 181.358C145.682 181.358 147.223 179.817 147.223 177.917C147.223 176.016 145.682 174.475 143.781 174.475C141.881 174.475 140.34 176.016 140.34 177.917C140.34 179.817 141.881 181.358 143.781 181.358Z" fill="#1CB220"/>
<path d="M150.464 181.358C152.365 181.358 153.906 179.817 153.906 177.917C153.906 176.016 152.365 174.475 150.464 174.475C148.563 174.475 147.022 176.016 147.022 177.917C147.022 179.817 148.563 181.358 150.464 181.358Z" fill="#1CB220"/>
<path d="M157.146 181.358C159.046 181.358 160.587 179.817 160.587 177.917C160.587 176.016 159.046 174.475 157.146 174.475C155.245 174.475 153.704 176.016 153.704 177.917C153.704 179.817 155.245 181.358 157.146 181.358Z" fill="#1CB220"/>
<path d="M163.829 181.358C165.73 181.358 167.271 179.817 167.271 177.917C167.271 176.016 165.73 174.475 163.829 174.475C161.929 174.475 160.388 176.016 160.388 177.917C160.388 179.817 161.929 181.358 163.829 181.358Z" fill="#1CB220"/>
<path d="M183.877 181.358C185.778 181.358 187.319 179.817 187.319 177.917C187.319 176.016 185.778 174.475 183.877 174.475C181.976 174.475 180.436 176.016 180.436 177.917C180.436 179.817 181.976 181.358 183.877 181.358Z" fill="#1CB220"/>
<path d="M70.2707 188.04C72.1715 188.04 73.7123 186.499 73.7123 184.598C73.7123 182.698 72.1715 181.157 70.2707 181.157C68.37 181.157 66.8291 182.698 66.8291 184.598C66.8291 186.499 68.37 188.04 70.2707 188.04Z" fill="#1CB220"/>
<path d="M90.3195 188.04C92.2203 188.04 93.7612 186.499 93.7612 184.598C93.7612 182.698 92.2203 181.157 90.3195 181.157C88.4188 181.157 86.8779 182.698 86.8779 184.598C86.8779 186.499 88.4188 188.04 90.3195 188.04Z" fill="#1CB220"/>
<path d="M97.0022 188.04C98.9029 188.04 100.444 186.499 100.444 184.598C100.444 182.698 98.9029 181.157 97.0022 181.157C95.1014 181.157 93.5605 182.698 93.5605 184.598C93.5605 186.499 95.1014 188.04 97.0022 188.04Z" fill="#1CB220"/>
<path d="M103.684 188.04C105.585 188.04 107.125 186.499 107.125 184.598C107.125 182.698 105.585 181.157 103.684 181.157C101.783 181.157 100.242 182.698 100.242 184.598C100.242 186.499 101.783 188.04 103.684 188.04Z" fill="#1CB220"/>
<path d="M130.415 188.04C132.316 188.04 133.857 186.499 133.857 184.598C133.857 182.698 132.316 181.157 130.415 181.157C128.514 181.157 126.974 182.698 126.974 184.598C126.974 186.499 128.514 188.04 130.415 188.04Z" fill="#1CB220"/>
<path d="M137.098 188.04C138.999 188.04 140.539 186.499 140.539 184.598C140.539 182.698 138.999 181.157 137.098 181.157C135.197 181.157 133.656 182.698 133.656 184.598C133.656 186.499 135.197 188.04 137.098 188.04Z" fill="#1CB220"/>
<path d="M143.781 188.04C145.682 188.04 147.223 186.499 147.223 184.598C147.223 182.698 145.682 181.157 143.781 181.157C141.881 181.157 140.34 182.698 140.34 184.598C140.34 186.499 141.881 188.04 143.781 188.04Z" fill="#1CB220"/>
<path d="M150.464 188.04C152.365 188.04 153.906 186.499 153.906 184.598C153.906 182.698 152.365 181.157 150.464 181.157C148.563 181.157 147.022 182.698 147.022 184.598C147.022 186.499 148.563 188.04 150.464 188.04Z" fill="#1CB220"/>
<path d="M163.829 188.04C165.73 188.04 167.271 186.499 167.271 184.598C167.271 182.698 165.73 181.157 163.829 181.157C161.929 181.157 160.388 182.698 160.388 184.598C160.388 186.499 161.929 188.04 163.829 188.04Z" fill="#1CB220"/>
<path d="M183.877 188.04C185.778 188.04 187.319 186.499 187.319 184.598C187.319 182.698 185.778 181.157 183.877 181.157C181.976 181.157 180.436 182.698 180.436 184.598C180.436 186.499 181.976 188.04 183.877 188.04Z" fill="#1CB220"/>
<path d="M63.5881 194.724C65.4888 194.724 67.0297 193.183 67.0297 191.282C67.0297 189.381 65.4888 187.841 63.5881 187.841C61.6873 187.841 60.1465 189.381 60.1465 191.282C60.1465 193.183 61.6873 194.724 63.5881 194.724Z" fill="#1CB220"/>
<path d="M90.3195 194.724C92.2203 194.724 93.7612 193.183 93.7612 191.282C93.7612 189.382 92.2203 187.841 90.3195 187.841C88.4188 187.841 86.8779 189.382 86.8779 191.282C86.8779 193.183 88.4188 194.724 90.3195 194.724Z" fill="#1CB220"/>
<path d="M117.05 194.724C118.951 194.724 120.492 193.183 120.492 191.282C120.492 189.381 118.951 187.841 117.05 187.841C115.149 187.841 113.608 189.381 113.608 191.282C113.608 193.183 115.149 194.724 117.05 194.724Z" fill="#1CB220"/>
<path d="M163.829 194.724C165.73 194.724 167.271 193.183 167.271 191.282C167.271 189.382 165.73 187.841 163.829 187.841C161.929 187.841 160.388 189.382 160.388 191.282C160.388 193.183 161.929 194.724 163.829 194.724Z" fill="#1CB220"/>
<path d="M177.195 194.724C179.095 194.724 180.636 193.183 180.636 191.282C180.636 189.381 179.095 187.841 177.195 187.841C175.294 187.841 173.753 189.381 173.753 191.282C173.753 193.183 175.294 194.724 177.195 194.724Z" fill="#1CB220"/>
<path d="M0.000976562 24.1146C0.000976562 37.1459 10.3592 47.5042 23.3906 47.5042H46.7802V24.1146C46.7802 11.0832 36.4219 0.724976 23.3906 0.724976C10.3592 0.724976 0.000976562 11.0832 0.000976562 24.1146ZM40.0974 40.8214H23.3906C14.0347 40.8214 6.68372 33.4704 6.68372 24.1146C6.68372 14.7587 14.0347 7.40772 23.3906 7.40772C32.7464 7.40772 40.0974 14.7587 40.0974 24.1146V40.8214Z" fill="#1CB220"/>
<path d="M170.412 0.724976C157.381 0.724976 147.023 11.0832 147.023 24.1146V47.5042H170.412C183.444 47.5042 193.802 37.1459 193.802 24.1146C193.802 11.0832 183.444 0.724976 170.412 0.724976ZM153.705 40.8214V24.1146C153.705 14.7587 161.056 7.40772 170.412 7.40772C179.768 7.40772 187.119 14.7587 187.119 24.1146C187.119 33.4704 179.768 40.8214 170.412 40.8214H153.705Z" fill="#1CB220"/>
<path d="M23.3906 194.522C36.4219 194.522 46.7802 184.164 46.7802 171.132V147.743H23.3906C10.3592 147.743 0.000976563 158.101 0.000976563 171.132C0.000976563 184.164 10.3592 194.522 23.3906 194.522ZM40.0974 154.426V171.132C40.0974 180.488 32.7464 187.839 23.3906 187.839C14.0347 187.839 6.68372 180.488 6.68372 171.132C6.68372 161.777 14.0347 154.426 23.3906 154.426H40.0974Z" fill="#1CB220"/>
<path d="M33.4154 14.0909H13.3672V34.1392H33.4154V14.0909Z" fill="#1CB220"/>
<path d="M180.435 14.0909H160.387V34.1392H180.435V14.0909Z" fill="#1CB220"/>
<path d="M33.4154 161.109H13.3672V181.157H33.4154V161.109Z" fill="#1CB220"/>
<rect x="78.001" y="77.7244" width="43" height="43" rx="21.5" fill="#1CB220"/>
<path fill-rule="evenodd" clip-rule="evenodd" d="M108.949 90.027C107.791 88.8668 106.413 87.9468 104.895 87.3204C103.377 86.694 101.75 86.3736 100.106 86.3777C93.2157 86.3777 87.6063 91.9591 87.6035 98.8198C87.6035 101.012 88.1786 103.152 89.2718 105.04L87.499 111.486L94.1264 109.755C95.9596 110.748 98.0135 111.269 100.101 111.27H100.106C106.995 111.27 112.605 105.689 112.608 98.8281C112.612 97.1933 112.292 95.5738 111.664 94.0631C111.036 92.5525 110.113 91.1807 108.949 90.027ZM100.106 109.17H100.102C98.2409 109.171 96.414 108.672 94.813 107.728L94.4342 107.503L90.5015 108.53L91.5501 104.714L91.3036 104.324C90.263 102.675 89.7122 100.767 89.7147 98.8198C89.7174 93.1178 94.3785 88.4789 100.11 88.4789C101.476 88.4759 102.828 88.7423 104.089 89.2629C105.35 89.7834 106.494 90.5477 107.456 91.5114C108.424 92.4706 109.19 93.6111 109.712 94.8669C110.234 96.1228 110.501 97.4691 110.496 98.8281C110.494 104.53 105.833 109.17 100.106 109.17ZM105.806 101.424C105.493 101.267 103.958 100.516 103.671 100.412C103.386 100.308 103.178 100.257 102.969 100.568C102.761 100.878 102.162 101.578 101.979 101.786C101.797 101.994 101.614 102.019 101.303 101.863C100.991 101.708 99.9837 101.38 98.7903 100.321C97.8614 99.4962 97.2347 98.4788 97.0523 98.167C96.8699 97.8551 97.0328 97.6874 97.1902 97.5322C97.3308 97.3936 97.5021 97.1691 97.6581 96.9875C97.814 96.8059 97.8656 96.677 97.97 96.4691C98.0745 96.2612 98.0229 96.0797 97.9436 95.9244C97.8656 95.7678 97.2403 94.2377 96.9799 93.6154C96.7278 93.0125 96.4702 93.0929 96.278 93.0845C96.079 93.0764 95.8798 93.0727 95.6806 93.0735C95.5222 93.0775 95.3663 93.114 95.2228 93.1808C95.0792 93.2476 94.9511 93.3432 94.8464 93.4615C94.5595 93.7734 93.7532 94.5246 93.7532 96.0547C93.7532 97.5849 94.8729 99.0637 95.0288 99.2716C95.1848 99.4795 97.2319 102.619 100.365 103.966C101.112 104.286 101.694 104.477 102.146 104.622C102.894 104.859 103.575 104.824 104.114 104.745C104.714 104.656 105.962 103.994 106.223 103.267C106.483 102.541 106.483 101.919 106.405 101.789C106.327 101.658 106.117 101.579 105.806 101.424Z" fill="white"/>
</svg>
