<svg width="194" height="195" viewBox="0 0 194 195" fill="none" xmlns="http://www.w3.org/2000/svg">
<path d="M56.9045 7.60761C58.8052 7.60761 60.3461 6.06675 60.3461 4.16599C60.3461 2.26523 58.8052 0.724365 56.9045 0.724365C55.0037 0.724365 53.4629 2.26523 53.4629 4.16599C53.4629 6.06675 55.0037 7.60761 56.9045 7.60761Z" fill="#10A2E9"/>
<path d="M63.5871 7.60761C65.4879 7.60761 67.0287 6.06675 67.0287 4.16599C67.0287 2.26523 65.4879 0.724365 63.5871 0.724365C61.6864 0.724365 60.1455 2.26523 60.1455 4.16599C60.1455 6.06675 61.6864 7.60761 63.5871 7.60761Z" fill="#10A2E9"/>
<path d="M90.3166 7.60761C92.2174 7.60761 93.7582 6.06675 93.7582 4.16599C93.7582 2.26523 92.2174 0.724365 90.3166 0.724365C88.4159 0.724365 86.875 2.26523 86.875 4.16599C86.875 6.06675 88.4159 7.60761 90.3166 7.60761Z" fill="#10A2E9"/>
<path d="M103.683 7.60761C105.584 7.60761 107.124 6.06675 107.124 4.16599C107.124 2.26523 105.584 0.724365 103.683 0.724365C101.782 0.724365 100.241 2.26523 100.241 4.16599C100.241 6.06675 101.782 7.60761 103.683 7.60761Z" fill="#10A2E9"/>
<path d="M117.048 7.60761C118.949 7.60761 120.49 6.06675 120.49 4.16599C120.49 2.26523 118.949 0.724365 117.048 0.724365C115.147 0.724365 113.606 2.26523 113.606 4.16599C113.606 6.06675 115.147 7.60761 117.048 7.60761Z" fill="#10A2E9"/>
<path d="M123.732 7.60761C125.632 7.60761 127.173 6.06675 127.173 4.16599C127.173 2.26523 125.632 0.724365 123.732 0.724365C121.831 0.724365 120.29 2.26523 120.29 4.16599C120.29 6.06675 121.831 7.60761 123.732 7.60761Z" fill="#10A2E9"/>
<path d="M137.098 7.60761C138.999 7.60761 140.539 6.06675 140.539 4.16599C140.539 2.26523 138.999 0.724365 137.098 0.724365C135.197 0.724365 133.656 2.26523 133.656 4.16599C133.656 6.06675 135.197 7.60761 137.098 7.60761Z" fill="#10A2E9"/>
<path d="M56.9045 14.2899C58.8052 14.2899 60.3461 12.749 60.3461 10.8482C60.3461 8.94748 58.8052 7.40662 56.9045 7.40662C55.0037 7.40662 53.4629 8.94748 53.4629 10.8482C53.4629 12.749 55.0037 14.2899 56.9045 14.2899Z" fill="#10A2E9"/>
<path d="M83.6359 14.2899C85.5367 14.2899 87.0775 12.749 87.0775 10.8482C87.0775 8.94748 85.5367 7.40662 83.6359 7.40662C81.7352 7.40662 80.1943 8.94748 80.1943 10.8482C80.1943 12.749 81.7352 14.2899 83.6359 14.2899Z" fill="#10A2E9"/>
<path d="M90.3166 14.2899C92.2174 14.2899 93.7582 12.749 93.7582 10.8482C93.7582 8.94748 92.2174 7.40662 90.3166 7.40662C88.4159 7.40662 86.875 8.94748 86.875 10.8482C86.875 12.749 88.4159 14.2899 90.3166 14.2899Z" fill="#10A2E9"/>
<path d="M110.366 14.2899C112.267 14.2899 113.808 12.749 113.808 10.8482C113.808 8.94748 112.267 7.40662 110.366 7.40662C108.466 7.40662 106.925 8.94748 106.925 10.8482C106.925 12.749 108.466 14.2899 110.366 14.2899Z" fill="#10A2E9"/>
<path d="M117.048 14.2899C118.949 14.2899 120.49 12.749 120.49 10.8482C120.49 8.94748 118.949 7.40662 117.048 7.40662C115.147 7.40662 113.606 8.94748 113.606 10.8482C113.606 12.749 115.147 14.2899 117.048 14.2899Z" fill="#10A2E9"/>
<path d="M130.414 14.29C132.315 14.29 133.856 12.7491 133.856 10.8484C133.856 8.94761 132.315 7.40674 130.414 7.40674C128.514 7.40674 126.973 8.94761 126.973 10.8484C126.973 12.7491 128.514 14.29 130.414 14.29Z" fill="#10A2E9"/>
<path d="M56.9045 20.972C58.8052 20.972 60.3461 19.4311 60.3461 17.5304C60.3461 15.6296 58.8052 14.0887 56.9045 14.0887C55.0037 14.0887 53.4629 15.6296 53.4629 17.5304C53.4629 19.4311 55.0037 20.972 56.9045 20.972Z" fill="#10A2E9"/>
<path d="M63.5871 20.972C65.4879 20.972 67.0287 19.4311 67.0287 17.5304C67.0287 15.6296 65.4879 14.0887 63.5871 14.0887C61.6864 14.0887 60.1455 15.6296 60.1455 17.5304C60.1455 19.4311 61.6864 20.972 63.5871 20.972Z" fill="#10A2E9"/>
<path d="M70.2697 20.972C72.1705 20.972 73.7113 19.4311 73.7113 17.5304C73.7113 15.6296 72.1705 14.0887 70.2697 14.0887C68.369 14.0887 66.8281 15.6296 66.8281 17.5304C66.8281 19.4311 68.369 20.972 70.2697 20.972Z" fill="#10A2E9"/>
<path d="M76.9533 20.972C78.8541 20.972 80.3949 19.4311 80.3949 17.5304C80.3949 15.6296 78.8541 14.0887 76.9533 14.0887C75.0526 14.0887 73.5117 15.6296 73.5117 17.5304C73.5117 19.4311 75.0526 20.972 76.9533 20.972Z" fill="#10A2E9"/>
<path d="M90.3166 20.972C92.2174 20.972 93.7582 19.4311 93.7582 17.5304C93.7582 15.6296 92.2174 14.0887 90.3166 14.0887C88.4159 14.0887 86.875 15.6296 86.875 17.5304C86.875 19.4311 88.4159 20.972 90.3166 20.972Z" fill="#10A2E9"/>
<path d="M97.0002 20.972C98.9009 20.972 100.442 19.4311 100.442 17.5304C100.442 15.6296 98.9009 14.0887 97.0002 14.0887C95.0995 14.0887 93.5586 15.6296 93.5586 17.5304C93.5586 19.4311 95.0995 20.972 97.0002 20.972Z" fill="#10A2E9"/>
<path d="M110.366 20.972C112.267 20.972 113.808 19.4311 113.808 17.5304C113.808 15.6296 112.267 14.0887 110.366 14.0887C108.466 14.0887 106.925 15.6296 106.925 17.5304C106.925 19.4311 108.466 20.972 110.366 20.972Z" fill="#10A2E9"/>
<path d="M123.732 20.972C125.632 20.972 127.173 19.4311 127.173 17.5304C127.173 15.6296 125.632 14.0887 123.732 14.0887C121.831 14.0887 120.29 15.6296 120.29 17.5304C120.29 19.4311 121.831 20.972 123.732 20.972Z" fill="#10A2E9"/>
<path d="M130.414 20.972C132.315 20.972 133.856 19.4311 133.856 17.5304C133.856 15.6296 132.315 14.0887 130.414 14.0887C128.514 14.0887 126.973 15.6296 126.973 17.5304C126.973 19.4311 128.514 20.972 130.414 20.972Z" fill="#10A2E9"/>
<path d="M137.098 20.972C138.999 20.972 140.539 19.4311 140.539 17.5304C140.539 15.6296 138.999 14.0887 137.098 14.0887C135.197 14.0887 133.656 15.6296 133.656 17.5304C133.656 19.4311 135.197 20.972 137.098 20.972Z" fill="#10A2E9"/>
<path d="M76.9533 27.6562C78.8541 27.6562 80.3949 26.1153 80.3949 24.2146C80.3949 22.3138 78.8541 20.7729 76.9533 20.7729C75.0526 20.7729 73.5117 22.3138 73.5117 24.2146C73.5117 26.1153 75.0526 27.6562 76.9533 27.6562Z" fill="#10A2E9"/>
<path d="M97.0002 27.6566C98.9009 27.6566 100.442 26.1157 100.442 24.2149C100.442 22.3142 98.9009 20.7733 97.0002 20.7733C95.0995 20.7733 93.5586 22.3142 93.5586 24.2149C93.5586 26.1157 95.0995 27.6566 97.0002 27.6566Z" fill="#10A2E9"/>
<path d="M117.048 27.6562C118.949 27.6562 120.49 26.1153 120.49 24.2146C120.49 22.3138 118.949 20.7729 117.048 20.7729C115.147 20.7729 113.606 22.3138 113.606 24.2146C113.606 26.1153 115.147 27.6562 117.048 27.6562Z" fill="#10A2E9"/>
<path d="M130.414 27.6562C132.315 27.6562 133.856 26.1153 133.856 24.2146C133.856 22.3138 132.315 20.7729 130.414 20.7729C128.514 20.7729 126.973 22.3138 126.973 24.2146C126.973 26.1153 128.514 27.6562 130.414 27.6562Z" fill="#10A2E9"/>
<path d="M63.5871 34.3383C65.4879 34.3383 67.0287 32.7975 67.0287 30.8967C67.0287 28.9959 65.4879 27.4551 63.5871 27.4551C61.6864 27.4551 60.1455 28.9959 60.1455 30.8967C60.1455 32.7975 61.6864 34.3383 63.5871 34.3383Z" fill="#10A2E9"/>
<path d="M83.6359 34.3383C85.5367 34.3383 87.0775 32.7975 87.0775 30.8967C87.0775 28.9959 85.5367 27.4551 83.6359 27.4551C81.7352 27.4551 80.1943 28.9959 80.1943 30.8967C80.1943 32.7975 81.7352 34.3383 83.6359 34.3383Z" fill="#10A2E9"/>
<path d="M103.683 34.3383C105.584 34.3383 107.124 32.7975 107.124 30.8967C107.124 28.9959 105.584 27.4551 103.683 27.4551C101.782 27.4551 100.241 28.9959 100.241 30.8967C100.241 32.7975 101.782 34.3383 103.683 34.3383Z" fill="#10A2E9"/>
<path d="M123.732 34.3383C125.632 34.3383 127.173 32.7975 127.173 30.8967C127.173 28.9959 125.632 27.4551 123.732 27.4551C121.831 27.4551 120.29 28.9959 120.29 30.8967C120.29 32.7975 121.831 34.3383 123.732 34.3383Z" fill="#10A2E9"/>
<path d="M130.414 34.3383C132.315 34.3383 133.856 32.7975 133.856 30.8967C133.856 28.9959 132.315 27.4551 130.414 27.4551C128.514 27.4551 126.973 28.9959 126.973 30.8967C126.973 32.7975 128.514 34.3383 130.414 34.3383Z" fill="#10A2E9"/>
<path d="M56.9045 41.0225C58.8052 41.0225 60.3461 39.4817 60.3461 37.5809C60.3461 35.6801 58.8052 34.1393 56.9045 34.1393C55.0037 34.1393 53.4629 35.6801 53.4629 37.5809C53.4629 39.4817 55.0037 41.0225 56.9045 41.0225Z" fill="#10A2E9"/>
<path d="M76.9533 41.0225C78.8541 41.0225 80.3949 39.4817 80.3949 37.5809C80.3949 35.6801 78.8541 34.1393 76.9533 34.1393C75.0526 34.1393 73.5117 35.6801 73.5117 37.5809C73.5117 39.4817 75.0526 41.0225 76.9533 41.0225Z" fill="#10A2E9"/>
<path d="M90.3176 41.0224C92.2183 41.0224 93.7592 39.4815 93.7592 37.5808C93.7592 35.68 92.2183 34.1392 90.3176 34.1392C88.4168 34.1392 86.876 35.68 86.876 37.5808C86.876 39.4815 88.4168 41.0224 90.3176 41.0224Z" fill="#10A2E9"/>
<path d="M97.0002 41.0224C98.9009 41.0224 100.442 39.4815 100.442 37.5808C100.442 35.68 98.9009 34.1392 97.0002 34.1392C95.0995 34.1392 93.5586 35.68 93.5586 37.5808C93.5586 39.4815 95.0995 41.0224 97.0002 41.0224Z" fill="#10A2E9"/>
<path d="M110.366 41.0225C112.267 41.0225 113.808 39.4817 113.808 37.5809C113.808 35.6801 112.267 34.1393 110.366 34.1393C108.466 34.1393 106.925 35.6801 106.925 37.5809C106.925 39.4817 108.466 41.0225 110.366 41.0225Z" fill="#10A2E9"/>
<path d="M123.732 41.0225C125.632 41.0225 127.173 39.4817 127.173 37.5809C127.173 35.6801 125.632 34.1393 123.732 34.1393C121.831 34.1393 120.29 35.6801 120.29 37.5809C120.29 39.4817 121.831 41.0225 123.732 41.0225Z" fill="#10A2E9"/>
<path d="M137.098 41.0225C138.999 41.0225 140.539 39.4817 140.539 37.5809C140.539 35.6801 138.999 34.1393 137.098 34.1393C135.197 34.1393 133.656 35.6801 133.656 37.5809C133.656 39.4817 135.197 41.0225 137.098 41.0225Z" fill="#10A2E9"/>
<path d="M56.9045 47.7048C58.8052 47.7048 60.3461 46.1639 60.3461 44.2632C60.3461 42.3624 58.8052 40.8215 56.9045 40.8215C55.0037 40.8215 53.4629 42.3624 53.4629 44.2632C53.4629 46.1639 55.0037 47.7048 56.9045 47.7048Z" fill="#10A2E9"/>
<path d="M70.2697 47.7048C72.1705 47.7048 73.7113 46.1639 73.7113 44.2632C73.7113 42.3624 72.1705 40.8215 70.2697 40.8215C68.369 40.8215 66.8281 42.3624 66.8281 44.2632C66.8281 46.1639 68.369 47.7048 70.2697 47.7048Z" fill="#10A2E9"/>
<path d="M83.6359 47.7048C85.5367 47.7048 87.0775 46.1639 87.0775 44.2632C87.0775 42.3624 85.5367 40.8215 83.6359 40.8215C81.7352 40.8215 80.1943 42.3624 80.1943 44.2632C80.1943 46.1639 81.7352 47.7048 83.6359 47.7048Z" fill="#10A2E9"/>
<path d="M97.0002 47.7043C98.9009 47.7043 100.442 46.1634 100.442 44.2627C100.442 42.3619 98.9009 40.821 97.0002 40.821C95.0995 40.821 93.5586 42.3619 93.5586 44.2627C93.5586 46.1634 95.0995 47.7043 97.0002 47.7043Z" fill="#10A2E9"/>
<path d="M110.366 47.7048C112.267 47.7048 113.808 46.1639 113.808 44.2632C113.808 42.3624 112.267 40.8215 110.366 40.8215C108.466 40.8215 106.925 42.3624 106.925 44.2632C106.925 46.1639 108.466 47.7048 110.366 47.7048Z" fill="#10A2E9"/>
<path d="M123.732 47.7048C125.632 47.7048 127.173 46.1639 127.173 44.2632C127.173 42.3624 125.632 40.8215 123.732 40.8215C121.831 40.8215 120.29 42.3624 120.29 44.2632C120.29 46.1639 121.831 47.7048 123.732 47.7048Z" fill="#10A2E9"/>
<path d="M137.098 47.7048C138.999 47.7048 140.539 46.1639 140.539 44.2632C140.539 42.3624 138.999 40.8215 137.098 40.8215C135.197 40.8215 133.656 42.3624 133.656 44.2632C133.656 46.1639 135.197 47.7048 137.098 47.7048Z" fill="#10A2E9"/>
<path d="M56.9045 54.3869C58.8052 54.3869 60.3461 52.846 60.3461 50.9453C60.3461 49.0445 58.8052 47.5037 56.9045 47.5037C55.0037 47.5037 53.4629 49.0445 53.4629 50.9453C53.4629 52.846 55.0037 54.3869 56.9045 54.3869Z" fill="#10A2E9"/>
<path d="M70.2697 54.3869C72.1705 54.3869 73.7113 52.846 73.7113 50.9453C73.7113 49.0445 72.1705 47.5037 70.2697 47.5037C68.369 47.5037 66.8281 49.0445 66.8281 50.9453C66.8281 52.846 68.369 54.3869 70.2697 54.3869Z" fill="#10A2E9"/>
<path d="M76.9533 54.3869C78.8541 54.3869 80.3949 52.846 80.3949 50.9453C80.3949 49.0445 78.8541 47.5037 76.9533 47.5037C75.0526 47.5037 73.5117 49.0445 73.5117 50.9453C73.5117 52.846 75.0526 54.3869 76.9533 54.3869Z" fill="#10A2E9"/>
<path d="M83.6359 54.3869C85.5367 54.3869 87.0775 52.846 87.0775 50.9453C87.0775 49.0445 85.5367 47.5037 83.6359 47.5037C81.7352 47.5037 80.1943 49.0445 80.1943 50.9453C80.1943 52.846 81.7352 54.3869 83.6359 54.3869Z" fill="#10A2E9"/>
<path d="M90.3166 54.3869C92.2174 54.3869 93.7582 52.846 93.7582 50.9453C93.7582 49.0445 92.2174 47.5037 90.3166 47.5037C88.4159 47.5037 86.875 49.0445 86.875 50.9453C86.875 52.846 88.4159 54.3869 90.3166 54.3869Z" fill="#10A2E9"/>
<path d="M103.683 54.3869C105.584 54.3869 107.124 52.846 107.124 50.9453C107.124 49.0445 105.584 47.5037 103.683 47.5037C101.782 47.5037 100.241 49.0445 100.241 50.9453C100.241 52.846 101.782 54.3869 103.683 54.3869Z" fill="#10A2E9"/>
<path d="M110.366 54.3869C112.267 54.3869 113.808 52.846 113.808 50.9453C113.808 49.0445 112.267 47.5037 110.366 47.5037C108.466 47.5037 106.925 49.0445 106.925 50.9453C106.925 52.846 108.466 54.3869 110.366 54.3869Z" fill="#10A2E9"/>
<path d="M16.8078 61.0711C18.7086 61.0711 20.2494 59.5302 20.2494 57.6295C20.2494 55.7287 18.7086 54.1879 16.8078 54.1879C14.9071 54.1879 13.3662 55.7287 13.3662 57.6295C13.3662 59.5302 14.9071 61.0711 16.8078 61.0711Z" fill="#10A2E9"/>
<path d="M23.4914 61.0711C25.3922 61.0711 26.933 59.5302 26.933 57.6295C26.933 55.7287 25.3922 54.1879 23.4914 54.1879C21.5907 54.1879 20.0498 55.7287 20.0498 57.6295C20.0498 59.5302 21.5907 61.0711 23.4914 61.0711Z" fill="#10A2E9"/>
<path d="M30.173 61.0711C32.0738 61.0711 33.6147 59.5302 33.6147 57.6295C33.6147 55.7287 32.0738 54.1879 30.173 54.1879C28.2723 54.1879 26.7314 55.7287 26.7314 57.6295C26.7314 59.5302 28.2723 61.0711 30.173 61.0711Z" fill="#10A2E9"/>
<path d="M43.5383 61.0711C45.439 61.0711 46.9799 59.5302 46.9799 57.6295C46.9799 55.7287 45.439 54.1879 43.5383 54.1879C41.6375 54.1879 40.0967 55.7287 40.0967 57.6295C40.0967 59.5302 41.6375 61.0711 43.5383 61.0711Z" fill="#10A2E9"/>
<path d="M56.9045 61.0711C58.8052 61.0711 60.3461 59.5302 60.3461 57.6295C60.3461 55.7287 58.8052 54.1879 56.9045 54.1879C55.0037 54.1879 53.4629 55.7287 53.4629 57.6295C53.4629 59.5302 55.0037 61.0711 56.9045 61.0711Z" fill="#10A2E9"/>
<path d="M70.2697 61.0711C72.1705 61.0711 73.7113 59.5302 73.7113 57.6295C73.7113 55.7287 72.1705 54.1879 70.2697 54.1879C68.369 54.1879 66.8281 55.7287 66.8281 57.6295C66.8281 59.5302 68.369 61.0711 70.2697 61.0711Z" fill="#10A2E9"/>
<path d="M76.9533 61.0711C78.8541 61.0711 80.3949 59.5302 80.3949 57.6295C80.3949 55.7287 78.8541 54.1879 76.9533 54.1879C75.0526 54.1879 73.5117 55.7287 73.5117 57.6295C73.5117 59.5302 75.0526 61.0711 76.9533 61.0711Z" fill="#10A2E9"/>
<path d="M83.6359 61.0711C85.5367 61.0711 87.0775 59.5302 87.0775 57.6295C87.0775 55.7287 85.5367 54.1879 83.6359 54.1879C81.7352 54.1879 80.1943 55.7287 80.1943 57.6295C80.1943 59.5302 81.7352 61.0711 83.6359 61.0711Z" fill="#10A2E9"/>
<path d="M90.3166 61.0711C92.2174 61.0711 93.7582 59.5302 93.7582 57.6295C93.7582 55.7287 92.2174 54.1879 90.3166 54.1879C88.4159 54.1879 86.875 55.7287 86.875 57.6295C86.875 59.5302 88.4159 61.0711 90.3166 61.0711Z" fill="#10A2E9"/>
<path d="M103.683 61.0711C105.584 61.0711 107.124 59.5302 107.124 57.6295C107.124 55.7287 105.584 54.1879 103.683 54.1879C101.782 54.1879 100.241 55.7287 100.241 57.6295C100.241 59.5302 101.782 61.0711 103.683 61.0711Z" fill="#10A2E9"/>
<path d="M123.732 61.0711C125.632 61.0711 127.173 59.5302 127.173 57.6295C127.173 55.7287 125.632 54.1879 123.732 54.1879C121.831 54.1879 120.29 55.7287 120.29 57.6295C120.29 59.5302 121.831 61.0711 123.732 61.0711Z" fill="#10A2E9"/>
<path d="M143.779 61.0711C145.68 61.0711 147.221 59.5302 147.221 57.6295C147.221 55.7287 145.68 54.1879 143.779 54.1879C141.879 54.1879 140.338 55.7287 140.338 57.6295C140.338 59.5302 141.879 61.0711 143.779 61.0711Z" fill="#10A2E9"/>
<path d="M150.462 61.0711C152.363 61.0711 153.904 59.5302 153.904 57.6295C153.904 55.7287 152.363 54.1879 150.462 54.1879C148.561 54.1879 147.021 55.7287 147.021 57.6295C147.021 59.5302 148.561 61.0711 150.462 61.0711Z" fill="#10A2E9"/>
<path d="M157.145 61.0711C159.045 61.0711 160.586 59.5302 160.586 57.6295C160.586 55.7287 159.045 54.1879 157.145 54.1879C155.244 54.1879 153.703 55.7287 153.703 57.6295C153.703 59.5302 155.244 61.0711 157.145 61.0711Z" fill="#10A2E9"/>
<path d="M177.194 61.0711C179.094 61.0711 180.635 59.5302 180.635 57.6295C180.635 55.7287 179.094 54.1879 177.194 54.1879C175.293 54.1879 173.752 55.7287 173.752 57.6295C173.752 59.5302 175.293 61.0711 177.194 61.0711Z" fill="#10A2E9"/>
<path d="M183.876 61.0711C185.777 61.0711 187.318 59.5302 187.318 57.6295C187.318 55.7287 185.777 54.1879 183.876 54.1879C181.975 54.1879 180.435 55.7287 180.435 57.6295C180.435 59.5302 181.975 61.0711 183.876 61.0711Z" fill="#10A2E9"/>
<path d="M190.56 61.0711C192.461 61.0711 194.001 59.5302 194.001 57.6295C194.001 55.7287 192.461 54.1879 190.56 54.1879C188.659 54.1879 187.118 55.7287 187.118 57.6295C187.118 59.5302 188.659 61.0711 190.56 61.0711Z" fill="#10A2E9"/>
<path d="M16.8078 67.7509C18.7086 67.7509 20.2494 66.2101 20.2494 64.3093C20.2494 62.4085 18.7086 60.8677 16.8078 60.8677C14.9071 60.8677 13.3662 62.4085 13.3662 64.3093C13.3662 66.2101 14.9071 67.7509 16.8078 67.7509Z" fill="#10A2E9"/>
<path d="M23.4914 67.7508C25.3922 67.7508 26.933 66.2099 26.933 64.3092C26.933 62.4084 25.3922 60.8676 23.4914 60.8676C21.5907 60.8676 20.0498 62.4084 20.0498 64.3092C20.0498 66.2099 21.5907 67.7508 23.4914 67.7508Z" fill="#10A2E9"/>
<path d="M50.2219 67.7509C52.1226 67.7509 53.6635 66.2101 53.6635 64.3093C53.6635 62.4085 52.1226 60.8677 50.2219 60.8677C48.3211 60.8677 46.7803 62.4085 46.7803 64.3093C46.7803 66.2101 48.3211 67.7509 50.2219 67.7509Z" fill="#10A2E9"/>
<path d="M56.9045 67.7508C58.8052 67.7508 60.3461 66.2099 60.3461 64.3092C60.3461 62.4084 58.8052 60.8676 56.9045 60.8676C55.0037 60.8676 53.4629 62.4084 53.4629 64.3092C53.4629 66.2099 55.0037 67.7508 56.9045 67.7508Z" fill="#10A2E9"/>
<path d="M110.366 67.7508C112.267 67.7508 113.808 66.2099 113.808 64.3092C113.808 62.4084 112.267 60.8676 110.366 60.8676C108.466 60.8676 106.925 62.4084 106.925 64.3092C106.925 66.2099 108.466 67.7508 110.366 67.7508Z" fill="#10A2E9"/>
<path d="M143.779 67.7508C145.68 67.7508 147.221 66.2099 147.221 64.3092C147.221 62.4084 145.68 60.8676 143.779 60.8676C141.879 60.8676 140.338 62.4084 140.338 64.3092C140.338 66.2099 141.879 67.7508 143.779 67.7508Z" fill="#10A2E9"/>
<path d="M150.462 67.7508C152.363 67.7508 153.904 66.2099 153.904 64.3092C153.904 62.4084 152.363 60.8676 150.462 60.8676C148.561 60.8676 147.021 62.4084 147.021 64.3092C147.021 66.2099 148.561 67.7508 150.462 67.7508Z" fill="#10A2E9"/>
<path d="M190.559 67.7509C192.46 67.7509 194 66.2101 194 64.3093C194 62.4085 192.46 60.8677 190.559 60.8677C188.658 60.8677 187.117 62.4085 187.117 64.3093C187.117 66.2101 188.658 67.7509 190.559 67.7509Z" fill="#10A2E9"/>
<path d="M30.173 74.4331C32.0738 74.4331 33.6147 72.8922 33.6147 70.9914C33.6147 69.0907 32.0738 67.5498 30.173 67.5498C28.2723 67.5498 26.7314 69.0907 26.7314 70.9914C26.7314 72.8922 28.2723 74.4331 30.173 74.4331Z" fill="#10A2E9"/>
<path d="M43.5383 74.4331C45.439 74.4331 46.9799 72.8922 46.9799 70.9914C46.9799 69.0907 45.439 67.5498 43.5383 67.5498C41.6375 67.5498 40.0967 69.0907 40.0967 70.9914C40.0967 72.8922 41.6375 74.4331 43.5383 74.4331Z" fill="#10A2E9"/>
<path d="M50.2219 74.4331C52.1226 74.4331 53.6635 72.8922 53.6635 70.9914C53.6635 69.0907 52.1226 67.5498 50.2219 67.5498C48.3211 67.5498 46.7803 69.0907 46.7803 70.9914C46.7803 72.8922 48.3211 74.4331 50.2219 74.4331Z" fill="#10A2E9"/>
<path d="M63.5871 74.4331C65.4879 74.4331 67.0287 72.8922 67.0287 70.9914C67.0287 69.0907 65.4879 67.5498 63.5871 67.5498C61.6864 67.5498 60.1455 69.0907 60.1455 70.9914C60.1455 72.8922 61.6864 74.4331 63.5871 74.4331Z" fill="#10A2E9"/>
<path d="M143.779 74.4331C145.68 74.4331 147.221 72.8922 147.221 70.9914C147.221 69.0907 145.68 67.5498 143.779 67.5498C141.879 67.5498 140.338 69.0907 140.338 70.9914C140.338 72.8922 141.879 74.4331 143.779 74.4331Z" fill="#10A2E9"/>
<path d="M150.462 74.4331C152.363 74.4331 153.904 72.8922 153.904 70.9914C153.904 69.0907 152.363 67.5498 150.462 67.5498C148.561 67.5498 147.021 69.0907 147.021 70.9914C147.021 72.8922 148.561 74.4331 150.462 74.4331Z" fill="#10A2E9"/>
<path d="M157.145 74.4331C159.045 74.4331 160.586 72.8922 160.586 70.9914C160.586 69.0907 159.045 67.5498 157.145 67.5498C155.244 67.5498 153.703 69.0907 153.703 70.9914C153.703 72.8922 155.244 74.4331 157.145 74.4331Z" fill="#10A2E9"/>
<path d="M163.828 74.4331C165.729 74.4331 167.27 72.8922 167.27 70.9914C167.27 69.0907 165.729 67.5498 163.828 67.5498C161.928 67.5498 160.387 69.0907 160.387 70.9914C160.387 72.8922 161.928 74.4331 163.828 74.4331Z" fill="#10A2E9"/>
<path d="M10.1252 81.1171C12.0259 81.1171 13.5668 79.5763 13.5668 77.6755C13.5668 75.7748 12.0259 74.2339 10.1252 74.2339C8.22445 74.2339 6.68359 75.7748 6.68359 77.6755C6.68359 79.5763 8.22445 81.1171 10.1252 81.1171Z" fill="#10A2E9"/>
<path d="M16.8078 81.1171C18.7086 81.1171 20.2494 79.5763 20.2494 77.6755C20.2494 75.7748 18.7086 74.2339 16.8078 74.2339C14.9071 74.2339 13.3662 75.7748 13.3662 77.6755C13.3662 79.5763 14.9071 81.1171 16.8078 81.1171Z" fill="#10A2E9"/>
<path d="M36.8557 81.1171C38.7564 81.1171 40.2973 79.5763 40.2973 77.6755C40.2973 75.7748 38.7564 74.2339 36.8557 74.2339C34.9549 74.2339 33.4141 75.7748 33.4141 77.6755C33.4141 79.5763 34.9549 81.1171 36.8557 81.1171Z" fill="#10A2E9"/>
<path d="M63.5871 81.1171C65.4879 81.1171 67.0287 79.5763 67.0287 77.6755C67.0287 75.7748 65.4879 74.2339 63.5871 74.2339C61.6864 74.2339 60.1455 75.7748 60.1455 77.6755C60.1455 79.5763 61.6864 81.1171 63.5871 81.1171Z" fill="#10A2E9"/>
<path d="M143.779 81.1171C145.68 81.1171 147.221 79.5763 147.221 77.6755C147.221 75.7748 145.68 74.2339 143.779 74.2339C141.879 74.2339 140.338 75.7748 140.338 77.6755C140.338 79.5763 141.879 81.1171 143.779 81.1171Z" fill="#10A2E9"/>
<path d="M150.462 81.1171C152.363 81.1171 153.904 79.5763 153.904 77.6755C153.904 75.7748 152.363 74.2339 150.462 74.2339C148.561 74.2339 147.021 75.7748 147.021 77.6755C147.021 79.5763 148.561 81.1171 150.462 81.1171Z" fill="#10A2E9"/>
<path d="M163.828 81.1171C165.729 81.1171 167.27 79.5763 167.27 77.6755C167.27 75.7748 165.729 74.2339 163.828 74.2339C161.928 74.2339 160.387 75.7748 160.387 77.6755C160.387 79.5763 161.928 81.1171 163.828 81.1171Z" fill="#10A2E9"/>
<path d="M183.876 81.1171C185.777 81.1171 187.318 79.5763 187.318 77.6755C187.318 75.7748 185.777 74.2339 183.876 74.2339C181.975 74.2339 180.435 75.7748 180.435 77.6755C180.435 79.5763 181.975 81.1171 183.876 81.1171Z" fill="#10A2E9"/>
<path d="M16.8078 87.7994C18.7086 87.7994 20.2494 86.2585 20.2494 84.3578C20.2494 82.457 18.7086 80.9161 16.8078 80.9161C14.9071 80.9161 13.3662 82.457 13.3662 84.3578C13.3662 86.2585 14.9071 87.7994 16.8078 87.7994Z" fill="#10A2E9"/>
<path d="M30.173 87.7994C32.0738 87.7994 33.6147 86.2585 33.6147 84.3578C33.6147 82.457 32.0738 80.9161 30.173 80.9161C28.2723 80.9161 26.7314 82.457 26.7314 84.3578C26.7314 86.2585 28.2723 87.7994 30.173 87.7994Z" fill="#10A2E9"/>
<path d="M36.8557 87.7994C38.7564 87.7994 40.2973 86.2585 40.2973 84.3578C40.2973 82.457 38.7564 80.9161 36.8557 80.9161C34.9549 80.9161 33.4141 82.457 33.4141 84.3578C33.4141 86.2585 34.9549 87.7994 36.8557 87.7994Z" fill="#10A2E9"/>
<path d="M43.5383 87.7994C45.439 87.7994 46.9799 86.2585 46.9799 84.3578C46.9799 82.457 45.439 80.9161 43.5383 80.9161C41.6375 80.9161 40.0967 82.457 40.0967 84.3578C40.0967 86.2585 41.6375 87.7994 43.5383 87.7994Z" fill="#10A2E9"/>
<path d="M56.9045 87.7994C58.8052 87.7994 60.3461 86.2585 60.3461 84.3578C60.3461 82.457 58.8052 80.9161 56.9045 80.9161C55.0037 80.9161 53.4629 82.457 53.4629 84.3578C53.4629 86.2585 55.0037 87.7994 56.9045 87.7994Z" fill="#10A2E9"/>
<path d="M143.779 87.7994C145.68 87.7994 147.221 86.2585 147.221 84.3578C147.221 82.457 145.68 80.9161 143.779 80.9161C141.879 80.9161 140.338 82.457 140.338 84.3578C140.338 86.2585 141.879 87.7994 143.779 87.7994Z" fill="#10A2E9"/>
<path d="M157.145 87.7994C159.045 87.7994 160.586 86.2585 160.586 84.3578C160.586 82.457 159.045 80.9161 157.145 80.9161C155.244 80.9161 153.703 82.457 153.703 84.3578C153.703 86.2585 155.244 87.7994 157.145 87.7994Z" fill="#10A2E9"/>
<path d="M183.876 87.7994C185.777 87.7994 187.318 86.2585 187.318 84.3578C187.318 82.457 185.777 80.9161 183.876 80.9161C181.975 80.9161 180.435 82.457 180.435 84.3578C180.435 86.2585 181.975 87.7994 183.876 87.7994Z" fill="#10A2E9"/>
<path d="M190.56 87.7994C192.461 87.7994 194.001 86.2585 194.001 84.3578C194.001 82.457 192.461 80.9161 190.56 80.9161C188.659 80.9161 187.118 82.457 187.118 84.3578C187.118 86.2585 188.659 87.7994 190.56 87.7994Z" fill="#10A2E9"/>
<path d="M3.4416 94.4816C5.34235 94.4816 6.88321 92.9408 6.88321 91.04C6.88321 89.1393 5.34235 87.5984 3.4416 87.5984C1.54086 87.5984 0 89.1393 0 91.04C0 92.9408 1.54086 94.4816 3.4416 94.4816Z" fill="#10A2E9"/>
<path d="M16.8078 94.4816C18.7086 94.4816 20.2494 92.9408 20.2494 91.04C20.2494 89.1393 18.7086 87.5984 16.8078 87.5984C14.9071 87.5984 13.3662 89.1393 13.3662 91.04C13.3662 92.9408 14.9071 94.4816 16.8078 94.4816Z" fill="#10A2E9"/>
<path d="M23.4914 94.4816C25.3922 94.4816 26.933 92.9408 26.933 91.04C26.933 89.1393 25.3922 87.5984 23.4914 87.5984C21.5907 87.5984 20.0498 89.1393 20.0498 91.04C20.0498 92.9408 21.5907 94.4816 23.4914 94.4816Z" fill="#10A2E9"/>
<path d="M30.173 94.4816C32.0738 94.4816 33.6147 92.9408 33.6147 91.04C33.6147 89.1393 32.0738 87.5984 30.173 87.5984C28.2723 87.5984 26.7314 89.1393 26.7314 91.04C26.7314 92.9408 28.2723 94.4816 30.173 94.4816Z" fill="#10A2E9"/>
<path d="M50.2219 94.4816C52.1226 94.4816 53.6635 92.9408 53.6635 91.04C53.6635 89.1393 52.1226 87.5984 50.2219 87.5984C48.3211 87.5984 46.7803 89.1393 46.7803 91.04C46.7803 92.9408 48.3211 94.4816 50.2219 94.4816Z" fill="#10A2E9"/>
<path d="M56.9045 94.4816C58.8052 94.4816 60.3461 92.9408 60.3461 91.04C60.3461 89.1393 58.8052 87.5984 56.9045 87.5984C55.0037 87.5984 53.4629 89.1393 53.4629 91.04C53.4629 92.9408 55.0037 94.4816 56.9045 94.4816Z" fill="#10A2E9"/>
<path d="M130.414 94.4816C132.315 94.4816 133.856 92.9408 133.856 91.04C133.856 89.1393 132.315 87.5984 130.414 87.5984C128.514 87.5984 126.973 89.1393 126.973 91.04C126.973 92.9408 128.514 94.4816 130.414 94.4816Z" fill="#10A2E9"/>
<path d="M137.098 94.4816C138.999 94.4816 140.539 92.9408 140.539 91.04C140.539 89.1393 138.999 87.5984 137.098 87.5984C135.197 87.5984 133.656 89.1393 133.656 91.04C133.656 92.9408 135.197 94.4816 137.098 94.4816Z" fill="#10A2E9"/>
<path d="M143.779 94.4816C145.68 94.4816 147.221 92.9408 147.221 91.04C147.221 89.1393 145.68 87.5984 143.779 87.5984C141.879 87.5984 140.338 89.1393 140.338 91.04C140.338 92.9408 141.879 94.4816 143.779 94.4816Z" fill="#10A2E9"/>
<path d="M150.462 94.4816C152.363 94.4816 153.904 92.9408 153.904 91.04C153.904 89.1393 152.363 87.5984 150.462 87.5984C148.561 87.5984 147.021 89.1393 147.021 91.04C147.021 92.9408 148.561 94.4816 150.462 94.4816Z" fill="#10A2E9"/>
<path d="M163.828 94.4816C165.729 94.4816 167.27 92.9408 167.27 91.04C167.27 89.1393 165.729 87.5984 163.828 87.5984C161.928 87.5984 160.387 89.1393 160.387 91.04C160.387 92.9408 161.928 94.4816 163.828 94.4816Z" fill="#10A2E9"/>
<path d="M170.511 94.4816C172.412 94.4816 173.953 92.9408 173.953 91.04C173.953 89.1393 172.412 87.5984 170.511 87.5984C168.61 87.5984 167.069 89.1393 167.069 91.04C167.069 92.9408 168.61 94.4816 170.511 94.4816Z" fill="#10A2E9"/>
<path d="M183.876 94.4816C185.777 94.4816 187.318 92.9408 187.318 91.04C187.318 89.1393 185.777 87.5984 183.876 87.5984C181.975 87.5984 180.435 89.1393 180.435 91.04C180.435 92.9408 181.975 94.4816 183.876 94.4816Z" fill="#10A2E9"/>
<path d="M190.56 94.4816C192.461 94.4816 194.001 92.9408 194.001 91.04C194.001 89.1393 192.461 87.5984 190.56 87.5984C188.659 87.5984 187.118 89.1393 187.118 91.04C187.118 92.9408 188.659 94.4816 190.56 94.4816Z" fill="#10A2E9"/>
<path d="M30.173 101.166C32.0738 101.166 33.6147 99.6249 33.6147 97.7241C33.6147 95.8233 32.0738 94.2825 30.173 94.2825C28.2723 94.2825 26.7314 95.8233 26.7314 97.7241C26.7314 99.6249 28.2723 101.166 30.173 101.166Z" fill="#10A2E9"/>
<path d="M43.5383 101.166C45.439 101.166 46.9799 99.6249 46.9799 97.7241C46.9799 95.8233 45.439 94.2825 43.5383 94.2825C41.6375 94.2825 40.0967 95.8233 40.0967 97.7241C40.0967 99.6249 41.6375 101.166 43.5383 101.166Z" fill="#10A2E9"/>
<path d="M50.2219 101.166C52.1226 101.166 53.6635 99.6249 53.6635 97.7241C53.6635 95.8233 52.1226 94.2825 50.2219 94.2825C48.3211 94.2825 46.7803 95.8233 46.7803 97.7241C46.7803 99.6249 48.3211 101.166 50.2219 101.166Z" fill="#10A2E9"/>
<path d="M56.9045 101.166C58.8052 101.166 60.3461 99.6249 60.3461 97.7241C60.3461 95.8233 58.8052 94.2825 56.9045 94.2825C55.0037 94.2825 53.4629 95.8233 53.4629 97.7241C53.4629 99.6249 55.0037 101.166 56.9045 101.166Z" fill="#10A2E9"/>
<path d="M137.098 101.166C138.999 101.166 140.539 99.6249 140.539 97.7241C140.539 95.8233 138.999 94.2825 137.098 94.2825C135.197 94.2825 133.656 95.8233 133.656 97.7241C133.656 99.6249 135.197 101.166 137.098 101.166Z" fill="#10A2E9"/>
<path d="M157.145 101.166C159.045 101.166 160.586 99.6249 160.586 97.7241C160.586 95.8233 159.045 94.2825 157.145 94.2825C155.244 94.2825 153.703 95.8233 153.703 97.7241C153.703 99.6249 155.244 101.166 157.145 101.166Z" fill="#10A2E9"/>
<path d="M183.876 101.166C185.777 101.166 187.318 99.6249 187.318 97.7241C187.318 95.8233 185.777 94.2825 183.876 94.2825C181.975 94.2825 180.435 95.8233 180.435 97.7241C180.435 99.6249 181.975 101.166 183.876 101.166Z" fill="#10A2E9"/>
<path d="M3.4416 107.848C5.34235 107.848 6.88321 106.307 6.88321 104.406C6.88321 102.506 5.34235 100.965 3.4416 100.965C1.54086 100.965 0 102.506 0 104.406C0 106.307 1.54086 107.848 3.4416 107.848Z" fill="#10A2E9"/>
<path d="M10.1252 107.848C12.0259 107.848 13.5668 106.307 13.5668 104.406C13.5668 102.506 12.0259 100.965 10.1252 100.965C8.22445 100.965 6.68359 102.506 6.68359 104.406C6.68359 106.307 8.22445 107.848 10.1252 107.848Z" fill="#10A2E9"/>
<path d="M23.4914 107.848C25.3922 107.848 26.933 106.307 26.933 104.406C26.933 102.506 25.3922 100.965 23.4914 100.965C21.5907 100.965 20.0498 102.506 20.0498 104.406C20.0498 106.307 21.5907 107.848 23.4914 107.848Z" fill="#10A2E9"/>
<path d="M130.414 107.848C132.315 107.848 133.856 106.307 133.856 104.406C133.856 102.506 132.315 100.965 130.414 100.965C128.514 100.965 126.973 102.506 126.973 104.406C126.973 106.307 128.514 107.848 130.414 107.848Z" fill="#10A2E9"/>
<path d="M137.098 107.848C138.999 107.848 140.539 106.307 140.539 104.406C140.539 102.506 138.999 100.965 137.098 100.965C135.197 100.965 133.656 102.506 133.656 104.406C133.656 106.307 135.197 107.848 137.098 107.848Z" fill="#10A2E9"/>
<path d="M150.462 107.848C152.363 107.848 153.904 106.307 153.904 104.406C153.904 102.506 152.363 100.965 150.462 100.965C148.561 100.965 147.021 102.506 147.021 104.406C147.021 106.307 148.561 107.848 150.462 107.848Z" fill="#10A2E9"/>
<path d="M163.828 107.848C165.729 107.848 167.27 106.307 167.27 104.406C167.27 102.506 165.729 100.965 163.828 100.965C161.928 100.965 160.387 102.506 160.387 104.406C160.387 106.307 161.928 107.848 163.828 107.848Z" fill="#10A2E9"/>
<path d="M170.511 107.848C172.412 107.848 173.953 106.307 173.953 104.406C173.953 102.506 172.412 100.965 170.511 100.965C168.61 100.965 167.069 102.506 167.069 104.406C167.069 106.307 168.61 107.848 170.511 107.848Z" fill="#10A2E9"/>
<path d="M3.4416 114.532C5.34235 114.532 6.88321 112.991 6.88321 111.091C6.88321 109.19 5.34235 107.649 3.4416 107.649C1.54086 107.649 0 109.19 0 111.091C0 112.991 1.54086 114.532 3.4416 114.532Z" fill="#10A2E9"/>
<path d="M10.1252 114.532C12.0259 114.532 13.5668 112.991 13.5668 111.091C13.5668 109.19 12.0259 107.649 10.1252 107.649C8.22445 107.649 6.68359 109.19 6.68359 111.091C6.68359 112.991 8.22445 114.532 10.1252 114.532Z" fill="#10A2E9"/>
<path d="M16.8078 114.532C18.7086 114.532 20.2494 112.991 20.2494 111.091C20.2494 109.19 18.7086 107.649 16.8078 107.649C14.9071 107.649 13.3662 109.19 13.3662 111.091C13.3662 112.991 14.9071 114.532 16.8078 114.532Z" fill="#10A2E9"/>
<path d="M30.173 114.532C32.0738 114.532 33.6147 112.991 33.6147 111.091C33.6147 109.19 32.0738 107.649 30.173 107.649C28.2723 107.649 26.7314 109.19 26.7314 111.091C26.7314 112.991 28.2723 114.532 30.173 114.532Z" fill="#10A2E9"/>
<path d="M36.8557 114.532C38.7564 114.532 40.2973 112.991 40.2973 111.091C40.2973 109.19 38.7564 107.649 36.8557 107.649C34.9549 107.649 33.4141 109.19 33.4141 111.091C33.4141 112.991 34.9549 114.532 36.8557 114.532Z" fill="#10A2E9"/>
<path d="M43.5383 114.532C45.439 114.532 46.9799 112.991 46.9799 111.091C46.9799 109.19 45.439 107.649 43.5383 107.649C41.6375 107.649 40.0967 109.19 40.0967 111.091C40.0967 112.991 41.6375 114.532 43.5383 114.532Z" fill="#10A2E9"/>
<path d="M50.2219 114.532C52.1226 114.532 53.6635 112.991 53.6635 111.091C53.6635 109.19 52.1226 107.649 50.2219 107.649C48.3211 107.649 46.7803 109.19 46.7803 111.091C46.7803 112.991 48.3211 114.532 50.2219 114.532Z" fill="#10A2E9"/>
<path d="M56.9045 114.532C58.8052 114.532 60.3461 112.991 60.3461 111.091C60.3461 109.19 58.8052 107.649 56.9045 107.649C55.0037 107.649 53.4629 109.19 53.4629 111.091C53.4629 112.991 55.0037 114.532 56.9045 114.532Z" fill="#10A2E9"/>
<path d="M63.5871 114.532C65.4879 114.532 67.0287 112.991 67.0287 111.091C67.0287 109.19 65.4879 107.649 63.5871 107.649C61.6864 107.649 60.1455 109.19 60.1455 111.091C60.1455 112.991 61.6864 114.532 63.5871 114.532Z" fill="#10A2E9"/>
<path d="M170.511 114.532C172.412 114.532 173.953 112.991 173.953 111.091C173.953 109.19 172.412 107.649 170.511 107.649C168.61 107.649 167.069 109.19 167.069 111.091C167.069 112.991 168.61 114.532 170.511 114.532Z" fill="#10A2E9"/>
<path d="M177.194 114.532C179.094 114.532 180.635 112.991 180.635 111.091C180.635 109.19 179.094 107.649 177.194 107.649C175.293 107.649 173.752 109.19 173.752 111.091C173.752 112.991 175.293 114.532 177.194 114.532Z" fill="#10A2E9"/>
<path d="M3.4416 121.214C5.34235 121.214 6.88321 119.673 6.88321 117.773C6.88321 115.872 5.34235 114.331 3.4416 114.331C1.54086 114.331 0 115.872 0 117.773C0 119.673 1.54086 121.214 3.4416 121.214Z" fill="#10A2E9"/>
<path d="M10.1252 121.214C12.0259 121.214 13.5668 119.673 13.5668 117.773C13.5668 115.872 12.0259 114.331 10.1252 114.331C8.22445 114.331 6.68359 115.872 6.68359 117.773C6.68359 119.673 8.22445 121.214 10.1252 121.214Z" fill="#10A2E9"/>
<path d="M23.4914 121.214C25.3922 121.214 26.933 119.673 26.933 117.773C26.933 115.872 25.3922 114.331 23.4914 114.331C21.5907 114.331 20.0498 115.872 20.0498 117.773C20.0498 119.673 21.5907 121.214 23.4914 121.214Z" fill="#10A2E9"/>
<path d="M30.173 121.214C32.0738 121.214 33.6147 119.673 33.6147 117.773C33.6147 115.872 32.0738 114.331 30.173 114.331C28.2723 114.331 26.7314 115.872 26.7314 117.773C26.7314 119.673 28.2723 121.214 30.173 121.214Z" fill="#10A2E9"/>
<path d="M63.5871 121.214C65.4879 121.214 67.0287 119.673 67.0287 117.773C67.0287 115.872 65.4879 114.331 63.5871 114.331C61.6864 114.331 60.1455 115.872 60.1455 117.773C60.1455 119.673 61.6864 121.214 63.5871 121.214Z" fill="#10A2E9"/>
<path d="M137.098 121.214C138.999 121.214 140.539 119.673 140.539 117.773C140.539 115.872 138.999 114.331 137.098 114.331C135.197 114.331 133.656 115.872 133.656 117.773C133.656 119.673 135.197 121.214 137.098 121.214Z" fill="#10A2E9"/>
<path d="M150.462 121.214C152.363 121.214 153.904 119.673 153.904 117.773C153.904 115.872 152.363 114.331 150.462 114.331C148.561 114.331 147.021 115.872 147.021 117.773C147.021 119.673 148.561 121.214 150.462 121.214Z" fill="#10A2E9"/>
<path d="M157.145 121.214C159.045 121.214 160.586 119.673 160.586 117.773C160.586 115.872 159.045 114.331 157.145 114.331C155.244 114.331 153.703 115.872 153.703 117.773C153.703 119.673 155.244 121.214 157.145 121.214Z" fill="#10A2E9"/>
<path d="M170.511 121.214C172.412 121.214 173.953 119.673 173.953 117.773C173.953 115.872 172.412 114.331 170.511 114.331C168.61 114.331 167.069 115.872 167.069 117.773C167.069 119.673 168.61 121.214 170.511 121.214Z" fill="#10A2E9"/>
<path d="M177.194 121.214C179.094 121.214 180.635 119.673 180.635 117.773C180.635 115.872 179.094 114.331 177.194 114.331C175.293 114.331 173.752 115.872 173.752 117.773C173.752 119.673 175.293 121.214 177.194 121.214Z" fill="#10A2E9"/>
<path d="M183.876 121.214C185.777 121.214 187.318 119.673 187.318 117.773C187.318 115.872 185.777 114.331 183.876 114.331C181.975 114.331 180.435 115.872 180.435 117.773C180.435 119.673 181.975 121.214 183.876 121.214Z" fill="#10A2E9"/>
<path d="M190.559 121.214C192.46 121.214 194 119.673 194 117.773C194 115.872 192.46 114.331 190.559 114.331C188.658 114.331 187.117 115.872 187.117 117.773C187.117 119.673 188.658 121.214 190.559 121.214Z" fill="#10A2E9"/>
<path d="M3.4416 127.897C5.34235 127.897 6.88321 126.356 6.88321 124.455C6.88321 122.554 5.34235 121.013 3.4416 121.013C1.54086 121.013 0 122.554 0 124.455C0 126.356 1.54086 127.897 3.4416 127.897Z" fill="#10A2E9"/>
<path d="M16.8078 127.897C18.7086 127.897 20.2494 126.356 20.2494 124.455C20.2494 122.554 18.7086 121.013 16.8078 121.013C14.9071 121.013 13.3662 122.554 13.3662 124.455C13.3662 126.356 14.9071 127.897 16.8078 127.897Z" fill="#10A2E9"/>
<path d="M23.4914 127.897C25.3922 127.897 26.933 126.356 26.933 124.455C26.933 122.554 25.3922 121.013 23.4914 121.013C21.5907 121.013 20.0498 122.554 20.0498 124.455C20.0498 126.356 21.5907 127.897 23.4914 127.897Z" fill="#10A2E9"/>
<path d="M36.8557 127.897C38.7564 127.897 40.2973 126.356 40.2973 124.455C40.2973 122.554 38.7564 121.013 36.8557 121.013C34.9549 121.013 33.4141 122.554 33.4141 124.455C33.4141 126.356 34.9549 127.897 36.8557 127.897Z" fill="#10A2E9"/>
<path d="M43.5383 127.897C45.439 127.897 46.9799 126.356 46.9799 124.455C46.9799 122.554 45.439 121.013 43.5383 121.013C41.6375 121.013 40.0967 122.554 40.0967 124.455C40.0967 126.356 41.6375 127.897 43.5383 127.897Z" fill="#10A2E9"/>
<path d="M50.2219 127.897C52.1226 127.897 53.6635 126.356 53.6635 124.455C53.6635 122.554 52.1226 121.013 50.2219 121.013C48.3211 121.013 46.7803 122.554 46.7803 124.455C46.7803 126.356 48.3211 127.897 50.2219 127.897Z" fill="#10A2E9"/>
<path d="M63.5871 127.897C65.4879 127.897 67.0287 126.356 67.0287 124.455C67.0287 122.554 65.4879 121.013 63.5871 121.013C61.6864 121.013 60.1455 122.554 60.1455 124.455C60.1455 126.356 61.6864 127.897 63.5871 127.897Z" fill="#10A2E9"/>
<path d="M137.098 127.897C138.999 127.897 140.539 126.356 140.539 124.455C140.539 122.554 138.999 121.013 137.098 121.013C135.197 121.013 133.656 122.554 133.656 124.455C133.656 126.356 135.197 127.897 137.098 127.897Z" fill="#10A2E9"/>
<path d="M150.462 127.897C152.363 127.897 153.904 126.356 153.904 124.455C153.904 122.554 152.363 121.013 150.462 121.013C148.561 121.013 147.021 122.554 147.021 124.455C147.021 126.356 148.561 127.897 150.462 127.897Z" fill="#10A2E9"/>
<path d="M157.145 127.897C159.045 127.897 160.586 126.356 160.586 124.455C160.586 122.554 159.045 121.013 157.145 121.013C155.244 121.013 153.703 122.554 153.703 124.455C153.703 126.356 155.244 127.897 157.145 127.897Z" fill="#10A2E9"/>
<path d="M163.828 127.897C165.729 127.897 167.27 126.356 167.27 124.455C167.27 122.554 165.729 121.013 163.828 121.013C161.928 121.013 160.387 122.554 160.387 124.455C160.387 126.356 161.928 127.897 163.828 127.897Z" fill="#10A2E9"/>
<path d="M170.511 127.897C172.412 127.897 173.953 126.356 173.953 124.455C173.953 122.554 172.412 121.013 170.511 121.013C168.61 121.013 167.069 122.554 167.069 124.455C167.069 126.356 168.61 127.897 170.511 127.897Z" fill="#10A2E9"/>
<path d="M3.4416 134.581C5.34235 134.581 6.88321 133.04 6.88321 131.139C6.88321 129.238 5.34235 127.698 3.4416 127.698C1.54086 127.698 0 129.238 0 131.139C0 133.04 1.54086 134.581 3.4416 134.581Z" fill="#10A2E9"/>
<path d="M30.173 134.581C32.0738 134.581 33.6147 133.04 33.6147 131.139C33.6147 129.238 32.0738 127.698 30.173 127.698C28.2723 127.698 26.7314 129.238 26.7314 131.139C26.7314 133.04 28.2723 134.581 30.173 134.581Z" fill="#10A2E9"/>
<path d="M50.2219 134.581C52.1226 134.581 53.6635 133.04 53.6635 131.139C53.6635 129.238 52.1226 127.698 50.2219 127.698C48.3211 127.698 46.7803 129.238 46.7803 131.139C46.7803 133.04 48.3211 134.581 50.2219 134.581Z" fill="#10A2E9"/>
<path d="M63.5871 134.581C65.4879 134.581 67.0287 133.04 67.0287 131.139C67.0287 129.238 65.4879 127.698 63.5871 127.698C61.6864 127.698 60.1455 129.238 60.1455 131.139C60.1455 133.04 61.6864 134.581 63.5871 134.581Z" fill="#10A2E9"/>
<path d="M70.2697 134.581C72.1705 134.581 73.7113 133.04 73.7113 131.139C73.7113 129.238 72.1705 127.698 70.2697 127.698C68.369 127.698 66.8281 129.238 66.8281 131.139C66.8281 133.04 68.369 134.581 70.2697 134.581Z" fill="#10A2E9"/>
<path d="M83.6359 134.581C85.5367 134.581 87.0775 133.04 87.0775 131.139C87.0775 129.238 85.5367 127.698 83.6359 127.698C81.7352 127.698 80.1943 129.238 80.1943 131.139C80.1943 133.04 81.7352 134.581 83.6359 134.581Z" fill="#10A2E9"/>
<path d="M103.683 134.581C105.584 134.581 107.124 133.04 107.124 131.139C107.124 129.238 105.584 127.698 103.683 127.698C101.782 127.698 100.241 129.238 100.241 131.139C100.241 133.04 101.782 134.581 103.683 134.581Z" fill="#10A2E9"/>
<path d="M110.366 134.581C112.267 134.581 113.808 133.04 113.808 131.139C113.808 129.238 112.267 127.698 110.366 127.698C108.466 127.698 106.925 129.238 106.925 131.139C106.925 133.04 108.466 134.581 110.366 134.581Z" fill="#10A2E9"/>
<path d="M123.732 134.581C125.632 134.581 127.173 133.04 127.173 131.139C127.173 129.238 125.632 127.698 123.732 127.698C121.831 127.698 120.29 129.238 120.29 131.139C120.29 133.04 121.831 134.581 123.732 134.581Z" fill="#10A2E9"/>
<path d="M130.414 134.581C132.315 134.581 133.856 133.04 133.856 131.139C133.856 129.238 132.315 127.698 130.414 127.698C128.514 127.698 126.973 129.238 126.973 131.139C126.973 133.04 128.514 134.581 130.414 134.581Z" fill="#10A2E9"/>
<path d="M150.462 134.579C152.363 134.579 153.904 133.038 153.904 131.138C153.904 129.237 152.363 127.696 150.462 127.696C148.561 127.696 147.021 129.237 147.021 131.138C147.021 133.038 148.561 134.579 150.462 134.579Z" fill="#10A2E9"/>
<path d="M157.145 134.581C159.045 134.581 160.586 133.04 160.586 131.139C160.586 129.238 159.045 127.698 157.145 127.698C155.244 127.698 153.703 129.238 153.703 131.139C153.703 133.04 155.244 134.581 157.145 134.581Z" fill="#10A2E9"/>
<path d="M163.828 134.581C165.729 134.581 167.27 133.04 167.27 131.139C167.27 129.238 165.729 127.698 163.828 127.698C161.928 127.698 160.387 129.238 160.387 131.139C160.387 133.04 161.928 134.581 163.828 134.581Z" fill="#10A2E9"/>
<path d="M170.511 134.581C172.412 134.581 173.953 133.04 173.953 131.139C173.953 129.238 172.412 127.698 170.511 127.698C168.61 127.698 167.069 129.238 167.069 131.139C167.069 133.04 168.61 134.581 170.511 134.581Z" fill="#10A2E9"/>
<path d="M3.4416 141.263C5.34235 141.263 6.88321 139.722 6.88321 137.821C6.88321 135.921 5.34235 134.38 3.4416 134.38C1.54086 134.38 0 135.921 0 137.821C0 139.722 1.54086 141.263 3.4416 141.263Z" fill="#10A2E9"/>
<path d="M16.8078 141.263C18.7086 141.263 20.2494 139.722 20.2494 137.821C20.2494 135.921 18.7086 134.38 16.8078 134.38C14.9071 134.38 13.3662 135.921 13.3662 137.821C13.3662 139.722 14.9071 141.263 16.8078 141.263Z" fill="#10A2E9"/>
<path d="M23.4914 141.263C25.3922 141.263 26.933 139.722 26.933 137.821C26.933 135.921 25.3922 134.38 23.4914 134.38C21.5907 134.38 20.0498 135.921 20.0498 137.821C20.0498 139.722 21.5907 141.263 23.4914 141.263Z" fill="#10A2E9"/>
<path d="M36.8557 141.263C38.7564 141.263 40.2973 139.722 40.2973 137.822C40.2973 135.921 38.7564 134.38 36.8557 134.38C34.9549 134.38 33.4141 135.921 33.4141 137.822C33.4141 139.722 34.9549 141.263 36.8557 141.263Z" fill="#10A2E9"/>
<path d="M43.5383 141.263C45.439 141.263 46.9799 139.722 46.9799 137.822C46.9799 135.921 45.439 134.38 43.5383 134.38C41.6375 134.38 40.0967 135.921 40.0967 137.822C40.0967 139.722 41.6375 141.263 43.5383 141.263Z" fill="#10A2E9"/>
<path d="M56.9045 141.263C58.8052 141.263 60.3461 139.722 60.3461 137.821C60.3461 135.921 58.8052 134.38 56.9045 134.38C55.0037 134.38 53.4629 135.921 53.4629 137.821C53.4629 139.722 55.0037 141.263 56.9045 141.263Z" fill="#10A2E9"/>
<path d="M70.2697 141.263C72.1705 141.263 73.7113 139.722 73.7113 137.821C73.7113 135.921 72.1705 134.38 70.2697 134.38C68.369 134.38 66.8281 135.921 66.8281 137.821C66.8281 139.722 68.369 141.263 70.2697 141.263Z" fill="#10A2E9"/>
<path d="M83.6359 141.263C85.5367 141.263 87.0775 139.722 87.0775 137.821C87.0775 135.921 85.5367 134.38 83.6359 134.38C81.7352 134.38 80.1943 135.921 80.1943 137.821C80.1943 139.722 81.7352 141.263 83.6359 141.263Z" fill="#10A2E9"/>
<path d="M123.732 141.263C125.632 141.263 127.173 139.722 127.173 137.821C127.173 135.921 125.632 134.38 123.732 134.38C121.831 134.38 120.29 135.921 120.29 137.821C120.29 139.722 121.831 141.263 123.732 141.263Z" fill="#10A2E9"/>
<path d="M137.098 141.263C138.999 141.263 140.539 139.722 140.539 137.821C140.539 135.921 138.999 134.38 137.098 134.38C135.197 134.38 133.656 135.921 133.656 137.821C133.656 139.722 135.197 141.263 137.098 141.263Z" fill="#10A2E9"/>
<path d="M143.779 141.263C145.68 141.263 147.221 139.722 147.221 137.822C147.221 135.921 145.68 134.38 143.779 134.38C141.879 134.38 140.338 135.921 140.338 137.822C140.338 139.722 141.879 141.263 143.779 141.263Z" fill="#10A2E9"/>
<path d="M150.462 141.263C152.363 141.263 153.904 139.722 153.904 137.822C153.904 135.921 152.363 134.38 150.462 134.38C148.561 134.38 147.021 135.921 147.021 137.822C147.021 139.722 148.561 141.263 150.462 141.263Z" fill="#10A2E9"/>
<path d="M157.145 141.263C159.045 141.263 160.586 139.722 160.586 137.821C160.586 135.921 159.045 134.38 157.145 134.38C155.244 134.38 153.703 135.921 153.703 137.821C153.703 139.722 155.244 141.263 157.145 141.263Z" fill="#10A2E9"/>
<path d="M163.828 141.263C165.729 141.263 167.27 139.722 167.27 137.821C167.27 135.921 165.729 134.38 163.828 134.38C161.928 134.38 160.387 135.921 160.387 137.821C160.387 139.722 161.928 141.263 163.828 141.263Z" fill="#10A2E9"/>
<path d="M177.194 141.263C179.094 141.263 180.635 139.722 180.635 137.821C180.635 135.921 179.094 134.38 177.194 134.38C175.293 134.38 173.752 135.921 173.752 137.821C173.752 139.722 175.293 141.263 177.194 141.263Z" fill="#10A2E9"/>
<path d="M190.559 141.263C192.46 141.263 194 139.722 194 137.821C194 135.921 192.46 134.38 190.559 134.38C188.658 134.38 187.117 135.921 187.117 137.821C187.117 139.722 188.658 141.263 190.559 141.263Z" fill="#10A2E9"/>
<path d="M56.9045 147.945C58.8052 147.945 60.3461 146.404 60.3461 144.503C60.3461 142.603 58.8052 141.062 56.9045 141.062C55.0037 141.062 53.4629 142.603 53.4629 144.503C53.4629 146.404 55.0037 147.945 56.9045 147.945Z" fill="#10A2E9"/>
<path d="M70.2697 147.945C72.1705 147.945 73.7113 146.404 73.7113 144.503C73.7113 142.603 72.1705 141.062 70.2697 141.062C68.369 141.062 66.8281 142.603 66.8281 144.503C66.8281 146.404 68.369 147.945 70.2697 147.945Z" fill="#10A2E9"/>
<path d="M76.9533 147.945C78.8541 147.945 80.3949 146.404 80.3949 144.503C80.3949 142.603 78.8541 141.062 76.9533 141.062C75.0526 141.062 73.5117 142.603 73.5117 144.503C73.5117 146.404 75.0526 147.945 76.9533 147.945Z" fill="#10A2E9"/>
<path d="M83.6359 147.945C85.5367 147.945 87.0775 146.404 87.0775 144.503C87.0775 142.603 85.5367 141.062 83.6359 141.062C81.7352 141.062 80.1943 142.603 80.1943 144.503C80.1943 146.404 81.7352 147.945 83.6359 147.945Z" fill="#10A2E9"/>
<path d="M90.3176 147.945C92.2183 147.945 93.7592 146.404 93.7592 144.503C93.7592 142.603 92.2183 141.062 90.3176 141.062C88.4168 141.062 86.876 142.603 86.876 144.503C86.876 146.404 88.4168 147.945 90.3176 147.945Z" fill="#10A2E9"/>
<path d="M97.0002 147.945C98.9009 147.945 100.442 146.404 100.442 144.503C100.442 142.603 98.9009 141.062 97.0002 141.062C95.0995 141.062 93.5586 142.603 93.5586 144.503C93.5586 146.404 95.0995 147.945 97.0002 147.945Z" fill="#10A2E9"/>
<path d="M117.048 147.945C118.949 147.945 120.49 146.404 120.49 144.503C120.49 142.603 118.949 141.062 117.048 141.062C115.147 141.062 113.606 142.603 113.606 144.503C113.606 146.404 115.147 147.945 117.048 147.945Z" fill="#10A2E9"/>
<path d="M123.732 147.945C125.632 147.945 127.173 146.404 127.173 144.503C127.173 142.603 125.632 141.062 123.732 141.062C121.831 141.062 120.29 142.603 120.29 144.503C120.29 146.404 121.831 147.945 123.732 147.945Z" fill="#10A2E9"/>
<path d="M130.414 147.945C132.315 147.945 133.856 146.404 133.856 144.503C133.856 142.603 132.315 141.062 130.414 141.062C128.514 141.062 126.973 142.603 126.973 144.503C126.973 146.404 128.514 147.945 130.414 147.945Z" fill="#10A2E9"/>
<path d="M137.098 147.945C138.999 147.945 140.539 146.404 140.539 144.503C140.539 142.603 138.999 141.062 137.098 141.062C135.197 141.062 133.656 142.603 133.656 144.503C133.656 146.404 135.197 147.945 137.098 147.945Z" fill="#10A2E9"/>
<path d="M163.828 147.945C165.729 147.945 167.27 146.404 167.27 144.503C167.27 142.603 165.729 141.062 163.828 141.062C161.928 141.062 160.387 142.603 160.387 144.503C160.387 146.404 161.928 147.945 163.828 147.945Z" fill="#10A2E9"/>
<path d="M170.511 147.945C172.412 147.945 173.953 146.404 173.953 144.503C173.953 142.603 172.412 141.062 170.511 141.062C168.61 141.062 167.069 142.603 167.069 144.503C167.069 146.404 168.61 147.945 170.511 147.945Z" fill="#10A2E9"/>
<path d="M183.876 147.945C185.777 147.945 187.318 146.404 187.318 144.503C187.318 142.603 185.777 141.062 183.876 141.062C181.975 141.062 180.435 142.603 180.435 144.503C180.435 146.404 181.975 147.945 183.876 147.945Z" fill="#10A2E9"/>
<path d="M190.56 147.945C192.461 147.945 194.001 146.404 194.001 144.503C194.001 142.603 192.461 141.062 190.56 141.062C188.659 141.062 187.118 142.603 187.118 144.503C187.118 146.404 188.659 147.945 190.56 147.945Z" fill="#10A2E9"/>
<path d="M83.6359 154.629C85.5367 154.629 87.0775 153.088 87.0775 151.188C87.0775 149.287 85.5367 147.746 83.6359 147.746C81.7352 147.746 80.1943 149.287 80.1943 151.188C80.1943 153.088 81.7352 154.629 83.6359 154.629Z" fill="#10A2E9"/>
<path d="M90.3176 154.629C92.2183 154.629 93.7592 153.088 93.7592 151.187C93.7592 149.287 92.2183 147.746 90.3176 147.746C88.4168 147.746 86.876 149.287 86.876 151.187C86.876 153.088 88.4168 154.629 90.3176 154.629Z" fill="#10A2E9"/>
<path d="M130.414 154.629C132.315 154.629 133.856 153.088 133.856 151.188C133.856 149.287 132.315 147.746 130.414 147.746C128.514 147.746 126.973 149.287 126.973 151.188C126.973 153.088 128.514 154.629 130.414 154.629Z" fill="#10A2E9"/>
<path d="M137.098 154.629C138.999 154.629 140.539 153.088 140.539 151.188C140.539 149.287 138.999 147.746 137.098 147.746C135.197 147.746 133.656 149.287 133.656 151.188C133.656 153.088 135.197 154.629 137.098 154.629Z" fill="#10A2E9"/>
<path d="M150.462 154.629C152.363 154.629 153.904 153.088 153.904 151.187C153.904 149.287 152.363 147.746 150.462 147.746C148.561 147.746 147.021 149.287 147.021 151.187C147.021 153.088 148.561 154.629 150.462 154.629Z" fill="#10A2E9"/>
<path d="M163.828 154.629C165.729 154.629 167.27 153.088 167.27 151.188C167.27 149.287 165.729 147.746 163.828 147.746C161.928 147.746 160.387 149.287 160.387 151.188C160.387 153.088 161.928 154.629 163.828 154.629Z" fill="#10A2E9"/>
<path d="M63.5871 161.311C65.4879 161.311 67.0287 159.771 67.0287 157.87C67.0287 155.969 65.4879 154.428 63.5871 154.428C61.6864 154.428 60.1455 155.969 60.1455 157.87C60.1455 159.771 61.6864 161.311 63.5871 161.311Z" fill="#10A2E9"/>
<path d="M70.2697 161.312C72.1705 161.312 73.7113 159.771 73.7113 157.87C73.7113 155.969 72.1705 154.428 70.2697 154.428C68.369 154.428 66.8281 155.969 66.8281 157.87C66.8281 159.771 68.369 161.312 70.2697 161.312Z" fill="#10A2E9"/>
<path d="M76.9533 161.312C78.8541 161.312 80.3949 159.771 80.3949 157.87C80.3949 155.969 78.8541 154.428 76.9533 154.428C75.0526 154.428 73.5117 155.969 73.5117 157.87C73.5117 159.771 75.0526 161.312 76.9533 161.312Z" fill="#10A2E9"/>
<path d="M90.3166 161.311C92.2174 161.311 93.7582 159.771 93.7582 157.87C93.7582 155.969 92.2174 154.428 90.3166 154.428C88.4159 154.428 86.875 155.969 86.875 157.87C86.875 159.771 88.4159 161.311 90.3166 161.311Z" fill="#10A2E9"/>
<path d="M123.732 161.312C125.632 161.312 127.173 159.771 127.173 157.87C127.173 155.969 125.632 154.428 123.732 154.428C121.831 154.428 120.29 155.969 120.29 157.87C120.29 159.771 121.831 161.312 123.732 161.312Z" fill="#10A2E9"/>
<path d="M130.414 161.312C132.315 161.312 133.856 159.771 133.856 157.87C133.856 155.969 132.315 154.428 130.414 154.428C128.514 154.428 126.973 155.969 126.973 157.87C126.973 159.771 128.514 161.312 130.414 161.312Z" fill="#10A2E9"/>
<path d="M137.098 161.311C138.999 161.311 140.539 159.771 140.539 157.87C140.539 155.969 138.999 154.428 137.098 154.428C135.197 154.428 133.656 155.969 133.656 157.87C133.656 159.771 135.197 161.311 137.098 161.311Z" fill="#10A2E9"/>
<path d="M163.828 161.312C165.729 161.312 167.27 159.771 167.27 157.87C167.27 155.969 165.729 154.428 163.828 154.428C161.928 154.428 160.387 155.969 160.387 157.87C160.387 159.771 161.928 161.312 163.828 161.312Z" fill="#10A2E9"/>
<path d="M170.511 161.311C172.412 161.311 173.953 159.771 173.953 157.87C173.953 155.969 172.412 154.428 170.511 154.428C168.61 154.428 167.069 155.969 167.069 157.87C167.069 159.771 168.61 161.311 170.511 161.311Z" fill="#10A2E9"/>
<path d="M56.9045 167.994C58.8052 167.994 60.3461 166.453 60.3461 164.552C60.3461 162.651 58.8052 161.11 56.9045 161.11C55.0037 161.11 53.4629 162.651 53.4629 164.552C53.4629 166.453 55.0037 167.994 56.9045 167.994Z" fill="#10A2E9"/>
<path d="M63.5871 167.994C65.4879 167.994 67.0287 166.453 67.0287 164.552C67.0287 162.651 65.4879 161.11 63.5871 161.11C61.6864 161.11 60.1455 162.651 60.1455 164.552C60.1455 166.453 61.6864 167.994 63.5871 167.994Z" fill="#10A2E9"/>
<path d="M70.2697 167.994C72.1705 167.994 73.7113 166.453 73.7113 164.552C73.7113 162.651 72.1705 161.11 70.2697 161.11C68.369 161.11 66.8281 162.651 66.8281 164.552C66.8281 166.453 68.369 167.994 70.2697 167.994Z" fill="#10A2E9"/>
<path d="M97.0002 167.994C98.9009 167.994 100.442 166.453 100.442 164.552C100.442 162.651 98.9009 161.11 97.0002 161.11C95.0995 161.11 93.5586 162.651 93.5586 164.552C93.5586 166.453 95.0995 167.994 97.0002 167.994Z" fill="#10A2E9"/>
<path d="M103.683 167.994C105.584 167.994 107.124 166.453 107.124 164.552C107.124 162.651 105.584 161.11 103.683 161.11C101.782 161.11 100.241 162.651 100.241 164.552C100.241 166.453 101.782 167.994 103.683 167.994Z" fill="#10A2E9"/>
<path d="M117.048 167.994C118.949 167.994 120.49 166.453 120.49 164.552C120.49 162.651 118.949 161.11 117.048 161.11C115.147 161.11 113.606 162.651 113.606 164.552C113.606 166.453 115.147 167.994 117.048 167.994Z" fill="#10A2E9"/>
<path d="M137.098 167.994C138.999 167.994 140.539 166.453 140.539 164.552C140.539 162.651 138.999 161.11 137.098 161.11C135.197 161.11 133.656 162.651 133.656 164.552C133.656 166.453 135.197 167.994 137.098 167.994Z" fill="#10A2E9"/>
<path d="M143.779 167.994C145.68 167.994 147.221 166.453 147.221 164.552C147.221 162.651 145.68 161.11 143.779 161.11C141.879 161.11 140.338 162.651 140.338 164.552C140.338 166.453 141.879 167.994 143.779 167.994Z" fill="#10A2E9"/>
<path d="M150.462 167.994C152.363 167.994 153.904 166.453 153.904 164.552C153.904 162.651 152.363 161.11 150.462 161.11C148.561 161.11 147.021 162.651 147.021 164.552C147.021 166.453 148.561 167.994 150.462 167.994Z" fill="#10A2E9"/>
<path d="M157.145 167.994C159.045 167.994 160.586 166.453 160.586 164.552C160.586 162.651 159.045 161.11 157.145 161.11C155.244 161.11 153.703 162.651 153.703 164.552C153.703 166.453 155.244 167.994 157.145 167.994Z" fill="#10A2E9"/>
<path d="M163.828 167.994C165.729 167.994 167.27 166.453 167.27 164.552C167.27 162.651 165.729 161.11 163.828 161.11C161.928 161.11 160.387 162.651 160.387 164.552C160.387 166.453 161.928 167.994 163.828 167.994Z" fill="#10A2E9"/>
<path d="M170.511 167.994C172.412 167.994 173.953 166.453 173.953 164.552C173.953 162.651 172.412 161.11 170.511 161.11C168.61 161.11 167.069 162.651 167.069 164.552C167.069 166.453 168.61 167.994 170.511 167.994Z" fill="#10A2E9"/>
<path d="M177.194 167.994C179.094 167.994 180.635 166.453 180.635 164.552C180.635 162.651 179.094 161.11 177.194 161.11C175.293 161.11 173.752 162.651 173.752 164.552C173.752 166.453 175.293 167.994 177.194 167.994Z" fill="#10A2E9"/>
<path d="M190.56 167.994C192.461 167.994 194.001 166.453 194.001 164.552C194.001 162.651 192.461 161.11 190.56 161.11C188.659 161.11 187.118 162.651 187.118 164.552C187.118 166.453 188.659 167.994 190.56 167.994Z" fill="#10A2E9"/>
<path d="M56.9045 174.675C58.8052 174.675 60.3461 173.134 60.3461 171.234C60.3461 169.333 58.8052 167.792 56.9045 167.792C55.0037 167.792 53.4629 169.333 53.4629 171.234C53.4629 173.134 55.0037 174.675 56.9045 174.675Z" fill="#10A2E9"/>
<path d="M63.5871 174.675C65.4879 174.675 67.0287 173.134 67.0287 171.234C67.0287 169.333 65.4879 167.792 63.5871 167.792C61.6864 167.792 60.1455 169.333 60.1455 171.234C60.1455 173.134 61.6864 174.675 63.5871 174.675Z" fill="#10A2E9"/>
<path d="M70.2697 174.675C72.1705 174.675 73.7113 173.134 73.7113 171.233C73.7113 169.333 72.1705 167.792 70.2697 167.792C68.369 167.792 66.8281 169.333 66.8281 171.233C66.8281 173.134 68.369 174.675 70.2697 174.675Z" fill="#10A2E9"/>
<path d="M76.9533 174.675C78.8541 174.675 80.3949 173.134 80.3949 171.233C80.3949 169.333 78.8541 167.792 76.9533 167.792C75.0526 167.792 73.5117 169.333 73.5117 171.233C73.5117 173.134 75.0526 174.675 76.9533 174.675Z" fill="#10A2E9"/>
<path d="M83.6359 174.675C85.5367 174.675 87.0775 173.134 87.0775 171.234C87.0775 169.333 85.5367 167.792 83.6359 167.792C81.7352 167.792 80.1943 169.333 80.1943 171.234C80.1943 173.134 81.7352 174.675 83.6359 174.675Z" fill="#10A2E9"/>
<path d="M90.3166 174.675C92.2174 174.675 93.7582 173.134 93.7582 171.234C93.7582 169.333 92.2174 167.792 90.3166 167.792C88.4159 167.792 86.875 169.333 86.875 171.234C86.875 173.134 88.4159 174.675 90.3166 174.675Z" fill="#10A2E9"/>
<path d="M97.0002 174.675C98.9009 174.675 100.442 173.134 100.442 171.233C100.442 169.333 98.9009 167.792 97.0002 167.792C95.0995 167.792 93.5586 169.333 93.5586 171.233C93.5586 173.134 95.0995 174.675 97.0002 174.675Z" fill="#10A2E9"/>
<path d="M130.414 174.675C132.315 174.675 133.856 173.134 133.856 171.233C133.856 169.333 132.315 167.792 130.414 167.792C128.514 167.792 126.973 169.333 126.973 171.233C126.973 173.134 128.514 174.675 130.414 174.675Z" fill="#10A2E9"/>
<path d="M137.098 174.675C138.999 174.675 140.539 173.134 140.539 171.234C140.539 169.333 138.999 167.792 137.098 167.792C135.197 167.792 133.656 169.333 133.656 171.234C133.656 173.134 135.197 174.675 137.098 174.675Z" fill="#10A2E9"/>
<path d="M143.779 174.675C145.68 174.675 147.221 173.134 147.221 171.234C147.221 169.333 145.68 167.792 143.779 167.792C141.879 167.792 140.338 169.333 140.338 171.234C140.338 173.134 141.879 174.675 143.779 174.675Z" fill="#10A2E9"/>
<path d="M157.145 174.675C159.045 174.675 160.586 173.134 160.586 171.233C160.586 169.333 159.045 167.792 157.145 167.792C155.244 167.792 153.703 169.333 153.703 171.233C153.703 173.134 155.244 174.675 157.145 174.675Z" fill="#10A2E9"/>
<path d="M183.876 174.675C185.777 174.675 187.318 173.134 187.318 171.233C187.318 169.333 185.777 167.792 183.876 167.792C181.975 167.792 180.435 169.333 180.435 171.233C180.435 173.134 181.975 174.675 183.876 174.675Z" fill="#10A2E9"/>
<path d="M56.9045 181.357C58.8052 181.357 60.3461 179.817 60.3461 177.916C60.3461 176.015 58.8052 174.474 56.9045 174.474C55.0037 174.474 53.4629 176.015 53.4629 177.916C53.4629 179.817 55.0037 181.357 56.9045 181.357Z" fill="#10A2E9"/>
<path d="M63.5871 181.357C65.4879 181.357 67.0287 179.817 67.0287 177.916C67.0287 176.015 65.4879 174.474 63.5871 174.474C61.6864 174.474 60.1455 176.015 60.1455 177.916C60.1455 179.817 61.6864 181.357 63.5871 181.357Z" fill="#10A2E9"/>
<path d="M83.6359 181.357C85.5367 181.357 87.0775 179.817 87.0775 177.916C87.0775 176.015 85.5367 174.474 83.6359 174.474C81.7352 174.474 80.1943 176.015 80.1943 177.916C80.1943 179.817 81.7352 181.357 83.6359 181.357Z" fill="#10A2E9"/>
<path d="M90.3166 181.357C92.2174 181.357 93.7582 179.817 93.7582 177.916C93.7582 176.015 92.2174 174.474 90.3166 174.474C88.4159 174.474 86.875 176.015 86.875 177.916C86.875 179.817 88.4159 181.357 90.3166 181.357Z" fill="#10A2E9"/>
<path d="M103.683 181.357C105.584 181.357 107.124 179.817 107.124 177.916C107.124 176.015 105.584 174.474 103.683 174.474C101.782 174.474 100.241 176.015 100.241 177.916C100.241 179.817 101.782 181.357 103.683 181.357Z" fill="#10A2E9"/>
<path d="M110.366 181.357C112.267 181.357 113.808 179.817 113.808 177.916C113.808 176.015 112.267 174.474 110.366 174.474C108.466 174.474 106.925 176.015 106.925 177.916C106.925 179.817 108.466 181.357 110.366 181.357Z" fill="#10A2E9"/>
<path d="M117.048 181.357C118.949 181.357 120.49 179.817 120.49 177.916C120.49 176.015 118.949 174.474 117.048 174.474C115.147 174.474 113.606 176.015 113.606 177.916C113.606 179.817 115.147 181.357 117.048 181.357Z" fill="#10A2E9"/>
<path d="M123.732 181.357C125.632 181.357 127.173 179.817 127.173 177.916C127.173 176.015 125.632 174.474 123.732 174.474C121.831 174.474 120.29 176.015 120.29 177.916C120.29 179.817 121.831 181.357 123.732 181.357Z" fill="#10A2E9"/>
<path d="M130.414 181.357C132.315 181.357 133.856 179.817 133.856 177.916C133.856 176.015 132.315 174.474 130.414 174.474C128.514 174.474 126.973 176.015 126.973 177.916C126.973 179.817 128.514 181.357 130.414 181.357Z" fill="#10A2E9"/>
<path d="M137.098 181.357C138.999 181.357 140.539 179.817 140.539 177.916C140.539 176.015 138.999 174.474 137.098 174.474C135.197 174.474 133.656 176.015 133.656 177.916C133.656 179.817 135.197 181.357 137.098 181.357Z" fill="#10A2E9"/>
<path d="M143.779 181.357C145.68 181.357 147.221 179.817 147.221 177.916C147.221 176.015 145.68 174.474 143.779 174.474C141.879 174.474 140.338 176.015 140.338 177.916C140.338 179.817 141.879 181.357 143.779 181.357Z" fill="#10A2E9"/>
<path d="M150.462 181.357C152.363 181.357 153.904 179.817 153.904 177.916C153.904 176.015 152.363 174.474 150.462 174.474C148.561 174.474 147.021 176.015 147.021 177.916C147.021 179.817 148.561 181.357 150.462 181.357Z" fill="#10A2E9"/>
<path d="M157.145 181.357C159.045 181.357 160.586 179.817 160.586 177.916C160.586 176.015 159.045 174.474 157.145 174.474C155.244 174.474 153.703 176.015 153.703 177.916C153.703 179.817 155.244 181.357 157.145 181.357Z" fill="#10A2E9"/>
<path d="M163.828 181.357C165.729 181.357 167.27 179.817 167.27 177.916C167.27 176.015 165.729 174.474 163.828 174.474C161.928 174.474 160.387 176.015 160.387 177.916C160.387 179.817 161.928 181.357 163.828 181.357Z" fill="#10A2E9"/>
<path d="M177.194 181.357C179.094 181.357 180.635 179.817 180.635 177.916C180.635 176.015 179.094 174.474 177.194 174.474C175.293 174.474 173.752 176.015 173.752 177.916C173.752 179.817 175.293 181.357 177.194 181.357Z" fill="#10A2E9"/>
<path d="M183.876 181.357C185.777 181.357 187.318 179.817 187.318 177.916C187.318 176.015 185.777 174.474 183.876 174.474C181.975 174.474 180.435 176.015 180.435 177.916C180.435 179.817 181.975 181.357 183.876 181.357Z" fill="#10A2E9"/>
<path d="M63.5871 188.042C65.4879 188.042 67.0287 186.501 67.0287 184.6C67.0287 182.699 65.4879 181.158 63.5871 181.158C61.6864 181.158 60.1455 182.699 60.1455 184.6C60.1455 186.501 61.6864 188.042 63.5871 188.042Z" fill="#10A2E9"/>
<path d="M76.9533 188.042C78.8541 188.042 80.3949 186.501 80.3949 184.6C80.3949 182.699 78.8541 181.158 76.9533 181.158C75.0526 181.158 73.5117 182.699 73.5117 184.6C73.5117 186.501 75.0526 188.042 76.9533 188.042Z" fill="#10A2E9"/>
<path d="M83.6359 188.042C85.5367 188.042 87.0775 186.501 87.0775 184.6C87.0775 182.699 85.5367 181.158 83.6359 181.158C81.7352 181.158 80.1943 182.699 80.1943 184.6C80.1943 186.501 81.7352 188.042 83.6359 188.042Z" fill="#10A2E9"/>
<path d="M117.048 188.042C118.949 188.042 120.49 186.501 120.49 184.6C120.49 182.699 118.949 181.158 117.048 181.158C115.147 181.158 113.606 182.699 113.606 184.6C113.606 186.501 115.147 188.042 117.048 188.042Z" fill="#10A2E9"/>
<path d="M130.414 188.042C132.315 188.042 133.856 186.501 133.856 184.6C133.856 182.699 132.315 181.158 130.414 181.158C128.514 181.158 126.973 182.699 126.973 184.6C126.973 186.501 128.514 188.042 130.414 188.042Z" fill="#10A2E9"/>
<path d="M163.828 188.042C165.729 188.042 167.27 186.501 167.27 184.6C167.27 182.699 165.729 181.158 163.828 181.158C161.928 181.158 160.387 182.699 160.387 184.6C160.387 186.501 161.928 188.042 163.828 188.042Z" fill="#10A2E9"/>
<path d="M183.876 188.042C185.777 188.042 187.318 186.501 187.318 184.6C187.318 182.699 185.777 181.158 183.876 181.158C181.975 181.158 180.435 182.699 180.435 184.6C180.435 186.501 181.975 188.042 183.876 188.042Z" fill="#10A2E9"/>
<path d="M70.2697 194.724C72.1705 194.724 73.7113 193.183 73.7113 191.282C73.7113 189.381 72.1705 187.841 70.2697 187.841C68.369 187.841 66.8281 189.381 66.8281 191.282C66.8281 193.183 68.369 194.724 70.2697 194.724Z" fill="#10A2E9"/>
<path d="M83.6359 194.724C85.5367 194.724 87.0775 193.183 87.0775 191.282C87.0775 189.381 85.5367 187.841 83.6359 187.841C81.7352 187.841 80.1943 189.381 80.1943 191.282C80.1943 193.183 81.7352 194.724 83.6359 194.724Z" fill="#10A2E9"/>
<path d="M97.0002 194.724C98.9009 194.724 100.442 193.183 100.442 191.282C100.442 189.381 98.9009 187.841 97.0002 187.841C95.0995 187.841 93.5586 189.381 93.5586 191.282C93.5586 193.183 95.0995 194.724 97.0002 194.724Z" fill="#10A2E9"/>
<path d="M103.683 194.724C105.584 194.724 107.124 193.183 107.124 191.282C107.124 189.381 105.584 187.841 103.683 187.841C101.782 187.841 100.241 189.381 100.241 191.282C100.241 193.183 101.782 194.724 103.683 194.724Z" fill="#10A2E9"/>
<path d="M117.048 194.724C118.949 194.724 120.49 193.183 120.49 191.282C120.49 189.381 118.949 187.841 117.048 187.841C115.147 187.841 113.606 189.381 113.606 191.282C113.606 193.183 115.147 194.724 117.048 194.724Z" fill="#10A2E9"/>
<path d="M123.732 194.724C125.632 194.724 127.173 193.183 127.173 191.282C127.173 189.381 125.632 187.841 123.732 187.841C121.831 187.841 120.29 189.381 120.29 191.282C120.29 193.183 121.831 194.724 123.732 194.724Z" fill="#10A2E9"/>
<path d="M137.098 194.724C138.999 194.724 140.539 193.183 140.539 191.282C140.539 189.381 138.999 187.841 137.098 187.841C135.197 187.841 133.656 189.381 133.656 191.282C133.656 193.183 135.197 194.724 137.098 194.724Z" fill="#10A2E9"/>
<path d="M143.779 194.724C145.68 194.724 147.221 193.183 147.221 191.282C147.221 189.381 145.68 187.841 143.779 187.841C141.879 187.841 140.338 189.381 140.338 191.282C140.338 193.183 141.879 194.724 143.779 194.724Z" fill="#10A2E9"/>
<path d="M163.828 194.724C165.729 194.724 167.27 193.183 167.27 191.282C167.27 189.381 165.729 187.841 163.828 187.841C161.928 187.841 160.387 189.381 160.387 191.282C160.387 193.183 161.928 194.724 163.828 194.724Z" fill="#10A2E9"/>
<path d="M0 24.1145C0 37.1459 10.3582 47.5042 23.3895 47.5042H46.7791V24.1145C46.7791 11.0831 36.4209 0.724854 23.3895 0.724854C10.3582 0.724854 0 11.0831 0 24.1145ZM40.0964 40.8214H23.3895C14.0337 40.8214 6.68273 33.4704 6.68273 24.1145C6.68273 14.7587 14.0337 7.40762 23.3895 7.40762C32.7454 7.40762 40.0964 14.7587 40.0964 24.1145V40.8214Z" fill="#10A2E9"/>
<path d="M170.41 0.724854C157.379 0.724854 147.021 11.0831 147.021 24.1145V47.5042H170.41C183.442 47.5042 193.8 37.1459 193.8 24.1145C193.8 11.0831 183.442 0.724854 170.41 0.724854ZM153.703 40.8214V24.1145C153.703 14.7587 161.054 7.40762 170.41 7.40762C179.766 7.40762 187.117 14.7587 187.117 24.1145C187.117 33.4704 179.766 40.8214 170.41 40.8214H153.703Z" fill="#10A2E9"/>
<path d="M23.3895 194.525C36.4209 194.525 46.7791 184.167 46.7791 171.135V147.746H23.3895C10.3582 147.746 0 158.104 0 171.135C0 184.167 10.3582 194.525 23.3895 194.525ZM40.0964 154.428V171.135C40.0964 180.491 32.7454 187.842 23.3895 187.842C14.0337 187.842 6.68273 180.491 6.68273 171.135C6.68273 161.779 14.0337 154.428 23.3895 154.428H40.0964Z" fill="#10A2E9"/>
<path d="M33.4154 14.0879H13.3672V34.1362H33.4154V14.0879Z" fill="#10A2E9"/>
<path d="M180.435 14.0879H160.387V34.1362H180.435V14.0879Z" fill="#10A2E9"/>
<path d="M33.4154 161.11H13.3672V181.158H33.4154V161.11Z" fill="#10A2E9"/>
<rect x="75" y="75.7244" width="42" height="42" rx="21" fill="#009CE8"/>
<path d="M107.669 86.4192C107.878 85.0933 106.591 84.0468 105.388 84.5644L81.4187 94.8735C80.5557 95.2446 80.6188 96.5252 81.5139 96.8044L86.457 98.3464C87.4004 98.6407 88.4219 98.4885 89.2458 97.931L100.39 90.3887C100.726 90.1612 101.093 90.6293 100.805 90.9193L92.7835 99.0212C92.0053 99.8072 92.1597 101.139 93.0958 101.714L102.077 107.231C103.085 107.85 104.381 107.228 104.569 106.036L107.669 86.4192Z" fill="white"/>
</svg>
