<svg width="21" height="20" viewBox="0 0 21 20" fill="none" xmlns="http://www.w3.org/2000/svg">
<path fill-rule="evenodd" clip-rule="evenodd" d="M2.03033 0.21967C1.73744 -0.0732233 1.26256 -0.0732233 0.96967 0.21967C0.676777 0.512563 0.676777 0.987437 0.96967 1.28033L9.61176 9.92242L0.971497 18.5627C0.678602 18.8556 0.678602 19.3304 0.971497 19.6233C1.26439 19.9162 1.73926 19.9162 2.03216 19.6233L10.6724 10.9831L19.3127 19.6233C19.6056 19.9162 20.0804 19.9162 20.3733 19.6233C20.6662 19.3304 20.6662 18.8556 20.3733 18.5627L11.7331 9.92242L20.3752 1.28033C20.6681 0.987437 20.6681 0.512563 20.3752 0.21967C20.0823 -0.0732233 19.6074 -0.0732233 19.3145 0.21967L10.6724 8.86176L2.03033 0.21967Z" fill="currentColor"/>
<path fill-rule="evenodd" clip-rule="evenodd" d="M2.03033 0.21967C1.73744 -0.0732233 1.26256 -0.0732233 0.96967 0.21967C0.676777 0.512563 0.676777 0.987437 0.96967 1.28033L9.61176 9.92242L0.971497 18.5627C0.678602 18.8556 0.678602 19.3304 0.971497 19.6233C1.26439 19.9162 1.73926 19.9162 2.03216 19.6233L10.6724 10.9831L19.3127 19.6233C19.6056 19.9162 20.0804 19.9162 20.3733 19.6233C20.6662 19.3304 20.6662 18.8556 20.3733 18.5627L11.7331 9.92242L20.3752 1.28033C20.6681 0.987437 20.6681 0.512563 20.3752 0.21967C20.0823 -0.0732233 19.6074 -0.0732233 19.3145 0.21967L10.6724 8.86176L2.03033 0.21967Z" fill="currentColor"/>
</svg>
