<svg width="23" height="24" viewBox="0 0 23 24" fill="none" xmlns="http://www.w3.org/2000/svg">
<path d="M18.0899 4.47754H4.92544C4.17728 4.47754 3.45976 4.77475 2.93073 5.30378C2.4017 5.83281 2.10449 6.55032 2.10449 7.29849V16.7016C2.10449 17.4498 2.4017 18.1673 2.93073 18.6964C3.45976 19.2254 4.17728 19.5226 4.92544 19.5226H18.0899C18.838 19.5226 19.5555 19.2254 20.0846 18.6964C20.6136 18.1673 20.9108 17.4498 20.9108 16.7016V7.29849C20.9108 6.55032 20.6136 5.83281 20.0846 5.30378C19.5555 4.77475 18.838 4.47754 18.0899 4.47754ZM4.92544 6.35817H18.0899C18.3393 6.35817 18.5784 6.45724 18.7548 6.63358C18.9311 6.80993 19.0302 7.0491 19.0302 7.29849L11.5077 11.8872L3.98512 7.29849C3.98512 7.0491 4.08419 6.80993 4.26054 6.63358C4.43688 6.45724 4.67605 6.35817 4.92544 6.35817ZM19.0302 16.7016C19.0302 16.951 18.9311 17.1902 18.7548 17.3666C18.5784 17.5429 18.3393 17.642 18.0899 17.642H4.92544C4.67605 17.642 4.43688 17.5429 4.26054 17.3666C4.08419 17.1902 3.98512 16.951 3.98512 16.7016V9.44241L11.0187 13.7397C11.1616 13.8222 11.3238 13.8656 11.4888 13.8656C11.6539 13.8656 11.8161 13.8222 11.959 13.7397L19.0302 9.44241V16.7016Z" fill="currentColor"/>
</svg>
