<svg width="14" height="19" viewBox="0 0 14 19" fill="none" xmlns="http://www.w3.org/2000/svg">
<path d="M7.08398 0.724121C3.49558 0.724121 0.583984 3.31604 0.583984 6.50984C0.583984 11.6527 7.08398 18.7241 7.08398 18.7241C7.08398 18.7241 13.584 11.6527 13.584 6.50984C13.584 3.31604 10.6724 0.724121 7.08398 0.724121ZM7.08398 9.72412C6.56975 9.72412 6.06707 9.57331 5.6395 9.29076C5.21193 9.0082 4.87869 8.6066 4.6819 8.13674C4.48511 7.66687 4.43362 7.14984 4.53394 6.65103C4.63426 6.15222 4.88189 5.69404 5.24551 5.33442C5.60912 4.9748 6.0724 4.72989 6.57675 4.63067C7.0811 4.53145 7.60387 4.58238 8.07896 4.777C8.55405 4.97163 8.96011 5.30121 9.2458 5.72408C9.5315 6.14695 9.68398 6.64411 9.68398 7.15269C9.68323 7.83445 9.40906 8.48807 8.92163 8.97015C8.4342 9.45222 7.77332 9.72338 7.08398 9.72412Z" fill="currentColor"/>
</svg>
