<svg width="24" height="24" viewBox="0 0 24 24" fill="none" xmlns="http://www.w3.org/2000/svg">
<path d="M19.0582 12.9404C18.8513 12.9404 18.6351 12.8746 18.4282 12.8276C18.0096 12.734 17.598 12.6114 17.1964 12.4608C16.7602 12.3021 16.2807 12.3104 15.8502 12.484C15.4196 12.6576 15.0685 12.9842 14.8644 13.4012L14.6575 13.8337C13.7443 13.3158 12.9007 12.6838 12.1469 11.9531C11.4161 11.1993 10.7842 10.3556 10.2663 9.44242L10.6988 9.24496C11.1157 9.04083 11.4424 8.68973 11.616 8.25922C11.7896 7.8287 11.7978 7.3492 11.6391 6.91297C11.4898 6.50773 11.3673 6.09309 11.2724 5.67176C11.2254 5.46489 11.1878 5.24861 11.1596 5.04174C11.0454 4.37941 10.6985 3.7796 10.1813 3.35034C9.6641 2.92109 9.01066 2.69059 8.33862 2.70036H5.50827C5.11075 2.69984 4.7176 2.78334 4.35461 2.94539C3.99162 3.10744 3.66697 3.34438 3.40196 3.64067C3.13145 3.94501 2.93003 4.3043 2.81154 4.69386C2.69305 5.08342 2.66029 5.49401 2.71553 5.89743C3.22667 9.81116 5.0148 13.4469 7.80264 16.2409C10.5966 19.0287 14.2324 20.8169 18.1461 21.328C18.2682 21.3373 18.3908 21.3373 18.5128 21.328C19.2062 21.329 19.8757 21.0746 20.3935 20.6134C20.6898 20.3484 20.9267 20.0237 21.0888 19.6607C21.2508 19.2977 21.3343 18.9046 21.3338 18.5071V15.6861C21.3287 15.0364 21.0995 14.4083 20.6849 13.9081C20.2703 13.4078 19.6957 13.066 19.0582 12.9404ZM19.519 18.5823C19.5187 18.7135 19.4909 18.8432 19.4375 18.963C19.384 19.0829 19.3061 19.1902 19.2087 19.2781C19.1056 19.372 18.983 19.4418 18.8496 19.4825C18.7163 19.5231 18.5755 19.5336 18.4376 19.5132C14.9286 19.0549 11.6676 17.4558 9.15669 14.9621C6.64367 12.449 5.03061 9.17666 4.56795 5.65295C4.54752 5.51504 4.55802 5.37431 4.59868 5.24095C4.63933 5.1076 4.70914 4.98495 4.80303 4.88189C4.892 4.7833 5.00085 4.70468 5.12241 4.65119C5.24396 4.59771 5.37547 4.57058 5.50827 4.57159H8.32921C8.54658 4.56627 8.75907 4.63645 8.93051 4.77018C9.10196 4.90391 9.22176 5.09292 9.26953 5.30503C9.26953 5.55892 9.35416 5.82221 9.41058 6.07609C9.51926 6.56869 9.66382 7.05268 9.84312 7.52418L8.52668 8.14479C8.30041 8.24866 8.12456 8.43803 8.03772 8.67136C7.94367 8.90029 7.94367 9.15707 8.03772 9.386C9.39102 12.2848 11.7212 14.6149 14.6199 15.9682C14.8489 16.0623 15.1056 16.0623 15.3346 15.9682C15.5679 15.8814 15.7573 15.7055 15.8611 15.4793L16.4535 14.1628C16.9387 14.3397 17.435 14.4842 17.9392 14.5954C18.1837 14.6518 18.447 14.6988 18.7009 14.7364C18.913 14.7842 19.102 14.904 19.2358 15.0754C19.3695 15.2469 19.4397 15.4594 19.4343 15.6767L19.519 18.5823ZM13.9711 2.59692C13.7548 2.59692 13.5292 2.59692 13.3129 2.59692C13.0635 2.61812 12.8327 2.73752 12.6714 2.92885C12.51 3.12019 12.4313 3.36778 12.4525 3.61717C12.4737 3.86655 12.5931 4.09731 12.7844 4.25866C12.9758 4.42001 13.2234 4.49875 13.4727 4.47756H13.9711C15.4674 4.47756 16.9025 5.07197 17.9605 6.13003C19.0186 7.18809 19.613 8.62313 19.613 10.1195C19.613 10.2887 19.613 10.4486 19.613 10.6178C19.5922 10.8659 19.6705 11.1121 19.8309 11.3025C19.9913 11.4928 20.2207 11.6118 20.4687 11.6334H20.5439C20.7793 11.6343 21.0065 11.5469 21.1806 11.3885C21.3547 11.2301 21.463 11.0121 21.4842 10.7777C21.4842 10.5614 21.4842 10.3357 21.4842 10.1195C21.4842 8.12598 20.693 6.21402 19.2843 4.80354C17.8755 3.39307 15.9646 2.59942 13.9711 2.59692ZM15.8517 10.1195C15.8517 10.3688 15.9508 10.608 16.1272 10.7844C16.3035 10.9607 16.5427 11.0598 16.7921 11.0598C17.0414 11.0598 17.2806 10.9607 17.457 10.7844C17.6333 10.608 17.7324 10.3688 17.7324 10.1195C17.7324 9.1219 17.3361 8.16521 16.6307 7.45984C15.9254 6.75446 14.9687 6.35819 13.9711 6.35819C13.7217 6.35819 13.4825 6.45726 13.3062 6.6336C13.1299 6.80994 13.0308 7.04912 13.0308 7.2985C13.0308 7.54789 13.1299 7.78706 13.3062 7.96341C13.4825 8.13975 13.7217 8.23882 13.9711 8.23882C14.4699 8.23882 14.9482 8.43696 15.3009 8.78964C15.6536 9.14233 15.8517 9.62068 15.8517 10.1195Z" fill="currentColor"/>
</svg>
