<svg width="21" height="21" viewBox="0 0 21 21" fill="none" xmlns="http://www.w3.org/2000/svg">
<path d="M4.10621 8.87968C5.70621 12.0241 8.28399 14.6019 11.4284 16.2019L13.8729 13.7575C14.184 13.4463 14.6173 13.3575 15.0062 13.4797C16.2507 13.8908 17.584 14.113 18.9729 14.113C19.2676 14.113 19.5502 14.2301 19.7585 14.4384C19.9669 14.6468 20.084 14.9294 20.084 15.2241V19.113C20.084 19.4077 19.9669 19.6903 19.7585 19.8987C19.5502 20.1071 19.2676 20.2241 18.9729 20.2241C13.9632 20.2241 9.15877 18.234 5.61641 14.6917C2.07406 11.1493 0.0839844 6.34488 0.0839844 1.33523C0.0839844 1.04055 0.201047 0.757932 0.409421 0.549558C0.617795 0.341184 0.900411 0.224121 1.1951 0.224121H5.08398C5.37867 0.224121 5.66128 0.341184 5.86966 0.549558C6.07803 0.757932 6.1951 1.04055 6.1951 1.33523C6.1951 2.72412 6.41732 4.05745 6.82843 5.3019C6.95065 5.69079 6.86176 6.12412 6.55065 6.43523L4.10621 8.87968Z" fill="currentColor"/>
</svg>
