<svg width="18" height="17" viewBox="0 0 18 17" fill="none" xmlns="http://www.w3.org/2000/svg">
<path d="M9.26592 14.1548C9.01072 14.0002 8.69072 14.0002 8.43553 14.1549L4.52166 16.5271C3.91502 16.8948 3.16508 16.3508 3.32627 15.66L4.3639 11.2132C4.43131 10.9243 4.33357 10.6218 4.10987 10.427L0.664783 7.42688C0.131144 6.96217 0.41802 6.08439 1.12311 6.02452L5.66322 5.63897C5.95887 5.61387 6.21643 5.42741 6.33259 5.15438L8.11436 0.96671C8.3909 0.31676 9.31213 0.316761 9.58867 0.966711L11.3704 5.15439C11.4866 5.42741 11.7442 5.61387 12.0398 5.63898L16.5799 6.02452C17.285 6.08439 17.5719 6.96216 17.0382 7.42688L13.5932 10.427C13.3695 10.6218 13.2717 10.9243 13.3391 11.2132L14.3768 15.6603C14.538 16.351 13.7882 16.8951 13.1815 16.5275L9.26592 14.1548Z" fill="currentColor"/>
</svg>
