<svg width="22" height="23" viewBox="0 0 22 23" fill="none" xmlns="http://www.w3.org/2000/svg">
<path d="M11 0.66626C4.92522 0.66626 0 5.59148 0 11.6663C0 17.7417 4.92522 22.6663 11 22.6663C17.0755 22.6663 22 17.7424 22 11.6663C22 5.59148 17.0754 0.66626 11 0.66626ZM11 20.6037C6.06378 20.6037 2.06253 16.6025 2.06253 11.6663C2.06253 6.73004 6.06378 2.72879 11 2.72879C15.9362 2.72879 19.9375 6.73004 19.9375 11.6663C19.9375 16.6025 15.9362 20.6037 11 20.6037ZM11.0007 5.49043C10.2128 5.49043 9.61672 5.90158 9.61672 6.56568V12.6569C9.61672 13.3217 10.2128 13.7315 11.0007 13.7315C11.7693 13.7315 12.3847 13.3046 12.3847 12.6569V6.56568C12.3846 5.91735 11.7693 5.49043 11.0007 5.49043ZM11.0007 15.1038C10.2438 15.1038 9.62772 15.7198 9.62772 16.4774C9.62772 17.2336 10.2438 17.8496 11.0007 17.8496C11.7576 17.8496 12.373 17.2336 12.373 16.4774C12.3729 15.7197 11.7576 15.1038 11.0007 15.1038Z" fill="currentColor"/>
</svg>
