<svg width="18" height="20" viewBox="0 0 18 20" fill="none" xmlns="http://www.w3.org/2000/svg">
<path d="M18 20H0V19.141C0.266289 14.479 4.28455 10.9021 9 11.1295C13.7154 10.9021 17.7337 14.479 18 19.141V19.9978V20ZM9 8.90414C7.79417 8.94558 6.62507 8.48998 5.7719 7.64614C4.91873 6.8023 4.4581 5.64598 4.5 4.45333C4.45877 3.26087 4.91963 2.10494 5.77264 1.26125C6.62566 0.417557 7.79436 -0.0382584 9 0.00251887C10.2056 -0.0382584 11.3743 0.417557 12.2274 1.26125C13.0804 2.10494 13.5412 3.26087 13.5 4.45333C13.5419 5.64598 13.0813 6.8023 12.2281 7.64614C11.3749 8.48998 10.2058 8.94558 9 8.90414Z" fill="currentColor"/>
</svg>
