<svg width="33" height="34" viewBox="0 0 33 34" fill="none" xmlns="http://www.w3.org/2000/svg">
<path fill-rule="evenodd" clip-rule="evenodd" d="M28.1918 5.2963C26.6696 3.77142 24.8586 2.56231 22.8636 1.73901C20.8686 0.915706 18.7292 0.494589 16.5695 0.500052C7.5133 0.500052 0.140932 7.8356 0.137271 16.8525C0.137271 19.7342 0.893176 22.5468 2.32994 25.0278L0 33.5L8.7103 31.2248C11.1197 32.5302 13.819 33.2146 16.5622 33.2158H16.5695C25.6239 33.2158 32.9963 25.8803 32.9999 16.8634C33.0062 14.7148 32.5844 12.5863 31.7591 10.6009C30.9339 8.61547 29.7214 6.81254 28.1918 5.2963ZM16.5695 30.4561H16.564C14.1179 30.4564 11.7168 29.8014 9.61263 28.5598L9.11479 28.2647L3.94608 29.6145L5.32428 24.5997L5.00032 24.086C3.63272 21.9191 2.90874 19.4114 2.91197 16.8525C2.91563 9.35845 9.04158 3.26158 16.575 3.26158C18.3691 3.25762 20.1462 3.60784 21.8035 4.29197C23.4607 4.9761 24.9651 5.98057 26.2297 7.24723C27.5011 8.50784 28.5088 10.0067 29.1946 11.6573C29.8804 13.3078 30.2307 15.0773 30.2252 16.8634C30.2216 24.3574 24.0956 30.4561 16.5695 30.4561ZM24.0608 20.2752C23.649 20.0694 21.6321 19.0821 21.255 18.9455C20.8798 18.8089 20.6071 18.7415 20.3326 19.1495C20.058 19.5575 19.271 20.4774 19.0312 20.7507C18.7915 21.0239 18.5517 21.0567 18.1417 20.8527C17.7317 20.6487 16.4085 20.217 14.8399 18.8253C13.6191 17.7414 12.7955 16.4044 12.5557 15.9945C12.3159 15.5846 12.5301 15.3642 12.7369 15.1602C12.9218 14.9781 13.1469 14.683 13.3519 14.4443C13.5569 14.2057 13.6246 14.0363 13.7619 13.7631C13.8991 13.4898 13.8314 13.2512 13.7271 13.0472C13.6246 12.8413 12.8028 10.8303 12.4605 10.0124C12.1293 9.22001 11.7907 9.32566 11.5381 9.31473C11.2765 9.30408 11.0147 9.29922 10.7529 9.30016C10.5447 9.30544 10.3399 9.35347 10.1512 9.44124C9.96255 9.52901 9.79414 9.65462 9.65655 9.81021C9.27952 10.2201 8.21978 11.2074 8.21978 13.2184C8.21978 15.2294 9.69133 17.1731 9.89632 17.4463C10.1013 17.7196 12.7918 21.8455 16.9099 23.616C17.891 24.0368 18.656 24.2882 19.2509 24.4777C20.2337 24.7892 21.1287 24.7436 21.8371 24.6398C22.6259 24.5232 24.2658 23.6525 24.6081 22.698C24.9504 21.7435 24.9504 20.9256 24.8479 20.7543C24.7454 20.5831 24.469 20.4793 24.0608 20.2752Z" fill="currentColor"/>
</svg>
