<svg width="46" height="48" viewBox="0 0 46 48" fill="none" xmlns="http://www.w3.org/2000/svg">
<mask id="path-1-inside-1_1061_15017" fill="white">
<path fill-rule="evenodd" clip-rule="evenodd" d="M1.19371 24.7463C-0.423683 22.7902 0.967579 19.8346 3.50571 19.8346H11.5098C12.0621 19.8346 12.5098 19.3869 12.5098 18.8346L12.5098 3C12.5098 1.34315 13.8529 0 15.5098 0L30.5098 0C32.1666 0 33.5098 1.34315 33.5098 3V18.8346C33.5098 19.3869 33.9575 19.8346 34.5098 19.8346H42.7591C45.2972 19.8346 46.6885 22.7902 45.0711 24.7463L35.8616 35.8842L27.7824 45.7919C25.3815 48.7361 20.8833 48.7361 18.4824 45.7919L10.4032 35.8842L1.19371 24.7463Z"/>
</mask>
<path fill-rule="evenodd" clip-rule="evenodd" d="M1.19371 24.7463C-0.423683 22.7902 0.967579 19.8346 3.50571 19.8346H11.5098C12.0621 19.8346 12.5098 19.3869 12.5098 18.8346L12.5098 3C12.5098 1.34315 13.8529 0 15.5098 0L30.5098 0C32.1666 0 33.5098 1.34315 33.5098 3V18.8346C33.5098 19.3869 33.9575 19.8346 34.5098 19.8346H42.7591C45.2972 19.8346 46.6885 22.7902 45.0711 24.7463L35.8616 35.8842L27.7824 45.7919C25.3815 48.7361 20.8833 48.7361 18.4824 45.7919L10.4032 35.8842L1.19371 24.7463Z" fill="#DF0043"/>
<path d="M1.19371 24.7463L2.73505 23.4718H2.73505L1.19371 24.7463ZM45.0711 24.7463L43.5298 23.4718L45.0711 24.7463ZM35.8616 35.8842L34.3116 34.6203L34.3202 34.6098L35.8616 35.8842ZM27.7824 45.7919L26.2324 44.5279L27.7824 45.7919ZM18.4824 45.7919L20.0324 44.5279L18.4824 45.7919ZM10.4032 35.8842L11.9446 34.6097L11.9532 34.6203L10.4032 35.8842ZM3.50571 21.8346C2.65967 21.8346 2.19592 22.8198 2.73505 23.4718L-0.347627 26.0208C-3.04328 22.7607 -0.724511 17.8346 3.50571 17.8346L3.50571 21.8346ZM11.5098 21.8346H3.50571L3.50571 17.8346H11.5098V21.8346ZM14.5098 3L14.5098 18.8346H10.5098L10.5098 3L14.5098 3ZM15.5098 2C14.9575 2 14.5098 2.44772 14.5098 3L10.5098 3C10.5098 0.238577 12.7483 -2 15.5098 -2V2ZM30.5098 2L15.5098 2V-2L30.5098 -2V2ZM31.5098 3C31.5098 2.44772 31.062 2 30.5098 2V-2C33.2712 -2 35.5098 0.238578 35.5098 3L31.5098 3ZM31.5098 18.8346V3L35.5098 3V18.8346H31.5098ZM42.7591 21.8346H34.5098V17.8346H42.7591V21.8346ZM43.5298 23.4718C44.0689 22.8198 43.6051 21.8346 42.7591 21.8346V17.8346C46.9893 17.8346 49.3081 22.7607 46.6124 26.0208L43.5298 23.4718ZM34.3202 34.6098L43.5298 23.4718L46.6124 26.0208L37.4029 37.1587L34.3202 34.6098ZM26.2324 44.5279L34.3116 34.6203L37.4116 37.1482L29.3323 47.0558L26.2324 44.5279ZM20.0324 44.5279C21.633 46.4907 24.6318 46.4907 26.2324 44.5279L29.3323 47.0558C26.1312 50.9814 20.1336 50.9814 16.9325 47.0558L20.0324 44.5279ZM11.9532 34.6203L20.0324 44.5279L16.9325 47.0558L8.85325 37.1482L11.9532 34.6203ZM2.73505 23.4718L11.9446 34.6098L8.8619 37.1587L-0.347627 26.0208L2.73505 23.4718ZM35.5098 18.8346C35.5098 18.2823 35.062 17.8346 34.5098 17.8346V21.8346C32.8529 21.8346 31.5098 20.4914 31.5098 18.8346H35.5098ZM11.5098 17.8346C10.9575 17.8346 10.5098 18.2823 10.5098 18.8346H14.5098C14.5098 20.4914 13.1666 21.8346 11.5098 21.8346V17.8346Z" fill="url(#paint0_linear_1061_15017)" mask="url(#path-1-inside-1_1061_15017)"/>
<defs>
<linearGradient id="paint0_linear_1061_15017" x1="23.1324" y1="52.9845" x2="23.1324" y2="-4.98444" gradientUnits="userSpaceOnUse">
<stop stop-color="#76032C"/>
<stop offset="0.797234" stop-color="#C6074B"/>
</linearGradient>
</defs>
</svg>
