<svg width="37" height="37" viewBox="0 0 37 37" fill="none" xmlns="http://www.w3.org/2000/svg">
<rect x="0.5" y="0.224121" width="36" height="36" rx="18" fill="url(#paint0_linear_3002_6925)"/>
<path d="M22.1752 17.8459C22.1752 18.4199 22.0317 18.9519 21.7447 19.4419C21.4577 19.9319 21.0657 20.3204 20.5687 20.6074C20.0717 20.8944 19.5362 21.0379 18.9622 21.0379C18.3882 21.0379 17.8562 20.8944 17.3662 20.6074C16.8762 20.3204 16.4877 19.9319 16.2007 19.4419C15.9137 18.9519 15.7702 18.4199 15.7702 17.8459C15.7702 17.2719 15.9137 16.7364 16.2007 16.2394C16.4877 15.7424 16.8762 15.3504 17.3662 15.0634C17.8562 14.7764 18.3882 14.6329 18.9622 14.6329C19.5362 14.6329 20.0717 14.7764 20.5687 15.0634C21.0657 15.3504 21.4577 15.7424 21.7447 16.2394C22.0317 16.7364 22.1752 17.2719 22.1752 17.8459ZM23.8972 17.8459C23.8972 16.9499 23.6767 16.1239 23.2357 15.3679C22.7947 14.6119 22.1962 14.0134 21.4402 13.5724C20.6842 13.1314 19.8582 12.9109 18.9622 12.9109C18.0662 12.9109 17.2437 13.1314 16.4947 13.5724C15.7457 14.0134 15.1507 14.6119 14.7097 15.3679C14.2687 16.1239 14.0482 16.9499 14.0482 17.8459C14.0482 18.7419 14.2687 19.5644 14.7097 20.3134C15.1507 21.0624 15.7457 21.6574 16.4947 22.0984C17.2437 22.5394 18.0662 22.7599 18.9622 22.7599C19.8582 22.7599 20.6842 22.5394 21.4402 22.0984C22.1962 21.6574 22.7947 21.0589 23.2357 20.3029C23.6767 19.5469 23.8972 18.7279 23.8972 17.8459ZM25.2412 12.7219C25.2412 12.3999 25.1292 12.1269 24.9052 11.9029C24.6812 11.6789 24.4082 11.5669 24.0862 11.5669C23.7642 11.5669 23.4947 11.6789 23.2777 11.9029C23.0607 12.1269 22.9522 12.3964 22.9522 12.7114C22.9522 13.0264 23.0642 13.2959 23.2882 13.5199C23.5122 13.7439 23.7817 13.8559 24.0967 13.8559C24.4117 13.8559 24.6812 13.7474 24.9052 13.5304C25.1292 13.3134 25.2412 13.0439 25.2412 12.7219ZM18.9622 9.97087C19.1022 9.97087 19.3472 9.97087 19.6972 9.97087C20.8452 9.95687 21.7272 9.96387 22.3432 9.99187C23.4072 10.0479 24.1702 10.1669 24.6322 10.3489C25.0102 10.4889 25.3742 10.7339 25.7242 11.0839C26.0322 11.3919 26.2772 11.7559 26.4592 12.1759C26.6412 12.6379 26.7602 13.4009 26.8162 14.4649C26.8442 15.0809 26.8512 15.9629 26.8372 17.1109V18.5599C26.8512 19.7219 26.8442 20.6039 26.8162 21.2059C26.7602 22.2699 26.6412 23.0259 26.4592 23.4739C26.2772 23.9219 26.0287 24.3034 25.7137 24.6184C25.3987 24.9334 25.0382 25.1679 24.6322 25.3219C24.1562 25.5179 23.3722 25.6439 22.2802 25.6999C21.6642 25.7279 20.7682 25.7349 19.5922 25.7209H18.3322C17.1702 25.7349 16.2812 25.7279 15.6652 25.6999C14.5732 25.6439 13.7892 25.5179 13.3132 25.3219C12.8792 25.1539 12.5082 24.9159 12.2002 24.6079C11.8922 24.2999 11.6542 23.9289 11.4862 23.4949C11.2902 23.0189 11.1642 22.2349 11.1082 21.1429C11.0802 20.5269 11.0732 19.6379 11.0872 18.4759V17.2159C11.0732 16.0399 11.0802 15.1439 11.1082 14.5279C11.1642 13.4359 11.2902 12.6519 11.4862 12.1759C11.6402 11.7699 11.8817 11.4024 12.2107 11.0734C12.5397 10.7444 12.9072 10.5029 13.3132 10.3489C13.7752 10.1669 14.5382 10.0479 15.6022 9.99187C16.2042 9.96387 17.0862 9.95687 18.2482 9.97087H18.9622ZM28.5592 17.8459C28.5592 17.6919 28.5592 17.4679 28.5592 17.1739C28.5592 15.7179 28.5382 14.6189 28.4962 13.8769C28.4682 13.0509 28.3422 12.3299 28.1182 11.7139C27.8802 10.9999 27.4952 10.3804 26.9632 9.85537C26.4312 9.33037 25.8082 8.94187 25.0942 8.68987C24.4922 8.46587 23.7712 8.33287 22.9312 8.29087C22.2312 8.26287 21.1742 8.24887 19.7602 8.24887H18.1642C16.7642 8.24887 15.7142 8.26287 15.0142 8.29087C14.1602 8.33287 13.4322 8.46587 12.8302 8.68987C12.1162 8.94187 11.4967 9.33037 10.9717 9.85537C10.4467 10.3804 10.0582 10.9999 9.80623 11.7139C9.59623 12.3159 9.47023 13.0369 9.42823 13.8769C9.38623 14.7589 9.36523 16.0784 9.36523 17.8354C9.36523 19.5924 9.38623 20.9049 9.42823 21.7729C9.47023 22.6409 9.59623 23.3689 9.80623 23.9569C10.0582 24.6709 10.4467 25.2939 10.9717 25.8259C11.4967 26.3579 12.1162 26.7499 12.8302 27.0019C13.4322 27.2119 14.1602 27.3379 15.0142 27.3799C15.7422 27.4219 16.8412 27.4429 18.3112 27.4429H19.6342C21.1042 27.4429 22.2032 27.4219 22.9312 27.3799C23.7712 27.3379 24.4922 27.2119 25.0942 27.0019C25.8082 26.7499 26.4312 26.3579 26.9632 25.8259C27.4952 25.2939 27.8802 24.6709 28.1182 23.9569C28.3422 23.3549 28.4682 22.6339 28.4962 21.7939C28.5382 21.0659 28.5592 19.9669 28.5592 18.4969V17.8459Z" fill="white"/>
<defs>
<linearGradient id="paint0_linear_3002_6925" x1="5.25" y1="0.874122" x2="30.325" y2="35.1741" gradientUnits="userSpaceOnUse">
<stop stop-color="#305DFF"/>
<stop offset="0.144506" stop-color="#7A00F4"/>
<stop offset="0.30322" stop-color="#CC03A0"/>
<stop offset="0.465768" stop-color="#C6009A"/>
<stop offset="0.730186" stop-color="#F49300"/>
<stop offset="0.93815" stop-color="#A70082"/>
<stop offset="1" stop-color="#D300A5"/>
</linearGradient>
</defs>
</svg>
