<svg width="65" height="65" viewBox="0 0 65 65" fill="none" xmlns="http://www.w3.org/2000/svg">
<path d="M23.195 23.1982C21.362 25.0312 20.1137 27.3666 19.608 29.9091C19.1023 32.4515 19.3618 35.0869 20.3538 37.4818C21.3459 39.8768 23.0258 41.9238 25.1812 43.364C27.3366 44.8042 29.8707 45.5729 32.4629 45.5729C35.0552 45.5729 37.5893 44.8042 39.7447 43.364C41.9001 41.9238 43.58 39.8768 44.572 37.4818C45.5641 35.0869 45.8236 32.4515 45.3179 29.9091C44.8122 27.3666 43.5639 25.0312 41.7308 23.1982C40.5138 21.9811 39.0689 21.0156 37.4787 20.357C35.8885 19.6983 34.1841 19.3593 32.4629 19.3593C30.7417 19.3593 29.0374 19.6983 27.4472 20.357C25.857 21.0156 24.4121 21.9811 23.195 23.1982ZM39.8773 39.8804C38.4108 41.3468 36.5425 42.3454 34.5085 42.75C32.4746 43.1546 30.3663 42.947 28.4503 42.1533C26.5344 41.3597 24.8968 40.0158 23.7446 38.2915C22.5925 36.5671 21.9775 34.5399 21.9775 32.4661C21.9775 30.3922 22.5925 28.365 23.7446 26.6407C24.8968 24.9163 26.5344 23.5724 28.4503 22.7788C30.3663 21.9852 32.4746 21.7775 34.5085 22.1821C36.5425 22.5867 38.4108 23.5853 39.8773 25.0517C41.8437 27.0181 42.9484 29.6851 42.9484 32.4661C42.9484 35.247 41.8437 37.914 39.8773 39.8804ZM35.2433 27.8321L32.4629 30.6125L29.6826 27.8321C29.4368 27.5863 29.1034 27.4482 28.7558 27.4482C28.4082 27.4482 28.0748 27.5863 27.829 27.8321C27.5832 28.0779 27.4451 28.4113 27.4451 28.7589C27.4451 29.1065 27.5832 29.4399 27.829 29.6857L30.6094 32.4661L27.829 35.2464C27.5832 35.4922 27.4451 35.8256 27.4451 36.1732C27.4451 36.5208 27.5832 36.8542 27.829 37.1C28.0748 37.3458 28.4082 37.4839 28.7558 37.4839C29.1034 37.4839 29.4368 37.3458 29.6826 37.1L32.4629 34.3196L35.2433 37.1C35.4891 37.3458 35.8225 37.4839 36.1701 37.4839C36.5177 37.4839 36.8511 37.3458 37.0969 37.1C37.3427 36.8542 37.4808 36.5208 37.4808 36.1732C37.4808 35.8256 37.3427 35.4922 37.0969 35.2464L34.3165 32.4661L37.0969 29.6857C37.3427 29.4399 37.4808 29.1065 37.4808 28.7589C37.4808 28.4113 37.3427 28.0779 37.0969 27.8321C36.8511 27.5863 36.5177 27.4482 36.1701 27.4482C35.8225 27.4482 35.4891 27.5863 35.2433 27.8321Z" fill="#FFA8A8"/>
</svg>
