<svg width="68" height="91" viewBox="0 0 68 91" fill="none" xmlns="http://www.w3.org/2000/svg">
<path fill-rule="evenodd" clip-rule="evenodd" d="M35.7609 1.17256L38.5766 3.64043C41.4395 6.14957 44.8289 7.22111 48.5895 6.80622L51.651 6.46822C52.9791 6.32175 54.1902 7.19235 54.4948 8.5125L55.3437 12.1885C56.2065 15.9265 58.3281 18.8161 61.6109 20.724L64.2835 22.2772C65.4426 22.9506 65.9185 24.3778 65.4005 25.6274L63.9582 29.1081C62.4916 32.6473 62.5351 36.2508 64.086 39.7525L65.3485 42.6032C65.8962 43.8396 65.4547 45.2782 64.3121 45.9801L61.1294 47.9357C57.8936 49.9238 55.8422 52.8648 55.069 56.6231L54.4395 59.683C54.1665 61.01 52.9765 61.9105 51.6452 61.7968L47.9383 61.4801C44.1692 61.1579 40.8062 62.3131 38.0042 64.8923L35.7232 66.992C34.734 67.9027 33.2498 67.9213 32.239 67.0352L29.423 64.5673C26.5601 62.0579 23.1707 60.9864 19.4104 61.4015L16.3488 61.7393C15.0208 61.8858 13.8094 61.0152 13.5047 59.6953L12.6561 56.0193C11.7933 52.281 9.67145 49.3914 6.38889 47.4838L3.71633 45.9306C2.55701 45.2569 2.0811 43.8297 2.59906 42.5801L4.04166 39.0994C5.50796 35.5605 5.46474 31.9569 3.91385 28.4552L2.65112 25.6045C2.10364 24.3679 2.54514 22.9296 3.68774 22.2274L6.87015 20.2718C10.106 18.2837 12.1577 15.3427 12.9308 11.5844L13.5603 8.52475C13.8331 7.19753 15.0233 6.29723 16.3544 6.41091L20.0613 6.72767C23.8304 7.04963 27.1936 5.89436 29.9954 3.3154L32.2764 1.21549C33.2658 0.304815 34.75 0.28641 35.7609 1.17256ZM33.9999 15.4554C44.1466 15.4554 52.3721 23.8046 52.3721 34.1037C52.3721 44.4029 44.1466 52.7521 33.9999 52.7521C23.8529 52.7521 15.6275 44.4029 15.6275 34.1037C15.6275 23.8046 23.8529 15.4554 33.9999 15.4554ZM56.0106 77.9372L66.0142 82.7526C66.2963 82.8883 66.6169 82.831 66.8361 82.6055C67.0554 82.3797 67.1077 82.0535 66.9699 81.7691L57.5696 62.3424C57.4316 62.057 57.1434 61.8995 56.8327 61.9391C56.522 61.9787 56.2813 62.2042 56.2174 62.5155L56.1084 63.0448C55.8182 64.457 54.5517 65.415 53.1354 65.294L49.1915 64.957C45.555 64.6461 42.2741 65.628 39.4712 67.8598C39.197 68.0782 39.1156 68.454 39.2745 68.7688L50.0445 90.1216C50.1805 90.3912 50.4484 90.5424 50.7456 90.5174C51.0428 90.4924 51.2826 90.2985 51.373 90.0098L55.0148 78.3768C55.0801 78.1683 55.2168 78.0146 55.4145 77.9275C55.612 77.8403 55.8159 77.8436 56.0106 77.9372ZM11.9893 77.9372L1.98529 82.7526C1.70342 82.8883 1.38249 82.8309 1.1636 82.6052C0.944464 82.3797 0.892185 82.0535 1.02975 81.7691L10.8679 61.4374C11.0048 61.1546 11.288 60.9975 11.5964 61.0329C11.9045 61.0687 12.1457 61.2864 12.2166 61.5931L12.5547 63.058C12.8789 64.4624 14.1676 65.3886 15.5805 65.233L18.8382 64.8735C22.4814 64.4713 25.7976 65.3813 28.6614 67.5631C28.9442 67.7787 29.0316 68.1617 28.8704 68.4815L17.9552 90.1216C17.8192 90.3912 17.5515 90.5424 17.2543 90.5174C16.9569 90.4924 16.7173 90.2985 16.6269 90.0098L12.9848 78.3768C12.9195 78.1683 12.7831 78.0146 12.5854 77.9275C12.3879 77.8403 12.1838 77.8436 11.9893 77.9372ZM37.3555 30.5129L34.7081 23.5935C34.5965 23.3017 34.3309 23.1203 34.0223 23.1255C33.714 23.1307 33.4544 23.3211 33.3524 23.6164L31.0904 30.1669C30.9917 30.4527 30.747 30.6395 30.4491 30.6565L23.1471 31.074C22.8392 31.0917 22.5873 31.2922 22.4967 31.5915C22.4065 31.8908 22.5043 32.2003 22.7497 32.3901L28.1885 36.5978C28.4258 36.7813 28.5252 37.0756 28.4492 37.3683L26.5839 44.546C26.5054 44.8486 26.6153 45.1538 26.8677 45.3335C27.1203 45.5135 27.4405 45.5144 27.6942 45.3364L33.3175 41.3863C33.5629 41.2139 33.8692 41.2087 34.1201 41.3726L40.2689 45.3913C40.5282 45.5607 40.8484 45.5491 41.0947 45.3609C41.3413 45.1724 41.4412 44.8637 41.3526 44.5639L39.3893 37.9148C39.3035 37.6247 39.3932 37.3273 39.6245 37.1358L45.2901 32.442C45.5289 32.2441 45.6168 31.9314 45.5164 31.6354C45.4162 31.3391 45.1578 31.1474 44.8495 31.1403L38.0129 30.9808C37.7146 30.974 37.4636 30.7954 37.3555 30.5129Z" fill="#0288D1"/>
</svg>
