<svg width="92" height="91" viewBox="0 0 92 91" fill="none" xmlns="http://www.w3.org/2000/svg">
<path fill-rule="evenodd" clip-rule="evenodd" d="M44.4835 32.9647L50.1435 27.3143C47.2933 23.2158 46.5256 17.0999 48.698 12.5525C50.8687 8.00882 55.4093 4.94301 60.5031 2.86014L60.6766 2.7892C63.3352 1.70187 63.3391 1.70028 66.1112 0.986554C67.667 0.585779 74.4101 -0.0173572 75.7598 1.47361C76.2727 2.04024 76.3525 3.05875 75.9044 3.76108L66.5947 13.0407C66.0514 13.58 65.1994 14.4609 65.838 15.5481L73.2856 22.9582C73.506 23.177 73.7314 23.414 73.9601 23.6547C74.8709 24.6127 75.8359 25.6279 76.7585 25.7739C77.7284 25.7539 78.397 25.0439 79.2195 24.1705C79.4973 23.8755 79.7926 23.5618 80.1231 23.2499C80.6164 22.7841 81.1411 22.25 81.6673 21.7143C82.4014 20.967 83.1385 20.2166 83.7979 19.6446C84.0267 19.4461 84.1422 19.3123 84.2716 19.1626C84.3463 19.076 84.4257 18.9841 84.5342 18.8713C84.7266 18.6711 84.8386 18.5759 84.961 18.4719C85.1586 18.304 85.3831 18.1132 86.0161 17.4207C86.1314 17.2946 86.2725 17.1787 86.435 17.0452C86.7296 16.8033 87.0946 16.5035 87.5047 15.9798C87.9071 15.4659 88.8493 15.1013 89.6735 15.4455C90.8829 15.9506 91.0908 18.1612 91.2317 19.6598L91.2404 19.752C91.7216 24.8468 88.938 30.7107 87.9244 32.846C87.7174 33.2821 87.5842 33.5627 87.5677 33.6494C87.303 33.8549 87.0357 34.3539 86.8411 34.7172C86.8258 34.7457 86.811 34.7734 86.7966 34.8001L85.2735 37.2225C85.1422 37.4101 85.0198 37.5629 84.9028 37.709C84.7241 37.9323 84.5578 38.14 84.3909 38.4325L81.2204 41.4287C80.8653 41.7128 80.2741 42.0947 79.8466 42.3004C79.7692 42.3377 79.6895 42.373 79.6068 42.4096C79.4473 42.4802 79.2768 42.5557 79.0906 42.6596C78.9436 42.7416 78.824 42.796 78.7145 42.8457C78.5736 42.9097 78.4497 42.966 78.3065 43.0636C77.9025 43.1212 77.5757 43.2306 77.2141 43.3516C76.3818 43.6302 75.3656 43.9703 72.801 43.8824C70.5162 43.8039 66.7186 42.6274 64.5947 41.4287L64.2877 41.3523C64.0275 41.738 63.328 42.3997 62.7652 42.9321C62.561 43.1253 62.3748 43.3014 62.2341 43.4412C62.0397 43.6343 61.8605 43.8139 61.6963 43.9785C60.9671 44.7094 60.5335 45.1441 60.3821 45.1451C59.9156 45.0826 59.611 44.7735 59.2495 44.4068C59.1705 44.3266 59.0888 44.2437 59.002 44.16C58.9049 44.0663 58.8125 43.9868 58.7271 43.9135C58.3968 43.6297 58.1726 43.437 58.1983 42.868C58.3077 40.4487 58.3373 39.2479 56.3407 37.2618C54.3138 35.2458 53.0302 34.1661 49.8898 34.4055C48.8598 34.4841 47.308 34.9822 46.5405 35.6067C46.4174 35.707 46.3142 35.8103 46.2369 35.9159C46.1045 35.9052 45.9416 35.8781 45.825 35.7658L44.0784 34.0827C43.9196 33.9297 43.8316 33.8486 43.8254 33.7616C43.8153 33.6209 44.0192 33.4649 44.4835 32.9647ZM0.704102 5.02477V5.15937L5.08926 12.6606C5.24764 12.9095 5.38979 13.1749 5.53443 13.4449C5.66775 13.6937 5.80319 13.9466 5.95541 14.1941C6.00124 14.2686 6.05402 14.3518 6.11041 14.4408C6.364 14.8409 6.69076 15.3565 6.78872 15.7074C7.10497 16.0507 7.35615 16.5151 7.56189 16.9275C7.66354 17.1312 7.79037 17.3538 7.91625 17.5749L7.91626 17.5749L7.91627 17.5749C8.04094 17.7938 8.16467 18.011 8.26207 18.2065L11.3495 17.7728C11.7989 17.7098 12.1308 17.6507 12.3838 17.6057C12.8245 17.5272 13.0257 17.4914 13.192 17.5517C13.3317 17.6024 13.4467 17.7209 13.6585 17.939C13.7277 18.0102 13.8072 18.0921 13.9013 18.1858L40.2495 44.3714C40.6123 44.6056 41.1616 45.1792 41.422 45.5253C41.1592 45.6846 39.4942 47.6132 39.2975 47.9069C36.5009 52.0816 41.4592 55.1579 44.0421 54.3713C44.3468 54.2785 44.576 54.1975 44.7538 54.1346C45.3261 53.9323 45.3672 53.9177 45.6839 54.3028C46.2829 55.0322 46.9246 55.6047 47.5596 56.1712L47.5596 56.1712C48.001 56.565 48.4392 56.9559 48.8576 57.3947C49.2214 57.7761 49.2005 58.0139 49.1351 58.7585L49.1351 58.7586C49.1157 58.9789 49.0924 59.2437 49.0741 59.5696C49.1213 60.5936 49.2915 61.821 50.1303 62.7375C53.2158 66.1078 57.6246 70.693 60.0521 73.1095C60.4183 73.3146 68.7278 81.5254 69.0544 82.0246C69.6693 82.497 70.6987 83.5647 71.832 84.7401L71.8321 84.7403C73.4176 86.3847 75.2062 88.2398 76.3474 88.9709C77.0823 89.4415 77.9283 89.826 78.7729 90.0818C85.5958 92.1486 91.82 86.5996 91.149 79.8197C90.9544 77.8522 89.9139 75.7208 88.5974 74.2963C87.3351 72.9304 64.7503 50.5592 64.1712 50.1285C62.4674 48.8604 60.355 48.7297 59.1148 48.6529C58.5825 48.62 58.2109 48.597 58.1013 48.4982L56.9372 47.2385C56.5387 46.9192 56.1284 46.4973 55.7336 46.0914C55.2837 45.6288 54.854 45.1871 54.4853 44.9418C54.5132 44.7025 54.6051 44.4239 54.7079 44.112L54.7079 44.112C55.0366 43.1149 55.4778 41.7766 54.3037 40.2856C52.9004 38.5036 51.9108 38.2843 51.3237 38.1543C51.1127 38.1075 50.9537 38.0723 50.8462 37.9802C49.6225 38.0676 48.9677 38.2576 48.3709 38.6904C48.1876 38.8233 46.0763 40.8437 45.9788 41.002C45.6301 40.7435 45.0521 40.1982 44.8166 39.8381C44.1446 39.3218 32.5128 27.7173 24.7974 20.02L24.797 20.0195L24.7959 20.0185C21.728 16.9578 19.2796 14.515 18.386 13.6333C18.3071 13.5554 18.2309 13.4912 18.1609 13.4322C17.9136 13.2238 17.7431 13.08 17.796 12.6253C17.8279 12.3513 17.8764 12.0553 17.9251 11.7586L17.9251 11.7586C17.9587 11.5539 17.9923 11.3489 18.0206 11.1506L18.4528 8.08533C18.2664 7.99304 18.0631 7.87903 17.8563 7.76307C17.6245 7.63303 17.3882 7.50054 17.1665 7.39348C16.7761 7.20441 16.2738 6.92644 15.9398 6.62356C15.5773 6.52375 15.0749 6.20888 14.6587 5.94805C14.5496 5.87968 14.4465 5.81503 14.3533 5.75894C14.1143 5.61493 13.8752 5.48935 13.6395 5.36552L13.6394 5.36552C13.3775 5.22796 13.1197 5.09256 12.8707 4.93642L9.04505 2.7723C8.86796 2.67506 8.70401 2.58118 8.53809 2.48617C8.38845 2.40049 8.23722 2.3139 8.07331 2.22309L5.31368 0.583675H5.17829L0.704102 5.02477ZM56.4731 56.9769L58.5124 54.9861L86.2344 82.9697L84.1949 84.9603L56.4731 56.9769ZM1.56803 67.1676C0.222156 72.6909 0.906498 78.2304 4.33558 82.7434C8.21801 87.8569 13.7126 90.6742 20.2517 90.4442C26.6569 90.2186 32.8322 86.2365 35.7565 80.5783C37.3371 77.5202 38.0332 74.3052 37.7132 70.1415L37.491 68.5341C37.337 68.1352 37.42 68.0542 37.6225 67.8566C37.6421 67.8375 37.6629 67.8172 37.6847 67.7954L41.5007 64.0303C41.9871 63.5659 42.4362 63.1115 42.8919 62.6504C43.1485 62.3908 43.4072 62.1291 43.6758 61.8623C44.027 61.5134 44.3146 61.2541 44.5479 61.044C45.2229 60.4356 45.4418 60.2383 45.4252 59.4692C45.3697 59.0591 45.1948 58.9235 44.8971 58.6926L44.8235 58.6353C44.6758 58.5196 44.5789 58.4253 44.5004 58.3489L44.5003 58.3489C44.2998 58.1538 44.2196 58.0758 43.7214 58.0569C39.746 57.9049 38.9621 57.4212 36.1795 54.3543C35.0589 53.1192 34.5224 50.7231 34.8087 49.0025C34.9535 48.0815 35.3635 46.8387 35.937 46.1327C36.0125 46.0396 36.0859 45.9692 36.1482 45.9095C36.3539 45.7122 36.4371 45.6324 36.0701 45.2401C35.7059 44.8511 35.449 44.6231 35.1961 44.3987C35.038 44.2585 34.8815 44.1195 34.7012 43.9435C34.1881 43.4429 33.956 43.4399 33.4257 43.9347L31.3555 46.0086C30.6874 46.6717 29.9297 47.4117 29.1458 48.1772L29.1452 48.1778L29.1451 48.178C27.5239 49.7613 25.7911 51.4535 24.5094 52.8006C24.1398 53.1892 23.5065 53.8503 23.1154 54.1371C14.0773 52.7251 3.76929 58.1342 1.56803 67.1676ZM21.1461 64.1615L24.2938 67.1403L27.4416 70.1189L26.417 74.314L25.3921 78.5097L21.2195 79.7262L17.0468 80.9432L13.8993 77.9646L10.7514 74.9858L11.7759 70.7905L12.8008 66.595L16.9734 65.3785L21.1461 64.1615Z" fill="#0288D1"/>
</svg>
