<svg width="106" height="91" viewBox="0 0 106 91" fill="none" xmlns="http://www.w3.org/2000/svg">
<path fill-rule="evenodd" clip-rule="evenodd" d="M53.1067 30.7232C51.6482 27.1694 48.7946 23.6775 44.6349 23.6775C42.7254 23.6775 40.9565 24.4315 39.506 25.7146L39.3106 25.5375C39.2631 22.3265 39.2155 19.1155 39.1678 15.9044L39.0964 11.09C39.0875 10.4863 39.5301 9.97837 40.1295 9.90429C51.8263 8.45871 62.3658 5.19416 72.0821 0.635444C72.4344 0.470258 72.8096 0.482715 73.1505 0.670611C82.5521 5.85465 93.0226 8.90153 104.129 10.6756C104.712 10.7686 105.13 11.2674 105.121 11.857C105.101 13.1571 105.082 14.4266 105.064 15.6668L105.064 15.6771C104.596 48.16 104.418 60.5248 72.626 74.5917V73.9471C72.626 73.6917 72.6961 73.4724 72.8442 73.2645C74.9146 70.3552 74.7683 66.3577 73.2454 62.8956C73.1324 62.6388 73.1132 62.3838 73.1867 62.1129C73.6545 60.3897 73.8545 58.7689 73.715 57.3693C73.6512 56.7288 74.1165 56.1538 74.7564 56.0827C84.0809 55.0442 91.3316 47.1369 91.3316 37.535C91.3316 27.2267 82.9752 18.8703 72.6669 18.8703C64.769 18.8703 58.0166 23.7761 55.2912 30.7067C55.1114 31.1633 54.6951 31.4496 54.2044 31.4534C53.7137 31.4569 53.293 31.1771 53.1067 30.7232ZM20.9241 65.2117L20.8176 57.7949C26.7525 47.6061 30.2141 45.0262 34.4035 41.9039C34.7504 41.6453 35.1023 41.383 35.4611 41.1124C39.3022 38.2145 39.7364 35.7877 40.3976 32.0926C40.6064 30.9253 40.838 29.6315 41.2067 28.1562C48.7366 24.2312 50.6707 36.0311 48.8888 41.399C48.0658 43.8781 46.6086 46.295 45.4046 48.2918C43.7393 51.0539 42.5585 53.0123 44.2111 53.2199C49.497 53.8843 55.1256 53.1718 59.5767 52.6084C60.2606 52.5219 60.9167 52.4388 61.5395 52.3648C68.6249 51.5227 69.9053 56.3395 68.181 62.2289C70.094 66.261 70.1367 71.119 66.9338 74.1451C68.5462 77.5153 66.9495 80.6133 64.4398 82.3201C64.3344 86.2161 63.7031 90.1863 58.5602 90.2552C55.3462 90.2983 52.0376 90.3354 48.7427 90.3724C44.7337 90.4175 40.7449 90.4623 36.9716 90.5172C30.9627 90.6048 21.2605 88.6988 21.1596 81.6307C21.0798 76.0521 21.0062 70.926 20.9288 65.5343L20.9263 65.3619L20.9241 65.2117ZM13.9292 55.5155H4.19318C2.37045 55.5155 0.878906 57.0067 0.878906 58.8297V86.587C0.878906 88.41 2.37045 89.9013 4.19318 89.9013H13.9292C15.7522 89.9013 17.2434 88.41 17.2434 86.587V58.8297C17.2434 57.0067 15.7522 55.5155 13.9292 55.5155ZM11.463 83.0784C11.463 81.3481 10.0604 79.9458 8.33041 79.9458C6.60014 79.9458 5.19782 81.3481 5.19782 83.0784C5.19782 84.8083 6.60014 86.211 8.33041 86.211C10.0604 86.211 11.463 84.8083 11.463 83.0784ZM62.3095 38.6808L63.8846 36.8319C64.2942 36.3509 65.0104 36.279 65.5075 36.6691L69.4082 39.729C69.8919 40.1086 70.5813 40.0534 70.999 39.6022L80.0183 29.8549C80.4484 29.3898 81.1697 29.3488 81.6501 29.7619L83.2093 31.1028C83.4602 31.3186 83.5975 31.5954 83.617 31.9255C83.6364 32.2556 83.5331 32.5468 83.3098 32.7906L71.0631 46.1618C70.6359 46.6282 69.9162 46.6736 69.4339 46.2648L62.4447 40.3427C62.1968 40.1326 62.0586 39.8634 62.0324 39.5398C62.0059 39.2162 62.0989 38.9282 62.3095 38.6808Z" fill="#0288D1"/>
</svg>
