<svg width="53" height="53" viewBox="0 0 53 53" fill="none" xmlns="http://www.w3.org/2000/svg">
<path d="M36.9854 26.2524C36.9854 29.0333 35.8807 31.7003 33.9143 33.6668C31.9479 35.6332 29.2809 36.7379 26.5 36.7379C23.7191 36.7379 21.0521 35.6332 19.0857 33.6668C17.1193 31.7003 16.0145 29.0333 16.0145 26.2524C16.0145 23.4715 17.1193 20.8045 19.0857 18.8381C21.0521 16.8717 23.7191 15.767 26.5 15.767C27.4961 15.767 28.466 15.9112 29.3835 16.1733L31.4412 14.1155C29.9209 13.4864 28.2563 13.1456 26.5 13.1456C24.7788 13.1456 23.0744 13.4846 21.4842 14.1433C19.894 14.802 18.4492 15.7674 17.2321 16.9845C14.7741 19.4425 13.3932 22.7763 13.3932 26.2524C13.3932 29.7286 14.7741 33.0623 17.2321 35.5203C18.4492 36.7374 19.894 37.7029 21.4842 38.3615C23.0744 39.0202 24.7788 39.3592 26.5 39.3592C29.9761 39.3592 33.3099 37.9783 35.7679 35.5203C38.2259 33.0623 39.6068 29.7286 39.6068 26.2524H36.9854ZM21.1393 23.7359L19.2912 25.5971L25.1893 31.4951L38.2961 18.3883L36.448 16.5272L25.1893 27.7859L21.1393 23.7359Z" fill="#4CAF4F"/>
</svg>
