<svg width="37" height="37" viewBox="0 0 37 37" fill="none" xmlns="http://www.w3.org/2000/svg">
<rect x="0.5" y="0.224121" width="36" height="36" rx="18" fill="#11ACF8"/>
<path fill-rule="evenodd" clip-rule="evenodd" d="M29.5562 12.6044C29.7161 12.097 29.5562 11.7241 28.7953 11.7241C28.7953 11.7241 27.1321 11.7241 26.2791 11.7241C25.6393 11.7241 25.3443 12.0462 25.1844 12.4014C25.1844 12.4014 23.9048 15.3698 22.0921 17.2979C21.5056 17.856 21.239 18.0336 20.9191 18.0336C20.7592 18.0336 20.5193 17.856 20.5193 17.3487V12.6044C20.5193 11.9955 20.342 11.7241 19.8088 11.7241H15.8548C15.455 11.7241 15.2145 12.0067 15.2145 12.2746C15.2145 12.8518 16.1208 12.9849 16.2142 14.6086V18.1352C16.2142 18.9083 16.0675 19.0485 15.7476 19.0485C14.8946 19.0485 12.8197 16.0669 11.589 12.6551C11.3479 11.992 11.106 11.7241 10.4629 11.7241H7.94669C7.22778 11.7241 7.08398 12.0462 7.08398 12.4014C7.08398 13.0357 7.93704 16.1816 11.0559 20.3424C13.1352 23.1838 16.0647 24.7241 18.7304 24.7241C20.3299 24.7241 20.5277 24.382 20.5277 23.7927V21.6452C20.5277 20.961 20.6793 20.8244 21.1857 20.8244C21.5589 20.8244 22.1987 21.002 23.6916 22.372C25.3976 23.9957 25.6789 24.7241 26.6385 24.7241H29.1547C29.8737 24.7241 30.2331 24.382 30.0257 23.7069C29.7988 23.034 28.9843 22.0578 27.9034 20.9005C27.3169 20.2409 26.4373 19.5305 26.1707 19.1753C25.7975 18.7187 25.9041 18.5157 26.1707 18.1098C26.1707 18.1098 29.2363 13.9997 29.5562 12.6044Z" fill="white"/>
</svg>
