<svg width="40" height="40" viewBox="0 0 40 40" fill="none" xmlns="http://www.w3.org/2000/svg">
<g id="Group">
<path id="bg" d="M0 13.7145C0 8.91408 0 6.51385 0.93423 4.68033C1.756 3.06751 3.06726 1.75625 4.68008 0.934474C6.51361 0.000244141 8.91384 0.000244141 13.7143 0.000244141H26.2857C31.0862 0.000244141 33.4864 0.000244141 35.3199 0.934474C36.9327 1.75625 38.244 3.06751 39.0658 4.68033C40 6.51385 40 8.91408 40 13.7145V26.286C40 31.0864 40 33.4866 39.0658 35.3202C38.244 36.933 36.9327 38.2442 35.3199 39.066C33.4864 40.0002 31.0862 40.0002 26.2857 40.0002H13.7143C8.91384 40.0002 6.51361 40.0002 4.68008 39.066C3.06726 38.2442 1.756 36.933 0.93423 35.3202C0 33.4866 0 31.0864 0 26.286V13.7145Z" fill="#148CE2"/>
<path id="logo" fill-rule="evenodd" clip-rule="evenodd" d="M34.3116 12.2188C34.5201 11.5163 34.3116 11 33.3191 11C33.3191 11 31.1497 11 30.0371 11C29.2026 11 28.8178 11.446 28.6092 11.9378C28.6092 11.9378 26.9402 16.0478 24.5758 18.7175C23.8109 19.4904 23.4631 19.7362 23.0459 19.7362C22.8373 19.7362 22.5243 19.4904 22.5243 18.7878V12.2188C22.5243 11.3757 22.2931 11 21.5976 11H16.4402C15.9187 11 15.605 11.3913 15.605 11.7622C15.605 12.5614 16.7872 12.7457 16.909 14.994V19.8768C16.909 20.9474 16.7177 21.1415 16.3004 21.1415C15.1878 21.1415 12.4813 17.0131 10.8762 12.2891C10.5616 11.3709 10.2461 11 9.40728 11H6.12527C5.18755 11 5 11.446 5 11.9378C5 12.816 6.11268 17.1719 10.1808 22.933C12.8929 26.8673 16.714 29 20.191 29C22.2772 29 22.5353 28.5263 22.5353 27.7104V24.7368C22.5353 23.7895 22.733 23.6004 23.3936 23.6004C23.8804 23.6004 24.7149 23.8463 26.6621 25.7432C28.8874 27.9914 29.2542 29 30.5059 29H33.7879C34.7257 29 35.1945 28.5263 34.924 27.5915C34.6281 26.6599 33.5656 25.3081 32.1558 23.7058C31.3908 22.7925 30.2434 21.8089 29.8957 21.317C29.4089 20.6848 29.548 20.4037 29.8957 19.8417C29.8957 19.8417 33.8943 14.1509 34.3116 12.2188Z" fill="white"/>
</g>
</svg>
