<svg width="37" height="37" viewBox="0 0 37 37" fill="none" xmlns="http://www.w3.org/2000/svg">
<rect x="0.5" y="0.224121" width="36" height="36" rx="18" fill="#1CB220"/>
<g clip-path="url(#clip0_3002_6916)">
<path fill-rule="evenodd" clip-rule="evenodd" d="M26.0252 9.77631C25.0566 8.80593 23.9041 8.0365 22.6345 7.51258C21.365 6.98866 20.0036 6.72068 18.6292 6.72415C12.8661 6.72415 8.17464 11.3922 8.17232 17.1302C8.17232 18.9641 8.65335 20.7539 9.56765 22.3327L8.08496 27.7241L13.6279 26.2763C15.1611 27.107 16.8789 27.5425 18.6245 27.5433H18.6292C24.3911 27.5433 29.0826 22.8752 29.0849 17.1372C29.0889 15.7699 28.8205 14.4154 28.2953 13.152C27.7701 11.8885 26.9986 10.7412 26.0252 9.77631ZM18.6292 25.7871H18.6257C17.0691 25.7873 15.5411 25.3704 14.2021 24.5804L13.8853 24.3926L10.5961 25.2516L11.4731 22.0603L11.267 21.7334C10.3967 20.3545 9.93598 18.7587 9.93804 17.1302C9.94036 12.3613 13.8387 8.48149 18.6327 8.48149C19.7744 8.47897 20.9053 8.70183 21.9599 9.13719C23.0145 9.57255 23.9719 10.2118 24.7766 11.0178C25.5856 11.82 26.2269 12.7739 26.6633 13.8242C27.0997 14.8746 27.3227 16.0006 27.3192 17.1372C27.3169 21.9061 23.4185 25.7871 18.6292 25.7871ZM23.3964 19.3084C23.1343 19.1774 21.8508 18.5491 21.6109 18.4622C21.3721 18.3752 21.1986 18.3323 21.0239 18.592C20.8492 18.8516 20.3483 19.437 20.1958 19.6109C20.0432 19.7848 19.8906 19.8057 19.6297 19.6758C19.3688 19.546 18.5267 19.2713 17.5285 18.3857C16.7517 17.6959 16.2275 16.8451 16.075 16.5843C15.9224 16.3234 16.0587 16.1832 16.1903 16.0534C16.3079 15.9374 16.4512 15.7496 16.5816 15.5978C16.7121 15.4459 16.7552 15.3381 16.8425 15.1642C16.9299 14.9904 16.8868 14.8385 16.8204 14.7087C16.7552 14.5777 16.2322 13.2979 16.0144 12.7775C15.8036 12.2732 15.5881 12.3405 15.4274 12.3335C15.2609 12.3267 15.0943 12.3236 14.9277 12.3242C14.7952 12.3276 14.6649 12.3581 14.5448 12.414C14.4248 12.4699 14.3176 12.5498 14.23 12.6488C13.9901 12.9096 13.3157 13.5379 13.3157 14.8177C13.3157 16.0974 14.2522 17.3343 14.3826 17.5081C14.5131 17.682 16.2252 20.3076 18.8458 21.4343C19.4701 21.7021 19.957 21.8621 20.3355 21.9826C20.961 22.1809 21.5305 22.1519 21.9813 22.0858C22.4833 22.0116 23.5269 21.4575 23.7447 20.8501C23.9625 20.2427 23.9625 19.7222 23.8972 19.6132C23.832 19.5043 23.6561 19.4382 23.3964 19.3084Z" fill="white"/>
</g>
<defs>
<clipPath id="clip0_3002_6916">
<rect width="27" height="23" fill="white" transform="translate(4.08496 6.72412)"/>
</clipPath>
</defs>
</svg>
