<svg width="55" height="40" viewBox="0 0 55 40" fill="none" xmlns="http://www.w3.org/2000/svg">
<g id="Group 1171275566">
<path id="bg" d="M0 13.7143C0 8.91384 0 6.51361 1.28457 4.68008C2.4145 3.06726 3.28528 1.756 5.50291 0.93423C8.02401 0 12.2565 0 18.8571 0H36.1429C42.7435 0 46.976 0 49.4971 0.93423C51.7147 1.756 52.5855 3.06726 53.7154 4.68008C55 6.51361 55 8.91384 55 13.7143V26.2857C55 31.0862 55 33.4864 53.7154 35.3199C52.5855 36.9327 51.7147 38.244 49.4971 39.0658C46.976 40 42.7435 40 36.1429 40H18.8571C12.2565 40 8.02401 40 5.50291 39.0658C3.28528 38.244 2.4145 36.9327 1.28457 35.3199C0 33.4864 0 31.0862 0 26.2857V13.7143Z" fill="#EE0311"/>
<path id="play" d="M23 12.4757V26.5243C23 27.6168 24.1893 28.2938 25.1288 27.7361L36.9591 20.7118C37.8788 20.1657 37.8788 18.8343 36.9591 18.2882L25.1288 11.2639C24.1893 10.7062 23 11.3832 23 12.4757Z" fill="white"/>
</g>
</svg>
