<svg width="207" height="87" viewBox="0 0 207 87" fill="none" xmlns="http://www.w3.org/2000/svg">
<path d="M58.2188 27.1909V25.1073H68.1186V27.1909H64.3745V36.4134H61.9459V27.1909H58.2188ZM76.4728 34.6529C76.6752 34.6529 76.8383 34.6206 76.9619 34.556V36.2196C76.6583 36.4457 76.2311 36.5588 75.6801 36.5588C74.7244 36.5588 74.0892 36.2142 73.7744 35.5251C73.0324 36.2572 72.0654 36.6234 70.8737 36.6234C69.9517 36.6234 69.2039 36.3758 68.6306 35.8805C68.0571 35.385 67.7705 34.7337 67.7705 33.926C67.7705 33.0647 68.0965 32.4078 68.7487 31.9555C69.4008 31.5034 70.1821 31.2772 71.0929 31.2772C72.0485 31.2772 72.8581 31.4441 73.5214 31.778V31.5357C73.5214 30.5235 72.7794 30.0174 71.2952 30.0174C70.3845 30.0174 69.5357 30.2435 68.7487 30.6958V28.7898C69.6032 28.3591 70.6431 28.1438 71.8687 28.1438C73.083 28.1438 74.0499 28.4238 74.7694 28.9837C75.5115 29.5436 75.8825 30.3189 75.8825 31.3095V34.0391C75.8825 34.4483 76.0792 34.6529 76.4728 34.6529ZM73.5214 34.0391V33.2315C73.0267 32.9193 72.442 32.7632 71.7675 32.7632C71.2615 32.7632 70.8568 32.8547 70.5532 33.0377C70.2609 33.2207 70.1146 33.4792 70.1146 33.8131C70.1146 34.1576 70.2496 34.4214 70.5194 34.6045C70.7893 34.7767 71.1547 34.8629 71.6157 34.8629C72.4478 34.8629 73.083 34.5883 73.5214 34.0391ZM80.9853 36.4134H78.6073V28.3538H80.9853V31.3418H84.4426V28.3538H86.8206V36.4134H84.4426V33.2477H80.9853V36.4134ZM98.6768 38.4647H96.3831V36.4134H89.148V28.3538H91.526V34.5075H94.9159V28.3538H97.2938V34.5075H98.6768V38.4647ZM101.411 39.7407C100.714 39.7407 100.152 39.6329 99.7243 39.4176V37.4309C100.118 37.6463 100.545 37.754 101.006 37.754C101.433 37.754 101.787 37.6248 102.069 37.3663C102.361 37.1187 102.631 36.7095 102.878 36.1388L99.252 28.3538H101.816L104.042 33.6515L106.15 28.3538H108.663L104.767 37.2533C104.025 38.9115 102.906 39.7407 101.411 39.7407ZM118.075 36.6234C116.962 36.6234 116.012 36.3057 115.225 35.6705C114.472 35.0459 113.999 34.2329 113.808 33.2315H112.459V36.4134H110.081V28.3538H112.459V31.3257H113.859C114.084 30.3889 114.567 29.6243 115.309 29.0321C116.063 28.4399 116.985 28.1438 118.075 28.1438C119.357 28.1438 120.403 28.553 121.212 29.3714C122.033 30.1681 122.443 31.1695 122.443 32.3755C122.443 33.5814 122.033 34.5937 121.212 35.412C120.403 36.2196 119.357 36.6234 118.075 36.6234ZM118.075 34.6368C118.671 34.6368 119.154 34.4214 119.526 33.9906C119.908 33.56 120.099 33.0215 120.099 32.3755C120.099 31.7295 119.908 31.1964 119.526 30.7766C119.154 30.3458 118.671 30.1304 118.075 30.1304C117.468 30.1304 116.973 30.3458 116.591 30.7766C116.209 31.1964 116.018 31.7295 116.018 32.3755C116.018 33.0109 116.203 33.5491 116.574 33.9906C116.956 34.4214 117.457 34.6368 118.075 34.6368ZM137.755 38.4647H135.614V36.4134H124.196V28.3538H126.54V34.5075H129.103V28.3538H131.431V34.5075H134.046V28.3538H136.372V34.5075H137.755V38.4647ZM141.624 36.4134H139.398V28.3538H141.742V33.1023L145.554 28.3538H147.78V36.4134H145.436V31.6649L141.624 36.4134ZM152.329 36.4134H150.103V28.3538H152.447V33.1023L156.258 28.3538H158.484V36.4134H156.14V31.6649L152.329 36.4134ZM154.285 27.4655C153.386 27.4655 152.655 27.2178 152.093 26.7226C151.53 26.2164 151.243 25.5435 151.233 24.7036H153.02C153.02 25.0589 153.133 25.3443 153.358 25.5596C153.582 25.775 153.886 25.8826 154.269 25.8826C154.65 25.8826 154.949 25.775 155.163 25.5596C155.387 25.3443 155.505 25.0589 155.516 24.7036H157.321C157.31 25.5542 157.017 26.2271 156.444 26.7226C155.881 27.2178 155.163 27.4655 154.285 27.4655Z" fill="black"/>
<path d="M100.542 53.8774C101.24 54.5969 102.113 54.9566 103.159 54.9566C104.195 54.9566 105.061 54.5969 105.759 53.8774C106.457 53.1579 106.805 52.2504 106.805 51.1546C106.805 50.0588 106.457 49.1512 105.759 48.4317C105.061 47.7123 104.195 47.3525 103.159 47.3525C102.113 47.3525 101.24 47.7123 100.542 48.4317C99.856 49.14 99.5127 50.0477 99.5127 51.1546C99.5127 52.2614 99.856 53.169 100.542 53.8774ZM97.0312 51.1546C97.0312 49.45 97.6107 48.0222 98.77 46.8711C99.9291 45.6977 101.392 45.1111 103.159 45.1111C104.915 45.1111 106.372 45.6977 107.531 46.8711C108.702 48.0443 109.287 49.4721 109.287 51.1546C109.287 52.8259 108.702 54.2537 107.531 55.438C106.372 56.6113 104.915 57.198 103.159 57.198C101.392 57.198 99.9291 56.6113 98.77 55.438C97.6107 54.2648 97.0312 52.8369 97.0312 51.1546ZM113.727 56.9655H111.347V48.6807H113.727V51.7024L116.631 48.6807H119.551L115.888 52.4163L120.126 56.9655H117.053L113.727 53.3958V56.9655ZM122.599 52.8148C122.599 53.4789 122.819 54.0323 123.258 54.475C123.697 54.9179 124.254 55.1392 124.929 55.1392C125.604 55.1392 126.161 54.9179 126.6 54.475C127.039 54.0212 127.259 53.4679 127.259 52.8148C127.259 52.1507 127.039 51.6028 126.6 51.1712C126.161 50.7284 125.604 50.507 124.929 50.507C124.254 50.507 123.697 50.7284 123.258 51.1712C122.819 51.6028 122.599 52.1507 122.599 52.8148ZM120.253 52.8148C120.253 51.5862 120.692 50.5568 121.57 49.7267C122.436 48.8855 123.556 48.4649 124.929 48.4649C126.302 48.4649 127.422 48.8855 128.289 49.7267C129.166 50.5679 129.605 51.5973 129.605 52.8148C129.605 54.0544 129.166 55.0949 128.289 55.9361C127.411 56.7662 126.291 57.1814 124.929 57.1814C123.567 57.1814 122.447 56.7662 121.57 55.9361C120.692 55.0949 120.253 54.0544 120.253 52.8148ZM133.741 56.9655H131.361V48.6807H133.741V51.7522H137.202V48.6807H139.582V56.9655H137.202V53.7113H133.741V56.9655ZM155.484 59.074H153.34V56.9655H141.911V48.6807H144.259V55.0064H146.825V48.6807H149.154V55.0064H151.77V48.6807H154.1V55.0064H155.484V59.074ZM159.357 56.9655H157.128V48.6807H159.474V53.5619L163.289 48.6807H165.519V56.9655H163.171V52.0843L159.357 56.9655ZM170.224 56.9655H167.844V48.6807H170.224V51.7024L173.128 48.6807H176.048L172.385 52.4163L176.622 56.9655H173.55L170.224 53.3958V56.9655ZM185.175 56.9655H180.144V47.4853H177.122V45.3435H182.575V49.1787H185.175C186.582 49.1787 187.696 49.5441 188.518 50.2745C189.339 50.9829 189.75 51.9183 189.75 53.0805C189.75 54.2427 189.339 55.1779 188.518 55.8863C187.684 56.6058 186.57 56.9655 185.175 56.9655ZM182.575 51.2044V54.8569H185.04C185.748 54.8569 186.3 54.702 186.694 54.392C187.099 54.071 187.303 53.6228 187.303 53.0473C187.303 52.4606 187.099 52.0068 186.694 51.6858C186.3 51.3648 185.748 51.2044 185.04 51.2044H182.575Z" fill="black"/>
<path fill-rule="evenodd" clip-rule="evenodd" d="M7.57814 19.5279C7.57853 19.2528 7.58481 18.9784 7.5969 18.7047C7.80673 13.9573 9.76787 9.44768 13.1121 6.07295C16.6555 2.4973 21.4613 0.488525 26.4724 0.488525C31.4835 0.488526 36.2893 2.4973 39.8327 6.07295C43.1769 9.44768 45.1381 13.9573 45.348 18.7047C45.36 18.9784 45.3662 19.2529 45.3667 19.5279V19.5337V19.5549V66.3814C45.3667 66.851 44.9895 67.2316 44.5241 67.2316H40.5281C40.4568 66.8512 40.3836 66.468 40.3087 66.0838H44.5241V50.567H36.3502C36.304 50.3993 36.2571 50.2292 36.2096 50.057H44.5241V35.263H32.0435C32.0291 35.0963 32.0337 34.9284 32.0623 34.7528H44.5241V19.5549H35.1571C35.1495 19.2223 35.1399 18.9278 35.1289 18.6834H35.1416H35.2227H35.3036H35.3843H35.4648H35.5451H35.6251H35.7049H35.7846H35.864H35.9432H36.0222H36.101H36.1795H36.2579H36.336H36.4139H36.4916H36.569H36.6462H36.6612C36.4582 16.2661 35.4157 13.9873 33.7028 12.2587C31.7852 10.3236 29.1844 9.23652 26.4724 9.23652C23.7606 9.23652 21.1598 10.3236 19.2421 12.2587C17.5291 13.9873 16.4867 16.2661 16.2837 18.6834H16.3461H16.4263H16.5067H16.5874H16.6682H16.7492H16.8304H16.9118H16.9934H17.0752H17.1572H17.2394H17.3217H17.4043H17.487H17.5699H17.653H17.7363H17.8197H17.9033H17.9871H18.071H18.1551H18.2394H18.3239H18.4085H18.4932H18.5782H18.6633H18.7484H18.8338H18.9194H19.005H19.0909H19.1769H19.2629H19.3492H19.4356H19.5222H19.6088H19.6956H19.7825H19.8695H19.9568H20.0441H20.1315H20.2191H20.3068H20.3945H20.4824H20.5705H20.6586H20.7468H20.8352H20.9237H21.0122H21.1009H21.1897H21.2786H21.3675H21.4567H21.5458H21.635H21.7244H21.8138H21.9033H21.9929H22.0825H22.1723H22.2621H22.3521H22.442H22.5322H22.6223H22.7125H22.8027H22.8931H22.9835H23.074H23.1644H23.255H23.3457H23.4363H23.5271H23.6179H23.7087H23.7996H23.8906H23.9814H24.0724H24.1636H24.2547H24.3458H24.4369H24.5281H24.6193H24.7106H24.8018H24.8931H24.9844H25.0758H25.1671H25.2584H25.3499H25.4412H25.5327H25.6241H25.7155H25.807H25.8984H25.9898H26.0812H26.1726H26.2641H26.3555H26.447H26.5383H26.6297H26.7211H26.8124H26.9037H26.9951H27.0864H27.1776H27.2689H27.3602H27.4513H27.5425H27.6336H27.7247H27.8157H27.9068H27.9978H28.0887H28.1796H28.2705H28.3613H28.4521H28.5427H28.6334H28.724H28.8145H28.905H28.9953H29.0858H29.176H29.2662H29.3563H29.4465H29.5365H29.6264H29.7163H29.8061H29.8957H29.9853H30.0749H30.1643H30.2537H30.3429H30.4322H30.5213H30.6102H30.6991H30.7879H30.8766H30.9653H31.0537H31.1421H31.2304H31.3186H31.4066H31.4945H31.5823H31.6346C31.6251 18.9515 31.6158 19.247 31.608 19.5549H26.8727V22.4442C26.5958 22.3184 26.312 22.2584 26.0301 22.2532V19.5549H8.42068V34.7528H16.5783C16.5325 34.9176 16.4931 35.0878 16.4617 35.263H8.42068V50.057H16.6041C16.5947 50.2232 16.5861 50.3933 16.5783 50.567H8.42068L8.42068 66.0838H16.2586C16.1079 66.4562 15.9604 66.8469 15.8368 67.2316H8.42068C7.95535 67.2316 7.57812 66.851 7.57812 66.3814V19.5549V19.5337L7.57814 19.5279ZM20.2208 50.567C20.262 50.4006 20.3073 50.2291 20.3564 50.057H19.9441C19.9175 50.2253 19.89 50.3962 19.8624 50.567H20.2208ZM44.5035 18.6834C44.3113 14.6291 42.7821 10.7595 40.1677 7.68747L34.492 12.3598C36.0425 14.1196 36.981 16.3405 37.1684 18.6834H37.1801H37.2554H37.3304H37.4052H37.4798H37.554H37.6282H37.7019H37.7755H37.8487H37.9217H37.9944H38.0669H38.1392H38.2111H38.2827H38.3541H38.4252H38.496H38.5666H38.6369H38.7069H38.7766H38.846H38.9151H38.9839H39.0525H39.1208H39.1886H39.2563H39.3237H39.3907H39.4575H39.5239H39.5901H39.6559H39.7214H39.7867H39.8514H39.9161H39.9803H40.0442H40.1078H40.1711H40.2341H40.2966H40.359H40.4209H40.4826H40.5439H40.6048H40.6654H40.7256H40.7856H40.8452H40.9044H40.9633H41.0219H41.0801H41.1379H41.1953H41.2525H41.3092H41.3656H41.4216H41.4772H41.5325H41.5875H41.642H41.6962H41.75H41.8034H41.8564H41.9091H41.9614H42.0133H42.0648H42.1159H42.1667H42.2169H42.2669H42.3164H42.3655H42.4143H42.4627H42.5106H42.5581H42.6053H42.652H42.6982H42.7442H42.7897H42.8346H42.8794H42.9235H42.9674H43.0107H43.0537H43.0962H43.1383H43.1799H43.2211H43.2619H43.3022H43.3422H43.3816H43.4206H43.4592H43.4973H43.535H43.5722H43.609H43.6454H43.6812H43.7166H43.7516H43.7861H43.82H43.8536H43.8867H43.9193H43.9514H43.9831H44.0143H44.045H44.0753H44.105H44.1343H44.1631H44.1914H44.2192H44.2465H44.2734H44.2997H44.3255H44.3508H44.3757H44.4001H44.4238H44.4472H44.47H44.4923H44.5035ZM39.8327 7.30486L34.1465 11.986C34.1179 11.9565 34.0892 11.9271 34.0602 11.898C32.1174 9.93747 29.5064 8.80635 26.7673 8.73046V1.34118C31.4483 1.41826 35.9211 3.32815 39.2369 6.67415C39.4409 6.88004 39.6396 7.09035 39.8327 7.30486ZM26.2618 1.33999V8.72846C23.4921 8.78328 20.8473 9.91739 18.8846 11.898C18.877 11.9057 18.8694 11.9134 18.8618 11.921L13.1502 7.26269C13.3313 7.06278 13.5173 6.86653 13.7079 6.67415C17.0436 3.30809 21.5503 1.39541 26.2618 1.33999ZM15.7765 18.6834C15.9662 16.3105 16.9267 14.0626 18.5129 12.2924L12.8139 7.64438C10.1771 10.7233 8.63451 14.6101 8.44133 18.6834H8.44297H8.48142H8.52033H8.55967H8.59946H8.63969H8.68036H8.72145H8.763H8.80496H8.84737H8.8902H8.93346H8.97714H9.02125H9.06577H9.11072H9.15609H9.20187H9.24806H9.29466H9.34168H9.3891H9.43694H9.48517H9.53381H9.58285H9.63228H9.68211H9.73235H9.78296H9.83398H9.88538H9.93717H9.98934H10.0419H10.0948H10.1482H10.2019H10.2559H10.3104H10.3652H10.4204H10.476H10.5319H10.5882H10.6448H10.7019H10.7592H10.817H10.875H10.9335H10.9923H11.0514H11.1109H11.1707H11.2309H11.2915H11.3523H11.4135H11.4751H11.5369H11.5991H11.6617H11.7245H11.7877H11.8513H11.9151H11.9792H12.0437H12.1085H12.1737H12.2391H12.3048H12.3709H12.4372H12.5039H12.5709H12.6381H12.7057H12.7736H12.8418H12.9102H12.979H13.048H13.1174H13.187H13.2569H13.3271H13.3976H13.4684H13.5394H13.6107H13.6823H13.7542H13.8263H13.8987H13.9714H14.0443H14.1175H14.1909H14.2647H14.3386H14.4129H14.4873H14.5621H14.6371H14.7123H14.7878H14.8635H14.9395H15.0157H15.0921H15.1688H15.2457H15.3229H15.4002H15.4778H15.5557H15.6337H15.712H15.7765Z" fill="black"/>
<path d="M18.216 76.5587C18.216 76.8648 17.2611 78.0467 16.7836 78.5993C17.0364 79.0669 16.8679 80.0447 16.5309 80.1296C16.1938 80.2147 14.5087 81.3625 14.3402 82.0852C14.2054 82.6634 13.5819 83.318 13.287 83.5731C11.2228 84.6784 10.1696 83.6581 9.95893 83.2331C9.79042 82.8929 9.97297 82.156 10.0853 81.8302C10.0432 80.9374 11.0121 79.6196 11.3913 79.4495C11.6946 79.3135 12.304 78.4576 12.5708 78.0467C12.099 76.8563 12.964 76.1619 13.4555 75.9636L13.9189 73.923M18.216 76.5587C19.6343 77.2672 22.5972 78.7183 23.1028 78.8544L23.9874 75.0283M18.216 76.5587L13.9189 73.923M13.9189 73.923C13.4977 73.6254 13.1606 73.5829 13.8347 72.6051C14.5087 71.6273 15.2249 69.9694 15.3513 68.6091C15.4777 67.2487 16.4469 65.2668 16.8257 64.3579C17.0102 63.9154 17.2208 63.6178 17.4315 63.0227L17.6843 62.3C18.0213 60.9396 18.3423 58.9164 18.6372 57.5986C18.9322 56.2807 19.4536 53.6701 19.4536 53.6701C19.4536 53.6701 19.6905 52.3696 19.7325 52.1146C19.7746 51.8595 20.0696 50.0315 20.6172 48.8412C21.0554 47.8889 21.1649 46.0638 21.1649 45.2702C21.1649 44.556 20.6594 44.9726 20.4066 45.2702C20.5329 46.3755 20.0696 47.3107 20.0696 47.8634C20.0696 48.3055 19.5921 51.1935 19.3534 52.5822C19.3534 52.5822 18.3947 52.8873 17.8106 52.8624C17.2266 52.8375 16.3623 52.4547 16.3623 52.4547C16.3623 48.6286 16.91 45.993 16.6994 45.7804C16.4887 45.5678 16.4466 44.2924 16.91 43.9948C17.2807 43.7568 17.2049 43.5839 17.1206 43.5272C16.3455 42.3709 16.9381 41.345 17.3313 40.9766C17.247 39.8854 17.1291 37.278 17.3313 35.5776C17.584 33.4521 19.0585 31.9641 19.3534 31.9216C19.6483 31.8792 20.7015 31.7941 21.2912 31.1139C21.7631 30.5697 22.0776 30.5754 22.1759 30.6462C22.19 30.1786 22.2518 29.2179 22.3866 29.1158M23.9874 75.0283C25.9393 75.0709 30.0285 75.0709 30.77 74.7307M23.9874 75.0283C24.6738 72.4778 23.7928 71.5849 25.9413 64.3579C28.174 59.4092 28.4268 54.7329 28.4268 54.7329C28.4268 54.7329 28.9744 60.217 29.9856 63.4903C31.3369 67.8654 30.7054 71.8756 30.77 74.7307M30.77 74.7307C30.756 75.8218 30.7785 78.0636 30.9806 78.3017C31.9075 78.0041 34.114 77.9882 35.1513 77.5365M35.1513 77.5365C35.3198 77.5365 35.6063 77.7575 35.4041 78.6418C35.1513 79.7471 36.2045 80.1722 36.7101 80.4697C37.2155 80.7673 38.0581 81.7026 38.3109 82.3402C38.5637 82.9779 40.2908 84.0408 41.302 84.0408C42.313 84.0408 43.1134 83.318 42.8607 82.0427C42.608 80.7673 41.5968 79.8321 40.4173 78.3017C40.5156 77.6073 40.4005 76.1336 39.1534 75.7935M35.1513 77.5365C36.7143 76.8558 39.1534 75.7935 39.1534 75.7935M39.1534 75.7935C39.1393 75.2976 39.5916 74.2716 41.5126 74.1356C40.9228 70.0828 39.3641 60.9739 37.8475 56.9609C37.1472 53.7552 35.1513 47.1659 32.8343 38.1283C32.2023 36.0703 31.3935 35.4076 32.2023 33.8772C33.2135 31.9641 34.0139 30.6888 34.5615 28.3932C35.1092 26.0975 35.0409 19.1681 34.9145 18.0628M34.9145 18.0628C34.8817 17.9471 34.114 18.7121 33.6506 18.7682C32.5975 18.8958 31.4862 17.6547 31.4862 18.0628M34.9145 18.0628L34.4089 17.8329M31.4862 18.0628C31.43 19.3382 31.3514 22.1099 31.4862 22.9942C31.5143 23.1076 31.5283 23.6233 31.3599 24.7797C31.1913 25.936 31.2896 26.3951 31.3599 26.4802C31.444 26.5935 31.5199 26.9222 31.1492 27.3303C30.6857 27.8405 30.9806 28.1381 30.3066 28.7757C29.6326 29.4134 27.9053 30.2211 27.5683 30.2211C27.2313 30.2211 27.9053 29.711 27.5683 29.371M31.4862 18.0628C31.5336 17.9579 31.797 17.7309 32.471 17.6628M27.5683 29.371C27.6526 29.2151 27.7958 28.8523 27.6947 28.6482C27.8912 28.2657 28.3013 27.2453 28.3687 26.225C28.453 24.9498 28.8321 23.7168 26.9364 22.5691C25.0407 21.4213 22.6815 23.6319 22.85 25.4174C22.7096 25.4031 22.4456 25.5449 22.513 26.225C22.5803 26.9052 22.85 27.0186 22.9764 26.9903C22.9342 27.2453 22.9006 27.8575 23.1028 28.2657V28.9458C22.9202 28.9599 22.5214 29.0139 22.3866 29.1158M27.5683 29.371C27.2506 29.521 26.9364 29.6937 26.3625 29.6937M22.3866 29.1158C22.9115 29.3793 24.1804 29.8637 25.0565 29.6937V30.6462" stroke="black" stroke-width="0.439033" stroke-linecap="round" stroke-linejoin="round"/>
<path d="M32.5991 17.4539V17.4536L32.5993 17.4522C32.5996 17.4501 32.6002 17.4463 32.6007 17.4409C32.6019 17.43 32.6036 17.4124 32.6048 17.3894C32.6072 17.3432 32.6077 17.2758 32.5994 17.1948C32.5828 17.0324 32.5315 16.8221 32.3952 16.6203C32.0763 16.1477 31.3463 15.0765 30.1688 14.1206C30.1042 14.0752 30.0211 13.9942 29.9753 13.8818C29.9207 13.7478 29.9274 13.5837 30.0457 13.4345C30.1072 13.3569 30.1874 13.3046 30.2805 13.2863C30.3695 13.2687 30.4513 13.2857 30.5151 13.3103C30.6291 13.3543 30.7226 13.4368 30.7794 13.5001C31.1011 13.7751 31.5953 14.1859 32.0471 14.5372C32.2759 14.7151 32.4916 14.8761 32.6674 14.9958C32.7554 15.0558 32.8309 15.1039 32.8913 15.1381C32.9216 15.1552 32.9462 15.1678 32.9655 15.1765C32.9843 15.1849 32.9931 15.1875 32.9941 15.1878C32.9942 15.1878 32.9942 15.1878 32.9942 15.1878M32.5991 17.4539L32.9942 15.1878M32.5991 17.4539L32.5964 17.4701V17.4877V18.2529V18.3885L32.7183 18.4457L32.8071 18.2529M32.5991 17.4539L32.8071 18.2529M32.9942 15.1878C33.2129 15.2368 33.4914 15.3554 33.7499 15.5409M32.9942 15.1878L33.7499 15.5409M32.8071 18.2529C32.7183 18.4457 32.7183 18.4457 32.7184 18.4457L32.7186 18.4459L32.7191 18.4461L32.7208 18.4469L32.7263 18.4493C32.7309 18.4514 32.7373 18.4543 32.7455 18.4579C32.7617 18.465 32.7848 18.4749 32.8133 18.4863C32.8702 18.5092 32.95 18.539 33.0415 18.5667C33.2152 18.6192 33.4682 18.6757 33.6903 18.6315C33.8336 18.603 33.9806 18.5214 34.0775 18.4607C34.1293 18.4283 34.1736 18.3975 34.205 18.3748C34.2209 18.3634 34.2336 18.3539 34.2426 18.3472C34.2446 18.3456 34.2464 18.3442 34.2481 18.3429C34.2501 18.3414 34.2518 18.34 34.2532 18.3389L34.2564 18.3366L34.2572 18.3358L34.2576 18.3356L34.2577 18.3355L34.2578 18.3354M32.8071 18.2529L34.1281 18.1678M33.7499 15.5409C34.0091 15.7269 34.2604 15.989 34.406 16.3318C34.4699 16.4822 34.5096 16.8019 34.3388 17.1481V18.1678M33.7499 15.5409L34.3388 18.1678M34.2578 18.3354C34.2578 18.3354 34.2578 18.3354 34.1281 18.1678M34.2578 18.3354L34.1281 18.1678M34.2578 18.3354L34.3388 18.2716V18.1678" stroke="black" stroke-width="0.439033"/>
<path d="M18.2094 53.1428L18.2298 53.0195L18.2626 52.8207L18.0677 52.777L17.1128 52.563L16.8806 52.511L16.8575 52.7499L16.8043 53.3L16.6811 54.5746C16.6791 54.5955 16.6771 54.617 16.675 54.639C16.6136 55.2791 16.5023 56.4406 15.9693 57.8139C15.9357 57.8857 15.9034 57.9978 15.9191 58.1183C15.9378 58.2619 16.0244 58.4009 16.2005 58.471C16.2922 58.5075 16.3875 58.5126 16.4774 58.4818C16.5632 58.4525 16.6258 58.3968 16.669 58.3434C16.7463 58.2479 16.7868 58.1295 16.8048 58.0461C16.9485 57.6462 17.1751 57.0418 17.394 56.5104C17.505 56.2411 17.6128 55.9934 17.7063 55.8013C17.7531 55.705 17.8404 55.5551 17.876 55.495M18.2094 53.1428L17.8954 55.4708M18.2094 53.1428C18.4806 53.3639 18.5425 53.6445 18.5568 53.7699C18.5994 54.1404 18.5104 54.4939 18.3772 54.7853C18.2443 55.0759 18.061 55.3185 17.8954 55.4708M17.876 55.495C17.8939 55.465 17.8636 55.5121 17.876 55.495ZM17.876 55.495C17.8882 55.4781 17.8954 55.4708 17.8954 55.4708" stroke="black" stroke-width="0.439033"/>
<path d="M29.6065 50.4762C29.6065 47.9315 29.3536 36.0283 27.5 33.3015" stroke="black" stroke-width="0.439033" stroke-linecap="round"/>
</svg>
