<svg width="350" height="124" viewBox="0 0 350 124" fill="none" xmlns="http://www.w3.org/2000/svg">
<path d="M93.0498 33.2831V29.3398H110.375V33.2831H103.823V50.7379H99.5726V33.2831H93.0498ZM124.996 47.406C125.35 47.406 125.636 47.3448 125.852 47.2226V50.371C125.321 50.7991 124.573 51.0131 123.609 51.0131C121.936 51.0131 120.825 50.3609 120.274 49.0567C118.975 50.4423 117.283 51.1354 115.197 51.1354C113.584 51.1354 112.275 50.6667 111.272 49.7293C110.268 48.7916 109.766 47.5588 109.766 46.0302C109.766 44.4 110.337 43.1569 111.478 42.3008C112.619 41.4451 113.987 41.017 115.581 41.017C117.253 41.017 118.67 41.3329 119.831 41.9648V41.5062C119.831 39.5905 118.532 38.6326 115.935 38.6326C114.341 38.6326 112.856 39.0606 111.478 39.9167V36.3093C112.974 35.4942 114.794 35.0867 116.938 35.0867C119.064 35.0867 120.756 35.6165 122.015 36.6762C123.314 37.7359 123.963 39.2034 123.963 41.0782V46.2442C123.963 47.0187 124.307 47.406 124.996 47.406ZM119.831 46.2442V44.7158C118.965 44.1249 117.942 43.8295 116.761 43.8295C115.876 43.8295 115.168 44.0026 114.636 44.349C114.125 44.6954 113.869 45.1845 113.869 45.8165C113.869 46.4686 114.105 46.9679 114.577 47.3143C115.049 47.6402 115.689 47.8034 116.496 47.8034C117.952 47.8034 119.064 47.2837 119.831 46.2442ZM132.893 50.7379H128.732V35.4841H132.893V41.1393H138.944V35.4841H143.106V50.7379H138.944V44.7464H132.893V50.7379ZM163.855 54.6202H159.841V50.7379H147.179V35.4841H151.341V47.1308H157.273V35.4841H161.435V47.1308H163.855V54.6202ZM168.64 57.0351C167.42 57.0351 166.436 56.8312 165.688 56.4237V52.6637C166.377 53.0713 167.125 53.2752 167.932 53.2752C168.679 53.2752 169.299 53.0306 169.791 52.5415C170.303 52.0728 170.775 51.2983 171.208 50.2182L164.862 35.4841H169.348L173.244 45.5107L176.934 35.4841H181.331L174.513 52.3274C173.215 55.4658 171.257 57.0351 168.64 57.0351ZM197.804 51.1354C195.856 51.1354 194.193 50.534 192.816 49.3318C191.498 48.1498 190.671 46.6111 190.337 44.7158H187.976V50.7379H183.814V35.4841H187.976V41.1088H190.425C190.819 39.3358 191.665 37.8888 192.964 36.7679C194.282 35.6471 195.896 35.0867 197.804 35.0867C200.047 35.0867 201.877 35.8611 203.294 37.41C204.73 38.9179 205.449 40.8131 205.449 43.0957C205.449 45.3781 204.73 47.2938 203.294 48.8427C201.877 50.371 200.047 51.1354 197.804 51.1354ZM197.804 47.3754C198.847 47.3754 199.693 46.9679 200.343 46.1525C201.011 45.3374 201.346 44.3184 201.346 43.0957C201.346 41.8731 201.011 40.8642 200.343 40.0695C199.693 39.2542 198.847 38.8466 197.804 38.8466C196.742 38.8466 195.876 39.2542 195.207 40.0695C194.538 40.8642 194.203 41.8731 194.203 43.0957C194.203 44.2982 194.528 45.3169 195.177 46.1525C195.846 46.9679 196.722 47.3754 197.804 47.3754ZM232.246 54.6202H228.499V50.7379H208.516V35.4841H212.619V47.1308H217.105V35.4841H221.178V47.1308H225.754V35.4841H229.826V47.1308H232.246V54.6202ZM239.017 50.7379H235.121V35.4841H239.223V44.4713L245.894 35.4841H249.79V50.7379H245.687V41.7508L239.017 50.7379ZM257.751 50.7379H253.855V35.4841H257.958V44.4713L264.629 35.4841H268.524V50.7379H264.422V41.7508L257.751 50.7379ZM261.175 33.8029C259.601 33.8029 258.323 33.3342 257.339 32.3968C256.354 31.4389 255.852 30.1652 255.833 28.5757H258.962C258.962 29.248 259.159 29.7882 259.552 30.1958C259.945 30.6033 260.477 30.807 261.147 30.807C261.814 30.807 262.337 30.6033 262.711 30.1958C263.104 29.7882 263.311 29.248 263.329 28.5757H266.488C266.469 30.1854 265.956 31.4591 264.954 32.3968C263.968 33.3342 262.711 33.8029 261.175 33.8029Z" fill="white"/>
<path d="M167.884 81.3496C169.101 82.6531 170.622 83.3048 172.448 83.3048C174.254 83.3048 175.766 82.6531 176.983 81.3496C178.2 80.046 178.808 78.4018 178.808 76.4166C178.808 74.4313 178.2 72.7869 176.983 71.4833C175.766 70.18 174.254 69.5281 172.448 69.5281C170.622 69.5281 169.101 70.18 167.884 71.4833C166.686 72.7667 166.087 74.4111 166.087 76.4166C166.087 78.4217 166.686 80.0662 167.884 81.3496ZM161.759 76.4166C161.759 73.3284 162.77 70.7414 164.792 68.6559C166.814 66.5302 169.366 65.4673 172.448 65.4673C175.51 65.4673 178.053 66.5302 180.075 68.6559C182.116 70.7814 183.137 73.3684 183.137 76.4166C183.137 79.4446 182.116 82.0313 180.075 84.177C178.053 86.3027 175.51 87.3656 172.448 87.3656C169.366 87.3656 166.814 86.3027 164.792 84.177C162.77 82.0514 161.759 79.4645 161.759 76.4166ZM190.883 86.9444H186.73V71.9346H190.883V77.4091L195.947 71.9346H201.042L194.652 78.7024L202.043 86.9444H196.684L190.883 80.4771V86.9444ZM206.358 79.4245C206.358 80.6276 206.741 81.6303 207.507 82.4323C208.272 83.2347 209.244 83.6357 210.422 83.6357C211.6 83.6357 212.572 83.2347 213.337 82.4323C214.103 81.6101 214.486 80.6077 214.486 79.4245C214.486 78.2213 214.103 77.2286 213.337 76.4466C212.572 75.6443 211.6 75.2433 210.422 75.2433C209.244 75.2433 208.272 75.6443 207.507 76.4466C206.741 77.2286 206.358 78.2213 206.358 79.4245ZM202.265 79.4245C202.265 77.1985 203.031 75.3335 204.562 73.8296C206.073 72.3055 208.027 71.5435 210.422 71.5435C212.817 71.5435 214.77 72.3055 216.282 73.8296C217.813 75.3537 218.579 77.2186 218.579 79.4245C218.579 81.6703 217.813 83.5554 216.282 85.0795C214.75 86.5834 212.797 87.3355 210.422 87.3355C208.046 87.3355 206.093 86.5834 204.562 85.0795C203.031 83.5554 202.265 81.6703 202.265 79.4245ZM225.792 86.9444H221.641V71.9346H225.792V77.4993H231.831V71.9346H235.981V86.9444H231.831V81.0487H225.792V86.9444ZM263.721 90.7646H259.98V86.9444H240.044V71.9346H244.139V83.395H248.615V71.9346H252.678V83.395H257.241V71.9346H261.307V83.395H263.721V90.7646ZM270.476 86.9444H266.587V71.9346H270.68V80.778L277.335 71.9346H281.224V86.9444H277.129V78.101L270.476 86.9444ZM289.431 86.9444H285.28V71.9346H289.431V77.4091L294.497 71.9346H299.59L293.201 78.7024L300.592 86.9444H295.233L289.431 80.4771V86.9444ZM315.512 86.9444H306.735V69.7688H301.464V65.8885H310.976V72.8368H315.512C317.965 72.8368 319.908 73.4987 321.341 74.8221C322.775 76.1055 323.491 77.8002 323.491 79.9058C323.491 82.0114 322.775 83.7058 321.341 84.9892C319.888 86.2928 317.944 86.9444 315.512 86.9444ZM310.976 76.5068V83.1243H315.275C316.511 83.1243 317.474 82.8436 318.16 82.2819C318.867 81.7004 319.222 80.8884 319.222 79.8456C319.222 78.7827 318.867 77.9605 318.16 77.379C317.474 76.7975 316.511 76.5068 315.275 76.5068H310.976Z" fill="white"/>
<path fill-rule="evenodd" clip-rule="evenodd" d="M22.4698 28.6912C22.4703 28.3068 22.4791 27.9235 22.4959 27.5411C22.7888 20.9088 25.5261 14.6087 30.194 9.89399C35.1398 4.89864 41.8477 2.09228 48.8421 2.09229C55.8365 2.09229 62.5444 4.89864 67.4902 9.89399C72.158 14.6087 74.8954 20.9088 75.1883 27.5411C75.2051 27.9235 75.2139 28.307 75.2145 28.6912V28.6993V28.729V94.1477C75.2145 94.8038 74.6879 95.3356 74.0384 95.3356H68.4608C68.3613 94.8041 68.2591 94.2687 68.1547 93.7319H74.0384V72.0543H62.6294C62.565 71.82 62.4995 71.5823 62.4332 71.3418H74.0384V50.6739H56.6182C56.598 50.441 56.6045 50.2064 56.6443 49.9611H74.0384V28.729H60.964C60.9534 28.2643 60.94 27.8528 60.9246 27.5114H60.9425H61.0557H61.1685H61.2812H61.3935H61.5056H61.6172H61.7287H61.8399H61.9508H62.0613H62.1716H62.2816H62.3912H62.5005H62.6096H62.7183H62.8267H62.9348H63.0426H63.0635C62.7801 24.1343 61.3251 20.9507 58.9342 18.5357C56.2576 15.8324 52.6274 14.3136 48.8421 14.3136C45.0569 14.3136 41.4268 15.8324 38.7502 18.5357C36.3592 20.9507 34.9042 24.1343 34.6209 27.5114H34.708H34.8199H34.9322H35.0447H35.1575H35.2706H35.3839H35.4976H35.6115H35.7256H35.8401H35.9548H36.0697H36.1849H36.3004H36.4161H36.5321H36.6483H36.7648H36.8815H36.9984H37.1156H37.233H37.3506H37.4685H37.5866H37.7049H37.8234H37.9422H38.0611H38.1803H38.2998H38.4192H38.539H38.6591H38.7792H38.8996H39.0202H39.1411H39.2619H39.3831H39.5044H39.6259H39.7477H39.8695H39.9916H40.1138H40.2362H40.3587H40.4814H40.6042H40.7273H40.8504H40.9738H41.0972H41.2209H41.3447H41.4686H41.5927H41.7168H41.8412H41.9656H42.0902H42.2149H42.3397H42.4646H42.5896H42.7148H42.8401H42.9654H43.0911H43.2166H43.3423H43.4681H43.5941H43.72H43.8461H43.9724H44.0986H44.2249H44.3513H44.4778H44.6044H44.7311H44.8578H44.9845H45.1114H45.2384H45.3653H45.4923H45.6194H45.7466H45.8738H46.001H46.1283H46.2556H46.3829H46.5103H46.6377H46.7652H46.8927H47.0202H47.1477H47.2753H47.4028H47.5304H47.658H47.7857H47.9133H48.0409H48.1684H48.296H48.4237H48.5513H48.6789H48.8066H48.9341H49.0617H49.1892H49.3166H49.4441H49.5716H49.6991H49.8264H49.9539H50.0812H50.2084H50.3357H50.4629H50.5901H50.7171H50.8442H50.9713H51.0981H51.225H51.3519H51.4786H51.6053H51.7318H51.8584H51.9848H52.1112H52.2374H52.3635H52.4898H52.6157H52.7417H52.8675H52.9932H53.1189H53.2444H53.3698H53.4952H53.6203H53.7454H53.8704H53.9952H54.12H54.2445H54.3691H54.4935H54.6176H54.7417H54.8656H54.9894H55.1132H55.2367H55.36H55.4832H55.6063H55.7292H55.8519H55.9745H56.0474C56.0341 27.8859 56.0212 28.2987 56.0103 28.729H49.4008V32.7655C49.0143 32.5897 48.6182 32.5058 48.2247 32.4986V28.729H23.6458V49.9611H35.032C34.968 50.1913 34.9131 50.4291 34.8693 50.6739H23.6458V71.3418H35.068C35.055 71.5739 35.0429 71.8116 35.032 72.0543H23.6458L23.6458 93.7319H34.5858C34.3754 94.2522 34.1696 94.798 33.997 95.3356H23.6458C22.9963 95.3356 22.4697 94.8038 22.4697 94.1477V28.729V28.6993L22.4698 28.6912ZM40.1161 72.0543C40.1737 71.8218 40.2369 71.5822 40.3054 71.3418H39.73C39.6928 71.5769 39.6545 71.8156 39.6159 72.0543H40.1161ZM74.0097 27.5114C73.7413 21.8474 71.6069 16.4413 67.9578 12.1495L60.0357 18.6771C62.1999 21.1356 63.5099 24.2383 63.7715 27.5114H63.7878H63.8928H63.9975H64.1019H64.206H64.3097H64.4132H64.5161H64.6188H64.721H64.8228H64.9243H65.0255H65.1264H65.2268H65.3268H65.4264H65.5256H65.6245H65.723H65.8211H65.9188H66.0161H66.113H66.2094H66.3055H66.4012H66.4965H66.5912H66.6857H66.7798H66.8733H66.9665H67.0592H67.1516H67.2434H67.3349H67.4259H67.5164H67.6066H67.6963H67.7855H67.8742H67.9626H68.0504H68.1378H68.2248H68.3112H68.3973H68.4828H68.5679H68.6524H68.7366H68.8202H68.9034H68.9861H69.0682H69.1501H69.2313H69.312H69.3921H69.4719H69.5511H69.6298H69.708H69.7856H69.8628H69.9395H70.0157H70.0913H70.1664H70.2409H70.3149H70.3884H70.4614H70.5339H70.6057H70.677H70.7479H70.8181H70.8879H70.9569H71.0255H71.0936H71.1611H71.228H71.2943H71.3601H71.4253H71.4899H71.554H71.6175H71.6803H71.7427H71.8044H71.8656H71.926H71.986H72.0453H72.1041H72.1622H72.2197H72.2766H72.3329H72.3887H72.4438H72.4982H72.552H72.6052H72.6578H72.7098H72.7611H72.8119H72.8619H72.9112H72.9601H73.0083H73.0556H73.1025H73.1487H73.1942H73.2391H73.2832H73.3269H73.3696H73.4119H73.4534H73.4944H73.5345H73.574H73.6128H73.6509H73.6884H73.7252H73.7612H73.7965H73.8313H73.8653H73.8985H73.9311H73.9629H73.994H74.0097ZM67.4902 11.615L59.5534 18.1547C59.5136 18.1136 59.4735 18.0726 59.433 18.0319C56.7214 15.2929 53.0769 13.7127 49.2538 13.6067V3.28349C55.7873 3.39118 62.0304 6.05938 66.6586 10.7339C66.9434 11.0215 67.2206 11.3153 67.4902 11.615ZM48.5481 3.28183V13.6039C44.6822 13.6805 40.9907 15.2649 38.2512 18.0319C38.2406 18.0426 38.2299 18.0533 38.2193 18.064L30.2471 11.5561C30.5 11.2768 30.7595 11.0027 31.0256 10.7339C35.6815 6.03135 41.9719 3.35924 48.5481 3.28183ZM33.9129 27.5114C34.1777 24.1964 35.5183 21.0559 37.7324 18.5828L29.7778 12.0893C26.0973 16.3907 23.9442 21.8208 23.6746 27.5114H23.6769H23.7305H23.7848H23.8398H23.8953H23.9514H24.0082H24.0656H24.1236H24.1821H24.2413H24.3011H24.3615H24.4225H24.484H24.5462H24.6089H24.6722H24.7361H24.8006H24.8656H24.9313H24.9975H25.0642H25.1316H25.1994H25.2679H25.3369H25.4064H25.4766H25.5472H25.6184H25.6902H25.7624H25.8353H25.9086H25.9825H26.057H26.1319H26.2074H26.2834H26.3599H26.4369H26.5145H26.5926H26.6711H26.7502H26.8298H26.9099H26.9904H27.0715H27.1531H27.2352H27.3177H27.4007H27.4843H27.5683H27.6527H27.7377H27.8231H27.909H27.9954H28.0822H28.1695H28.2572H28.3454H28.4341H28.5232H28.6128H28.7028H28.7932H28.8841H28.9754H29.0672H29.1594H29.252H29.3451H29.4385H29.5324H29.6268H29.7215H29.8167H29.9122H30.0082H30.1046H30.2014H30.2985H30.3961H30.4941H30.5925H30.6912H30.7904H30.8899H30.9898H31.0902H31.1908H31.2919H31.3933H31.4951H31.5973H31.6998H31.8027H31.9059H32.0096H32.1135H32.2178H32.3225H32.4275H32.5329H32.6385H32.7446H32.8509H32.9576H33.0647H33.172H33.2797H33.3877H33.496H33.6047H33.7136H33.8229H33.9129Z" fill="white"/>
<path d="M37.3176 108.366C37.3176 108.794 35.9848 110.445 35.3184 111.217C35.6712 111.87 35.436 113.236 34.9656 113.355C34.4952 113.474 32.1431 115.077 31.9079 116.087C31.7198 116.895 30.8495 117.809 30.4379 118.166C27.5566 119.71 26.0866 118.284 25.7926 117.691C25.5574 117.215 25.8122 116.186 25.969 115.731C25.9102 114.484 27.2626 112.642 27.7918 112.405C28.2152 112.215 29.0659 111.019 29.4383 110.445C28.7797 108.782 29.9871 107.812 30.6731 107.535L31.3199 104.684M37.3176 108.366C39.2973 109.356 43.4329 111.383 44.1386 111.573L45.3734 106.228M37.3176 108.366L31.3199 104.684M31.3199 104.684C30.7319 104.268 30.2615 104.209 31.2023 102.843C32.1431 101.477 33.1428 99.1607 33.3192 97.2602C33.4956 95.3598 34.8484 92.591 35.3772 91.3211C35.6347 90.7029 35.9287 90.2872 36.2227 89.4558L36.5755 88.4462C37.0459 86.5456 37.4941 83.7192 37.9057 81.8781C38.3173 80.0369 39.0451 76.3898 39.0451 76.3898C39.0451 76.3898 39.3757 74.5729 39.4345 74.2166C39.4932 73.8603 39.9049 71.3065 40.6693 69.6435C41.2809 68.3132 41.4337 65.7634 41.4337 64.6548C41.4337 63.657 40.7282 64.239 40.3753 64.6548C40.5517 66.1989 39.9049 67.5054 39.9049 68.2775C39.9049 68.8952 39.2384 72.9298 38.9053 74.8699C38.9053 74.8699 37.5671 75.2962 36.7519 75.2614C35.9367 75.2266 34.7304 74.6917 34.7304 74.6917C34.7304 69.3465 35.4948 65.6645 35.2008 65.3675C34.9068 65.0705 34.848 63.2888 35.4948 62.873C36.0123 62.5404 35.9064 62.2989 35.7888 62.2197C34.7069 60.6043 35.534 59.171 36.0828 58.6563C35.9652 57.1319 35.8006 53.4893 36.0828 51.1137C36.4356 48.1442 38.4937 46.0655 38.9053 46.0061C39.3168 45.9468 40.7869 45.828 41.6101 44.8778C42.2687 44.1175 42.7077 44.1254 42.8449 44.2243C42.8646 43.5711 42.9508 42.2289 43.1389 42.0863M45.3734 106.228C48.0978 106.288 53.8055 106.288 54.8404 105.812M45.3734 106.228C46.3314 102.665 45.1017 101.418 48.1006 91.3211C51.217 84.4075 51.5698 77.8746 51.5698 77.8746C51.5698 77.8746 52.3342 85.5361 53.7455 90.109C55.6317 96.2213 54.7503 101.824 54.8404 105.812M54.8404 105.812C54.8209 107.337 54.8522 110.469 55.1344 110.801C56.4281 110.386 59.5079 110.363 60.9557 109.732M60.9557 109.732C61.191 109.732 61.5908 110.041 61.3086 111.276C60.9557 112.821 62.4258 113.414 63.1315 113.83C63.837 114.246 65.0131 115.553 65.3658 116.443C65.7187 117.334 68.1295 118.819 69.5408 118.819C70.952 118.819 72.0692 117.809 71.7164 116.028C71.3637 114.246 69.9523 112.939 68.306 110.801C68.4432 109.831 68.2825 107.772 66.5419 107.297M60.9557 109.732C63.1373 108.781 66.5419 107.297 66.5419 107.297M66.5419 107.297C66.5222 106.604 67.1535 105.171 69.8348 104.981C69.0115 99.3191 66.8359 86.5936 64.719 80.9872C63.7417 76.5086 60.9557 67.303 57.7217 54.6771C56.8396 51.8021 55.7106 50.8762 56.8396 48.7381C58.251 46.0655 59.3681 44.2838 60.1326 41.0767C60.897 37.8696 60.8016 28.1889 60.6253 26.6448M60.6253 26.6448C60.5794 26.4831 59.5079 27.5518 58.8612 27.6302C57.3912 27.8084 55.8401 26.0746 55.8401 26.6448M60.6253 26.6448L59.9196 26.3236M55.8401 26.6448C55.7617 28.4265 55.6519 32.2987 55.8401 33.5341C55.8793 33.6925 55.8988 34.413 55.6637 36.0285C55.4284 37.6439 55.5656 38.2854 55.6637 38.4042C55.7812 38.5625 55.8871 39.0217 55.3697 39.5919C54.7228 40.3046 55.1344 40.7204 54.1936 41.6112C53.2528 42.5021 50.842 43.6304 50.3716 43.6304C49.9012 43.6304 50.842 42.9178 50.3716 42.4427M55.8401 26.6448C55.9062 26.4981 56.2739 26.181 57.2147 26.0859M50.3716 42.4427C50.4892 42.225 50.6891 41.7182 50.5479 41.433C50.8223 40.8986 51.3946 39.4731 51.4887 38.0477C51.6064 36.2661 52.1355 34.5437 49.4895 32.9402C46.8435 31.3367 43.5506 34.425 43.7858 36.9194C43.5898 36.8995 43.2213 37.0975 43.3154 38.0477C43.4094 38.998 43.7858 39.1564 43.9622 39.1168C43.9033 39.4731 43.8564 40.3284 44.1386 40.8986V41.8488C43.8838 41.8685 43.3271 41.9438 43.1389 42.0863M50.3716 42.4427C49.9281 42.6524 49.4895 42.8936 48.6885 42.8936M43.1389 42.0863C43.8717 42.4544 45.6427 43.1311 46.8656 42.8936V44.2243" stroke="white" stroke-width="0.658784" stroke-linecap="round" stroke-linejoin="round"/>
<path d="M57.3937 25.7938V25.7935L57.394 25.7915C57.3945 25.7886 57.3952 25.7833 57.396 25.7757C57.3977 25.7604 57.4 25.7359 57.4017 25.7038C57.4051 25.6393 57.4057 25.545 57.3942 25.432C57.3709 25.205 57.2994 24.9112 57.1092 24.6293C56.664 23.969 55.6451 22.4726 54.0016 21.1372C53.9115 21.0736 53.7954 20.9606 53.7316 20.8035C53.6553 20.6162 53.6647 20.387 53.8298 20.1785C53.9156 20.0701 54.0276 19.9971 54.1575 19.9715C54.2818 19.947 54.3959 19.9707 54.4849 20.0051C54.6441 20.0666 54.7746 20.1818 54.8538 20.2702C55.3028 20.6544 55.9927 21.2283 56.6233 21.7191C56.9427 21.9676 57.2438 22.1925 57.489 22.3598C57.6119 22.4437 57.7172 22.5108 57.8017 22.5586C57.844 22.5825 57.8782 22.6001 57.9052 22.6122C57.9314 22.624 57.9438 22.6276 57.9451 22.628C57.9453 22.628 57.9453 22.628 57.9453 22.628M57.3937 25.7938L57.9453 22.628M57.3937 25.7938L57.39 25.8165V25.8411V26.9101V27.0996L57.5601 27.1794L57.684 26.9101M57.3937 25.7938L57.684 26.9101M57.9453 22.628C58.2505 22.6965 58.6393 22.8623 59 23.1213M57.9453 22.628L59 23.1213M57.684 26.9101C57.5601 27.1794 57.5601 27.1794 57.5602 27.1794L57.5605 27.1797L57.5613 27.18L57.5636 27.1811L57.5713 27.1845C57.5778 27.1875 57.5867 27.1915 57.5981 27.1965C57.6207 27.2064 57.653 27.2203 57.6928 27.2363C57.7721 27.2683 57.8835 27.3099 58.0113 27.3485C58.2538 27.4219 58.6068 27.5008 58.9168 27.4391C59.1169 27.3992 59.322 27.2852 59.4574 27.2004C59.5296 27.1552 59.5914 27.1122 59.6353 27.0805C59.6574 27.0645 59.6751 27.0513 59.6877 27.0418C59.6905 27.0396 59.6931 27.0376 59.6954 27.0359C59.6982 27.0337 59.7006 27.0319 59.7025 27.0303L59.7069 27.027L59.7082 27.026L59.7086 27.0256L59.7088 27.0255L59.7089 27.0253M57.684 26.9101L59.5279 26.7913M59 23.1213C59.3619 23.3812 59.7126 23.7474 59.9158 24.2262C60.0049 24.4364 60.0605 24.8831 59.822 25.3667V26.7913M59 23.1213L59.822 26.7913M59.7089 27.0253C59.7089 27.0253 59.7089 27.0253 59.5279 26.7913M59.7089 27.0253L59.5279 26.7913M59.7089 27.0253L59.822 26.9362V26.7913" stroke="white" stroke-width="0.658784"/>
<path d="M37.308 75.6527L37.3364 75.4804L37.3822 75.2027L37.1101 75.1417L35.7773 74.8427L35.4532 74.77L35.421 75.1038L35.3467 75.8723L35.1748 77.653C35.172 77.6822 35.1691 77.7122 35.1662 77.7429C35.0805 78.6372 34.9251 80.2598 34.1813 82.1784C34.1344 82.2788 34.0893 82.4353 34.1112 82.6037C34.1373 82.8044 34.2582 82.9985 34.504 83.0965C34.6319 83.1474 34.7649 83.1546 34.8904 83.1116C35.0102 83.0706 35.0975 82.9928 35.1579 82.9182C35.2657 82.7848 35.3223 82.6194 35.3474 82.5029C35.548 81.9442 35.8642 81.0998 36.1698 80.3574C36.3247 79.9812 36.4752 79.6351 36.6057 79.3668C36.671 79.2322 36.7928 79.0227 36.8426 78.9389M37.308 75.6527L36.8696 78.905M37.308 75.6527C37.6864 75.9616 37.7728 76.3536 37.7928 76.5288C37.8522 77.0463 37.7281 77.5402 37.5421 77.9473C37.3566 78.3533 37.1007 78.6922 36.8696 78.905M36.8426 78.9389C36.8675 78.8969 36.8252 78.9628 36.8426 78.9389ZM36.8426 78.9389C36.8596 78.9152 36.8696 78.905 36.8696 78.905" stroke="white" stroke-width="0.658784"/>
<path d="M53.2165 71.9279C53.2165 68.3729 52.8636 51.7435 50.2764 47.9341" stroke="white" stroke-width="0.658784" stroke-linecap="round"/>
</svg>
