<svg width="114" height="38" viewBox="0 0 114 38" fill="none" xmlns="http://www.w3.org/2000/svg">
<path d="M17.5305 18.5858H14.2595V21.8568H17.5305V18.5858ZM13.0384 18.5858H9.76747V21.8568H13.0384V18.5858ZM22.0313 14.0938H18.7603V17.3647H22.0313V14.0938ZM17.5305 14.0938H14.2595V17.3647H17.5305V14.0938ZM13.0384 14.0938H9.76747V17.3647H13.0384V14.0938ZM8.54632 14.0938H5.27539V17.3647H8.54632V14.0938Z" fill="#E40042"/>
<path d="M22.0305 9.60181H18.7596V12.8727H22.0305V9.60181ZM17.5297 9.60181H14.2588V12.8727H17.5297V9.60181Z" fill="#585857"/>
<path d="M13.0382 9.60181H9.76729V12.8727H13.0382V9.60181ZM8.54614 9.60181H5.27521V12.8727H8.54614V9.60181ZM4.04534 9.60181H0.774414V12.8727H4.04534V9.60181Z" fill="#68C1BE"/>
<path d="M22.0305 5.10083H18.7596V8.37176H22.0305V5.10083ZM17.5297 5.10083H14.2588V8.37176H17.5297V5.10083Z" fill="#585857"/>
<path d="M13.0382 5.10083H9.76729V8.37176H13.0382V5.10083ZM8.54614 5.10083H5.27521V8.37176H8.54614V5.10083ZM4.04534 5.10083H0.774414V8.37176H4.04534V5.10083Z" fill="#68C1BE"/>
<path d="M17.5297 0.608643H14.2588V3.87957H17.5297V0.608643Z" fill="#585857"/>
<path d="M13.0384 0.608643H9.76747V3.87957H13.0384V0.608643ZM8.54632 0.608643H5.27539V3.87957H8.54632V0.608643Z" fill="#68C1BE"/>
<path d="M113.154 12.8727V33.3095C113.154 35.3506 111.924 37.3916 109.473 37.3916H98.6393V32.4896H105.382C106.402 32.4896 106.612 32.0796 106.612 31.2597V29.8292H101.099C98.648 29.8292 97.4182 27.7882 97.4182 25.7471V12.8815H103.96V24.526C103.96 25.5465 104.37 25.7558 105.19 25.7558H106.62V12.8815H113.162L113.154 12.8727ZM82.5027 12.8727C80.0517 12.8727 78.8218 14.9138 78.8218 16.9549V37.3829H85.3637V27.1689H88.0153V37.3829H94.5572V12.8727H82.5027ZM88.0153 23.0868H85.3637V18.1847C85.3637 17.1642 85.7737 16.9636 86.5936 16.9636H88.0241V23.0868H88.0153ZM75.9696 29.2187V37.3916H69.4277V27.1776H67.9973C67.1773 27.1776 66.7674 27.3782 66.7674 28.4075V37.3916H60.2255V29.2187C60.2255 27.1776 61.2461 25.3372 62.8859 25.1278C61.2548 24.9272 60.2255 23.0868 60.2342 21.0457V12.8727H66.7674V23.0868H68.1979C69.0178 23.0868 69.4277 22.8861 69.4277 21.8569V12.864H75.9696V21.037C75.9696 23.078 74.9491 24.9185 73.3092 25.1191C74.9403 25.3284 75.9696 27.1689 75.9696 29.2099M52.6719 23.0868H56.754V27.1689H52.6719V32.4721L57.3733 32.4809V37.3916H46.1387V12.8727H57.3733V17.7748H52.6719V23.0868ZM39.5969 12.8727H28.3623V37.3916H34.8954V30.8585H39.5969C42.0479 30.8585 43.2777 28.8174 43.2777 26.7764V16.9723C43.2777 14.9312 42.0479 12.8815 39.5969 12.8902M37.5558 25.5552C37.5558 26.5758 37.1458 26.7851 36.3259 26.7851H34.8954V16.981H36.3259C37.1458 16.981 37.5558 17.1816 37.5558 18.2109V25.5639V25.5552Z" fill="#1D1E1C"/>
</svg>
