<svg width="0" height="0" class="hidden">
  <symbol fill="none" xmlns="http://www.w3.org/2000/svg" viewBox="0 0 10 16" id="ic_arr_hor">
    <path d="M2 1.5L7.42168 6.53441C8.27381 7.32568 8.27381 8.67432 7.42168 9.46559L2 14.5" stroke="currentColor" stroke-width="3" stroke-linecap="round"></path>
  </symbol>
  <symbol fill="none" xmlns="http://www.w3.org/2000/svg" viewBox="0 0 18 19" id="ic_arr_ver">
    <path d="M3 7.25L9 13.25L15 7.25" stroke="currentColor" stroke-width="2" stroke-linecap="square"></path>
  </symbol>
  <symbol fill="none" xmlns="http://www.w3.org/2000/svg" viewBox="0 0 17 13" id="ic_arrow_hor">
    <path fill-rule="evenodd" clip-rule="evenodd" d="M8.74172 2.34719C9.21354 2.03745 9.34493 1.40387 9.03519 0.932051C8.72544 0.460231 8.09186 0.32884 7.62004 0.638582L1.58374 4.60132C0.142002 5.54779 0.150838 7.66451 1.60041 8.59892L7.44438 12.366C7.91877 12.6718 8.55123 12.5351 8.85703 12.0607C9.16282 11.5864 9.02615 10.9539 8.55176 10.6481L3.86413 7.6264H15.4697C16.0341 7.6264 16.4916 7.16886 16.4916 6.60445C16.4916 6.04005 16.0341 5.58251 15.4697 5.58251H3.81347L8.74172 2.34719Z" fill="currentColor"></path>
  </symbol>
  <symbol fill="none" xmlns="http://www.w3.org/2000/svg" viewBox="0 0 29 39" id="ic_arrow_ver">
    <path d="M2 14.2759L14.5 2.77588L27 14.2759" stroke="currentColor" stroke-width="3" stroke-linecap="round"></path>
    <path d="M14.5 2.77588V36.7759" stroke="currentColor" stroke-width="3" stroke-linecap="round"></path>
  </symbol>
  <symbol fill="none" xmlns="http://www.w3.org/2000/svg" viewBox="0 0 19 14" id="ic_check">
    <path d="M3.03273 5.72717L7.00027 9.69633L15.9674 0.728868C16.5477 0.147018 17.4887 0.147018 18.0691 0.728868C18.6494 1.30824 18.6494 2.24847 18.0691 2.8295L8.06361 12.8352C7.7702 13.1285 7.38461 13.2736 7.00006 13.2703C6.61547 13.2736 6.22985 13.1285 5.93644 12.8352L0.931082 7.83028C0.350772 7.24926 0.350772 6.30902 0.931082 5.72717C1.51139 5.14863 2.4523 5.14863 3.03273 5.72717Z" fill="currentColor"></path>
  </symbol>
  <symbol fill="none" xmlns="http://www.w3.org/2000/svg" viewBox="0 0 21 20" id="ic_close">
    <path fill-rule="evenodd" clip-rule="evenodd" d="M2.03033 0.21967C1.73744 -0.0732233 1.26256 -0.0732233 0.96967 0.21967C0.676777 0.512563 0.676777 0.987437 0.96967 1.28033L9.61176 9.92242L0.971497 18.5627C0.678602 18.8556 0.678602 19.3304 0.971497 19.6233C1.26439 19.9162 1.73926 19.9162 2.03216 19.6233L10.6724 10.9831L19.3127 19.6233C19.6056 19.9162 20.0804 19.9162 20.3733 19.6233C20.6662 19.3304 20.6662 18.8556 20.3733 18.5627L11.7331 9.92242L20.3752 1.28033C20.6681 0.987437 20.6681 0.512563 20.3752 0.21967C20.0823 -0.0732233 19.6074 -0.0732233 19.3145 0.21967L10.6724 8.86176L2.03033 0.21967Z" fill="currentColor"></path>
    <path fill-rule="evenodd" clip-rule="evenodd" d="M2.03033 0.21967C1.73744 -0.0732233 1.26256 -0.0732233 0.96967 0.21967C0.676777 0.512563 0.676777 0.987437 0.96967 1.28033L9.61176 9.92242L0.971497 18.5627C0.678602 18.8556 0.678602 19.3304 0.971497 19.6233C1.26439 19.9162 1.73926 19.9162 2.03216 19.6233L10.6724 10.9831L19.3127 19.6233C19.6056 19.9162 20.0804 19.9162 20.3733 19.6233C20.6662 19.3304 20.6662 18.8556 20.3733 18.5627L11.7331 9.92242L20.3752 1.28033C20.6681 0.987437 20.6681 0.512563 20.3752 0.21967C20.0823 -0.0732233 19.6074 -0.0732233 19.3145 0.21967L10.6724 8.86176L2.03033 0.21967Z" fill="currentColor"></path>
  </symbol>
  <symbol fill="none" xmlns="http://www.w3.org/2000/svg" viewBox="0 0 23 24" id="ic_email">
    <path d="M18.0899 4.47754H4.92544C4.17728 4.47754 3.45976 4.77475 2.93073 5.30378C2.4017 5.83281 2.10449 6.55032 2.10449 7.29849V16.7016C2.10449 17.4498 2.4017 18.1673 2.93073 18.6964C3.45976 19.2254 4.17728 19.5226 4.92544 19.5226H18.0899C18.838 19.5226 19.5555 19.2254 20.0846 18.6964C20.6136 18.1673 20.9108 17.4498 20.9108 16.7016V7.29849C20.9108 6.55032 20.6136 5.83281 20.0846 5.30378C19.5555 4.77475 18.838 4.47754 18.0899 4.47754ZM4.92544 6.35817H18.0899C18.3393 6.35817 18.5784 6.45724 18.7548 6.63358C18.9311 6.80993 19.0302 7.0491 19.0302 7.29849L11.5077 11.8872L3.98512 7.29849C3.98512 7.0491 4.08419 6.80993 4.26054 6.63358C4.43688 6.45724 4.67605 6.35817 4.92544 6.35817ZM19.0302 16.7016C19.0302 16.951 18.9311 17.1902 18.7548 17.3666C18.5784 17.5429 18.3393 17.642 18.0899 17.642H4.92544C4.67605 17.642 4.43688 17.5429 4.26054 17.3666C4.08419 17.1902 3.98512 16.951 3.98512 16.7016V9.44241L11.0187 13.7397C11.1616 13.8222 11.3238 13.8656 11.4888 13.8656C11.6539 13.8656 11.8161 13.8222 11.959 13.7397L19.0302 9.44241V16.7016Z" fill="currentColor"></path>
  </symbol>
  <symbol fill="none" xmlns="http://www.w3.org/2000/svg" viewBox="0 0 14 19" id="ic_location">
    <path d="M7.08398 0.724121C3.49558 0.724121 0.583984 3.31604 0.583984 6.50984C0.583984 11.6527 7.08398 18.7241 7.08398 18.7241C7.08398 18.7241 13.584 11.6527 13.584 6.50984C13.584 3.31604 10.6724 0.724121 7.08398 0.724121ZM7.08398 9.72412C6.56975 9.72412 6.06707 9.57331 5.6395 9.29076C5.21193 9.0082 4.87869 8.6066 4.6819 8.13674C4.48511 7.66687 4.43362 7.14984 4.53394 6.65103C4.63426 6.15222 4.88189 5.69404 5.24551 5.33442C5.60912 4.9748 6.0724 4.72989 6.57675 4.63067C7.0811 4.53145 7.60387 4.58238 8.07896 4.777C8.55405 4.97163 8.96011 5.30121 9.2458 5.72408C9.5315 6.14695 9.68398 6.64411 9.68398 7.15269C9.68323 7.83445 9.40906 8.48807 8.92163 8.97015C8.4342 9.45222 7.77332 9.72338 7.08398 9.72412Z" fill="currentColor"></path>
  </symbol>
  <symbol fill="none" xmlns="http://www.w3.org/2000/svg" viewBox="0 0 27 19" id="ic_menu">
    <path d="M3 1.5H25" stroke="currentColor" stroke-width="3" stroke-linecap="round" stroke-linejoin="round"></path>
    <path d="M3 9.5H25" stroke="currentColor" stroke-width="3" stroke-linecap="round" stroke-linejoin="round"></path>
    <path d="M3 17.5H25" stroke="currentColor" stroke-width="3" stroke-linecap="round" stroke-linejoin="round"></path>
  </symbol>
  <symbol fill="none" xmlns="http://www.w3.org/2000/svg" viewBox="0 0 24 24" id="ic_phone">
    <path d="M19.0582 12.9404C18.8513 12.9404 18.6351 12.8746 18.4282 12.8276C18.0096 12.734 17.598 12.6114 17.1964 12.4608C16.7602 12.3021 16.2807 12.3104 15.8502 12.484C15.4196 12.6576 15.0685 12.9842 14.8644 13.4012L14.6575 13.8337C13.7443 13.3158 12.9007 12.6838 12.1469 11.9531C11.4161 11.1993 10.7842 10.3556 10.2663 9.44242L10.6988 9.24496C11.1157 9.04083 11.4424 8.68973 11.616 8.25922C11.7896 7.8287 11.7978 7.3492 11.6391 6.91297C11.4898 6.50773 11.3673 6.09309 11.2724 5.67176C11.2254 5.46489 11.1878 5.24861 11.1596 5.04174C11.0454 4.37941 10.6985 3.7796 10.1813 3.35034C9.6641 2.92109 9.01066 2.69059 8.33862 2.70036H5.50827C5.11075 2.69984 4.7176 2.78334 4.35461 2.94539C3.99162 3.10744 3.66697 3.34438 3.40196 3.64067C3.13145 3.94501 2.93003 4.3043 2.81154 4.69386C2.69305 5.08342 2.66029 5.49401 2.71553 5.89743C3.22667 9.81116 5.0148 13.4469 7.80264 16.2409C10.5966 19.0287 14.2324 20.8169 18.1461 21.328C18.2682 21.3373 18.3908 21.3373 18.5128 21.328C19.2062 21.329 19.8757 21.0746 20.3935 20.6134C20.6898 20.3484 20.9267 20.0237 21.0888 19.6607C21.2508 19.2977 21.3343 18.9046 21.3338 18.5071V15.6861C21.3287 15.0364 21.0995 14.4083 20.6849 13.9081C20.2703 13.4078 19.6957 13.066 19.0582 12.9404ZM19.519 18.5823C19.5187 18.7135 19.4909 18.8432 19.4375 18.963C19.384 19.0829 19.3061 19.1902 19.2087 19.2781C19.1056 19.372 18.983 19.4418 18.8496 19.4825C18.7163 19.5231 18.5755 19.5336 18.4376 19.5132C14.9286 19.0549 11.6676 17.4558 9.15669 14.9621C6.64367 12.449 5.03061 9.17666 4.56795 5.65295C4.54752 5.51504 4.55802 5.37431 4.59868 5.24095C4.63933 5.1076 4.70914 4.98495 4.80303 4.88189C4.892 4.7833 5.00085 4.70468 5.12241 4.65119C5.24396 4.59771 5.37547 4.57058 5.50827 4.57159H8.32921C8.54658 4.56627 8.75907 4.63645 8.93051 4.77018C9.10196 4.90391 9.22176 5.09292 9.26953 5.30503C9.26953 5.55892 9.35416 5.82221 9.41058 6.07609C9.51926 6.56869 9.66382 7.05268 9.84312 7.52418L8.52668 8.14479C8.30041 8.24866 8.12456 8.43803 8.03772 8.67136C7.94367 8.90029 7.94367 9.15707 8.03772 9.386C9.39102 12.2848 11.7212 14.6149 14.6199 15.9682C14.8489 16.0623 15.1056 16.0623 15.3346 15.9682C15.5679 15.8814 15.7573 15.7055 15.8611 15.4793L16.4535 14.1628C16.9387 14.3397 17.435 14.4842 17.9392 14.5954C18.1837 14.6518 18.447 14.6988 18.7009 14.7364C18.913 14.7842 19.102 14.904 19.2358 15.0754C19.3695 15.2469 19.4397 15.4594 19.4343 15.6767L19.519 18.5823ZM13.9711 2.59692C13.7548 2.59692 13.5292 2.59692 13.3129 2.59692C13.0635 2.61812 12.8327 2.73752 12.6714 2.92885C12.51 3.12019 12.4313 3.36778 12.4525 3.61717C12.4737 3.86655 12.5931 4.09731 12.7844 4.25866C12.9758 4.42001 13.2234 4.49875 13.4727 4.47756H13.9711C15.4674 4.47756 16.9025 5.07197 17.9605 6.13003C19.0186 7.18809 19.613 8.62313 19.613 10.1195C19.613 10.2887 19.613 10.4486 19.613 10.6178C19.5922 10.8659 19.6705 11.1121 19.8309 11.3025C19.9913 11.4928 20.2207 11.6118 20.4687 11.6334H20.5439C20.7793 11.6343 21.0065 11.5469 21.1806 11.3885C21.3547 11.2301 21.463 11.0121 21.4842 10.7777C21.4842 10.5614 21.4842 10.3357 21.4842 10.1195C21.4842 8.12598 20.693 6.21402 19.2843 4.80354C17.8755 3.39307 15.9646 2.59942 13.9711 2.59692ZM15.8517 10.1195C15.8517 10.3688 15.9508 10.608 16.1272 10.7844C16.3035 10.9607 16.5427 11.0598 16.7921 11.0598C17.0414 11.0598 17.2806 10.9607 17.457 10.7844C17.6333 10.608 17.7324 10.3688 17.7324 10.1195C17.7324 9.1219 17.3361 8.16521 16.6307 7.45984C15.9254 6.75446 14.9687 6.35819 13.9711 6.35819C13.7217 6.35819 13.4825 6.45726 13.3062 6.6336C13.1299 6.80994 13.0308 7.04912 13.0308 7.2985C13.0308 7.54789 13.1299 7.78706 13.3062 7.96341C13.4825 8.13975 13.7217 8.23882 13.9711 8.23882C14.4699 8.23882 14.9482 8.43696 15.3009 8.78964C15.6536 9.14233 15.8517 9.62068 15.8517 10.1195Z" fill="currentColor"></path>
  </symbol>
  <symbol fill="none" xmlns="http://www.w3.org/2000/svg" viewBox="0 0 21 21" id="ic_phone2">
    <path d="M4.10621 8.87968C5.70621 12.0241 8.28399 14.6019 11.4284 16.2019L13.8729 13.7575C14.184 13.4463 14.6173 13.3575 15.0062 13.4797C16.2507 13.8908 17.584 14.113 18.9729 14.113C19.2676 14.113 19.5502 14.2301 19.7585 14.4384C19.9669 14.6468 20.084 14.9294 20.084 15.2241V19.113C20.084 19.4077 19.9669 19.6903 19.7585 19.8987C19.5502 20.1071 19.2676 20.2241 18.9729 20.2241C13.9632 20.2241 9.15877 18.234 5.61641 14.6917C2.07406 11.1493 0.0839844 6.34488 0.0839844 1.33523C0.0839844 1.04055 0.201047 0.757932 0.409421 0.549558C0.617795 0.341184 0.900411 0.224121 1.1951 0.224121H5.08398C5.37867 0.224121 5.66128 0.341184 5.86966 0.549558C6.07803 0.757932 6.1951 1.04055 6.1951 1.33523C6.1951 2.72412 6.41732 4.05745 6.82843 5.3019C6.95065 5.69079 6.86176 6.12412 6.55065 6.43523L4.10621 8.87968Z" fill="currentColor"></path>
  </symbol>
  <symbol fill="none" xmlns="http://www.w3.org/2000/svg" viewBox="0 0 18 17" id="ic_star">
    <path d="M9.26592 14.1548C9.01072 14.0002 8.69072 14.0002 8.43553 14.1549L4.52166 16.5271C3.91502 16.8948 3.16508 16.3508 3.32627 15.66L4.3639 11.2132C4.43131 10.9243 4.33357 10.6218 4.10987 10.427L0.664783 7.42688C0.131144 6.96217 0.41802 6.08439 1.12311 6.02452L5.66322 5.63897C5.95887 5.61387 6.21643 5.42741 6.33259 5.15438L8.11436 0.96671C8.3909 0.31676 9.31213 0.316761 9.58867 0.966711L11.3704 5.15439C11.4866 5.42741 11.7442 5.61387 12.0398 5.63898L16.5799 6.02452C17.285 6.08439 17.5719 6.96216 17.0382 7.42688L13.5932 10.427C13.3695 10.6218 13.2717 10.9243 13.3391 11.2132L14.3768 15.6603C14.538 16.351 13.7882 16.8951 13.1815 16.5275L9.26592 14.1548Z" fill="currentColor"></path>
  </symbol>
  <symbol fill="none" xmlns="http://www.w3.org/2000/svg" viewBox="0 0 39 35" id="ic_telegram">
    <path d="M38.4681 3.43563C38.7642 1.47949 36.9453 -0.0645127 35.2444 0.699132L1.36644 15.9089C0.146667 16.4565 0.235891 18.3458 1.50098 18.7577L8.48747 21.0328C9.82088 21.467 11.2647 21.2425 12.4291 20.4199L28.1806 9.29209C28.6556 8.95652 29.1733 9.64712 28.7675 10.075L17.4293 22.0284C16.3294 23.188 16.5477 25.1528 17.8707 26.0012L30.565 34.1413C31.9888 35.0543 33.8205 34.1371 34.0868 32.3778L38.4681 3.43563Z" fill="currentColor"></path>
  </symbol>
  <symbol fill="none" xmlns="http://www.w3.org/2000/svg" viewBox="0 0 22 23" id="ic_tooltip">
    <path d="M11 0.66626C4.92522 0.66626 0 5.59148 0 11.6663C0 17.7417 4.92522 22.6663 11 22.6663C17.0755 22.6663 22 17.7424 22 11.6663C22 5.59148 17.0754 0.66626 11 0.66626ZM11 20.6037C6.06378 20.6037 2.06253 16.6025 2.06253 11.6663C2.06253 6.73004 6.06378 2.72879 11 2.72879C15.9362 2.72879 19.9375 6.73004 19.9375 11.6663C19.9375 16.6025 15.9362 20.6037 11 20.6037ZM11.0007 5.49043C10.2128 5.49043 9.61672 5.90158 9.61672 6.56568V12.6569C9.61672 13.3217 10.2128 13.7315 11.0007 13.7315C11.7693 13.7315 12.3847 13.3046 12.3847 12.6569V6.56568C12.3846 5.91735 11.7693 5.49043 11.0007 5.49043ZM11.0007 15.1038C10.2438 15.1038 9.62772 15.7198 9.62772 16.4774C9.62772 17.2336 10.2438 17.8496 11.0007 17.8496C11.7576 17.8496 12.373 17.2336 12.373 16.4774C12.3729 15.7197 11.7576 15.1038 11.0007 15.1038Z" fill="currentColor"></path>
  </symbol>
  <symbol fill="none" xmlns="http://www.w3.org/2000/svg" viewBox="0 0 18 20" id="ic_user">
    <path d="M18 20H0V19.141C0.266289 14.479 4.28455 10.9021 9 11.1295C13.7154 10.9021 17.7337 14.479 18 19.141V19.9978V20ZM9 8.90414C7.79417 8.94558 6.62507 8.48998 5.7719 7.64614C4.91873 6.8023 4.4581 5.64598 4.5 4.45333C4.45877 3.26087 4.91963 2.10494 5.77264 1.26125C6.62566 0.417557 7.79436 -0.0382584 9 0.00251887C10.2056 -0.0382584 11.3743 0.417557 12.2274 1.26125C13.0804 2.10494 13.5412 3.26087 13.5 4.45333C13.5419 5.64598 13.0813 6.8023 12.2281 7.64614C11.3749 8.48998 10.2058 8.94558 9 8.90414Z" fill="currentColor"></path>
  </symbol>
  <symbol fill="none" xmlns="http://www.w3.org/2000/svg" viewBox="0 0 31 36" id="ic_video_play">
    <path d="M30 16.268C31.3333 17.0378 31.3333 18.9623 30 19.7321L3 35.3205C1.66667 36.0903 2.10436e-06 35.1281 2.17165e-06 33.5885L3.53444e-06 2.41155C3.60174e-06 0.871944 1.66667 -0.0903096 3 0.679491L30 16.268Z" fill="currentColor"></path>
  </symbol>
  <symbol fill="none" xmlns="http://www.w3.org/2000/svg" viewBox="0 0 33 34" id="ic_whatsapp">
    <path fill-rule="evenodd" clip-rule="evenodd" d="M28.1918 5.2963C26.6696 3.77142 24.8586 2.56231 22.8636 1.73901C20.8686 0.915706 18.7292 0.494589 16.5695 0.500052C7.5133 0.500052 0.140932 7.8356 0.137271 16.8525C0.137271 19.7342 0.893176 22.5468 2.32994 25.0278L0 33.5L8.7103 31.2248C11.1197 32.5302 13.819 33.2146 16.5622 33.2158H16.5695C25.6239 33.2158 32.9963 25.8803 32.9999 16.8634C33.0062 14.7148 32.5844 12.5863 31.7591 10.6009C30.9339 8.61547 29.7214 6.81254 28.1918 5.2963ZM16.5695 30.4561H16.564C14.1179 30.4564 11.7168 29.8014 9.61263 28.5598L9.11479 28.2647L3.94608 29.6145L5.32428 24.5997L5.00032 24.086C3.63272 21.9191 2.90874 19.4114 2.91197 16.8525C2.91563 9.35845 9.04158 3.26158 16.575 3.26158C18.3691 3.25762 20.1462 3.60784 21.8035 4.29197C23.4607 4.9761 24.9651 5.98057 26.2297 7.24723C27.5011 8.50784 28.5088 10.0067 29.1946 11.6573C29.8804 13.3078 30.2307 15.0773 30.2252 16.8634C30.2216 24.3574 24.0956 30.4561 16.5695 30.4561ZM24.0608 20.2752C23.649 20.0694 21.6321 19.0821 21.255 18.9455C20.8798 18.8089 20.6071 18.7415 20.3326 19.1495C20.058 19.5575 19.271 20.4774 19.0312 20.7507C18.7915 21.0239 18.5517 21.0567 18.1417 20.8527C17.7317 20.6487 16.4085 20.217 14.8399 18.8253C13.6191 17.7414 12.7955 16.4044 12.5557 15.9945C12.3159 15.5846 12.5301 15.3642 12.7369 15.1602C12.9218 14.9781 13.1469 14.683 13.3519 14.4443C13.5569 14.2057 13.6246 14.0363 13.7619 13.7631C13.8991 13.4898 13.8314 13.2512 13.7271 13.0472C13.6246 12.8413 12.8028 10.8303 12.4605 10.0124C12.1293 9.22001 11.7907 9.32566 11.5381 9.31473C11.2765 9.30408 11.0147 9.29922 10.7529 9.30016C10.5447 9.30544 10.3399 9.35347 10.1512 9.44124C9.96255 9.52901 9.79414 9.65462 9.65655 9.81021C9.27952 10.2201 8.21978 11.2074 8.21978 13.2184C8.21978 15.2294 9.69133 17.1731 9.89632 17.4463C10.1013 17.7196 12.7918 21.8455 16.9099 23.616C17.891 24.0368 18.656 24.2882 19.2509 24.4777C20.2337 24.7892 21.1287 24.7436 21.8371 24.6398C22.6259 24.5232 24.2658 23.6525 24.6081 22.698C24.9504 21.7435 24.9504 20.9256 24.8479 20.7543C24.7454 20.5831 24.469 20.4793 24.0608 20.2752Z" fill="currentColor"></path>
  </symbol>
</svg>