<svg width="23" height="23" viewBox="0 0 23 23" fill="none" xmlns="http://www.w3.org/2000/svg">
<g clip-path="url(#clip0_3002_5407)">
<path d="M11.2984 22.8732C17.5303 22.8732 22.5822 17.8213 22.5822 11.5895C22.5822 5.35759 17.5303 0.305664 11.2984 0.305664C5.06658 0.305664 0.0146484 5.35759 0.0146484 11.5895C0.0146484 17.8213 5.06658 22.8732 11.2984 22.8732Z" fill="#FC3F1D"/>
<path d="M13.0681 18.6418H15.5283V4.53711H11.9474C8.34614 4.53711 6.45717 6.3806 6.45717 9.10387C6.45717 11.4548 7.68181 12.7803 9.85112 14.22L11.1692 15.0899L9.47734 13.671L6.125 18.6418H8.79221L12.3734 13.2983L11.128 12.4696C9.62298 11.4548 8.886 10.6677 8.886 8.95894C8.886 7.4575 9.94492 6.44266 11.958 6.44266H13.0582V18.6418H13.0688H13.0681Z" fill="white"/>
</g>
<defs>
<clipPath id="clip0_3002_5407">
<rect width="22.5676" height="22.5676" fill="white" transform="translate(0.0146484 0.305664)"/>
</clipPath>
</defs>
</svg>
